M48
INCH
T10C0.086614
T11C0.032000
T12C0.060350
T13C0.044000
T14C0.040000
T15C0.035000
T16C0.038000
%
T10
X018652Y010327
X018652Y000827
X000902Y010327
X000902Y000827
T11
X008152Y007838
X009152Y007838
X010152Y007838
X011152Y007838
X011152Y004838
X010152Y004838
X009152Y004838
X008152Y004838
T12
X004652Y001854
X004652Y002838
X004652Y004806
X004652Y005790
X002684Y003822
X014902Y005790
X014902Y004806
X014902Y002838
X014902Y001854
X016870Y003822
T13
X004652Y003822
X002684Y001854
X001700Y001854
X001700Y005790
X002684Y005790
X014902Y003822
X016870Y005790
X017854Y005790
X017854Y001854
X016870Y001854
T14
X008530Y001838
X007152Y001838
T15
X011152Y009838
X012152Y009838
X007152Y009838
X008152Y009838
X007152Y007838
X007152Y003838
X012902Y002827
X012902Y001827
X012902Y007827
X012902Y003827
T16
X005652Y008577
X003652Y008577
X001652Y008577
T00
M30
