G04 MADE WITH FRITZING*
G04 WWW.FRITZING.ORG*
G04 DOUBLE SIDED*
G04 HOLES PLATED*
G04 CONTOUR ON CENTER OF CONTOUR VECTOR*
%ASAXBY*%
%FSLAX23Y23*%
%MOIN*%
%OFA0B0*%
%SFA1.0B1.0*%
%ADD10C,0.075000*%
%ADD11C,0.068000*%
%ADD12C,0.080350*%
%ADD13C,0.080000*%
%ADD14C,0.078000*%
%ADD15R,0.080000X0.080000*%
%ADD16R,0.075000X0.075000*%
%ADD17R,0.078000X0.078000*%
%ADD18C,0.024000*%
%LNCOPPER1*%
G90*
G70*
G54D10*
X1295Y890D03*
X1266Y653D03*
X746Y663D03*
X582Y200D03*
X975Y202D03*
X1461Y1025D03*
G54D11*
X815Y484D03*
X915Y484D03*
X1015Y484D03*
X1115Y484D03*
X1115Y784D03*
X1015Y784D03*
X915Y784D03*
X815Y784D03*
X815Y484D03*
X915Y484D03*
X1015Y484D03*
X1115Y484D03*
X1115Y784D03*
X1015Y784D03*
X915Y784D03*
X815Y784D03*
G54D12*
X1687Y382D03*
X1490Y185D03*
X1490Y284D03*
X1490Y481D03*
X1490Y579D03*
G54D13*
X715Y184D03*
X853Y184D03*
G54D10*
X1290Y383D03*
X1290Y783D03*
X1290Y183D03*
X1290Y283D03*
G54D14*
X165Y858D03*
X365Y858D03*
X565Y858D03*
G54D10*
X715Y384D03*
X715Y784D03*
X815Y984D03*
X715Y984D03*
X1215Y984D03*
X1115Y984D03*
G54D12*
X268Y382D03*
X465Y579D03*
X465Y481D03*
X465Y284D03*
X465Y185D03*
G54D15*
X715Y184D03*
G54D16*
X1290Y183D03*
G54D17*
X165Y858D03*
G54D16*
X815Y984D03*
X1215Y984D03*
G54D18*
X465Y227D02*
X465Y243D01*
D02*
X737Y206D02*
X915Y385D01*
D02*
X1115Y384D02*
X1115Y457D01*
D02*
X915Y385D02*
X1115Y384D01*
D02*
X915Y385D02*
X915Y457D01*
D02*
X815Y384D02*
X744Y384D01*
D02*
X815Y457D02*
X815Y384D01*
D02*
X815Y811D02*
X815Y955D01*
D02*
X1615Y384D02*
X1646Y383D01*
D02*
X1615Y85D02*
X1615Y384D01*
D02*
X1390Y483D02*
X1449Y482D01*
D02*
X1390Y282D02*
X1390Y483D01*
D02*
X1490Y522D02*
X1490Y538D01*
D02*
X1390Y282D02*
X1449Y283D01*
D02*
X1490Y243D02*
X1490Y227D01*
D02*
X1291Y83D02*
X1615Y85D01*
D02*
X715Y955D02*
X715Y812D01*
D02*
X216Y83D02*
X216Y383D01*
D02*
X715Y85D02*
X216Y83D01*
D02*
X715Y153D02*
X715Y85D01*
D02*
X1290Y311D02*
X1290Y354D01*
D02*
X1291Y83D02*
X1290Y154D01*
D02*
X715Y85D02*
X1291Y83D01*
D02*
X1262Y783D02*
X1142Y784D01*
D02*
X1115Y784D02*
X1262Y783D01*
D02*
X1115Y955D02*
X1115Y784D01*
D02*
X1390Y282D02*
X1390Y982D01*
D02*
X1390Y982D02*
X1244Y984D01*
D02*
X639Y933D02*
X639Y582D01*
D02*
X639Y582D02*
X1016Y582D01*
D02*
X1016Y582D02*
X1015Y511D01*
D02*
X364Y933D02*
X639Y933D01*
D02*
X365Y888D02*
X364Y933D01*
D02*
X216Y383D02*
X227Y383D01*
D02*
X216Y857D02*
X216Y383D01*
D02*
X195Y857D02*
X216Y857D01*
D02*
X565Y282D02*
X565Y828D01*
D02*
X507Y283D02*
X565Y282D01*
D02*
X1189Y282D02*
X1189Y684D01*
D02*
X1015Y684D02*
X1015Y757D01*
D02*
X1189Y684D02*
X1015Y684D01*
D02*
X941Y283D02*
X1189Y282D01*
D02*
X874Y207D02*
X941Y283D01*
G36*
X1268Y955D02*
X1268Y931D01*
X1144Y931D01*
X1144Y837D01*
X1296Y837D01*
X1296Y835D01*
X1304Y835D01*
X1304Y833D01*
X1310Y833D01*
X1310Y831D01*
X1312Y831D01*
X1312Y829D01*
X1316Y829D01*
X1316Y827D01*
X1320Y827D01*
X1320Y825D01*
X1322Y825D01*
X1322Y823D01*
X1324Y823D01*
X1324Y821D01*
X1326Y821D01*
X1326Y819D01*
X1328Y819D01*
X1328Y817D01*
X1330Y817D01*
X1330Y815D01*
X1332Y815D01*
X1332Y813D01*
X1334Y813D01*
X1334Y809D01*
X1336Y809D01*
X1336Y807D01*
X1338Y807D01*
X1338Y803D01*
X1340Y803D01*
X1340Y797D01*
X1342Y797D01*
X1342Y791D01*
X1362Y791D01*
X1362Y955D01*
X1268Y955D01*
G37*
D02*
G36*
X1144Y837D02*
X1144Y823D01*
X1146Y823D01*
X1146Y821D01*
X1148Y821D01*
X1148Y819D01*
X1150Y819D01*
X1150Y817D01*
X1152Y817D01*
X1152Y815D01*
X1154Y815D01*
X1154Y811D01*
X1248Y811D01*
X1248Y815D01*
X1250Y815D01*
X1250Y817D01*
X1252Y817D01*
X1252Y819D01*
X1254Y819D01*
X1254Y821D01*
X1256Y821D01*
X1256Y823D01*
X1258Y823D01*
X1258Y825D01*
X1262Y825D01*
X1262Y827D01*
X1264Y827D01*
X1264Y829D01*
X1268Y829D01*
X1268Y831D01*
X1272Y831D01*
X1272Y833D01*
X1276Y833D01*
X1276Y835D01*
X1284Y835D01*
X1284Y837D01*
X1144Y837D01*
G37*
D02*
G36*
X1342Y775D02*
X1342Y769D01*
X1340Y769D01*
X1340Y763D01*
X1338Y763D01*
X1338Y759D01*
X1336Y759D01*
X1336Y757D01*
X1334Y757D01*
X1334Y753D01*
X1332Y753D01*
X1332Y751D01*
X1330Y751D01*
X1330Y749D01*
X1328Y749D01*
X1328Y747D01*
X1326Y747D01*
X1326Y745D01*
X1324Y745D01*
X1324Y743D01*
X1322Y743D01*
X1322Y741D01*
X1320Y741D01*
X1320Y739D01*
X1316Y739D01*
X1316Y737D01*
X1312Y737D01*
X1312Y735D01*
X1310Y735D01*
X1310Y733D01*
X1304Y733D01*
X1304Y731D01*
X1296Y731D01*
X1296Y729D01*
X1362Y729D01*
X1362Y775D01*
X1342Y775D01*
G37*
D02*
G36*
X1054Y757D02*
X1054Y755D01*
X1052Y755D01*
X1052Y751D01*
X1050Y751D01*
X1050Y749D01*
X1048Y749D01*
X1048Y747D01*
X1044Y747D01*
X1044Y735D01*
X1104Y735D01*
X1104Y737D01*
X1098Y737D01*
X1098Y739D01*
X1094Y739D01*
X1094Y741D01*
X1090Y741D01*
X1090Y743D01*
X1088Y743D01*
X1088Y745D01*
X1086Y745D01*
X1086Y747D01*
X1084Y747D01*
X1084Y749D01*
X1082Y749D01*
X1082Y751D01*
X1080Y751D01*
X1080Y753D01*
X1078Y753D01*
X1078Y755D01*
X1076Y755D01*
X1076Y757D01*
X1054Y757D01*
G37*
D02*
G36*
X1152Y755D02*
X1152Y751D01*
X1150Y751D01*
X1150Y749D01*
X1148Y749D01*
X1148Y747D01*
X1144Y747D01*
X1144Y745D01*
X1142Y745D01*
X1142Y743D01*
X1140Y743D01*
X1140Y741D01*
X1136Y741D01*
X1136Y739D01*
X1132Y739D01*
X1132Y737D01*
X1128Y737D01*
X1128Y735D01*
X1268Y735D01*
X1268Y737D01*
X1264Y737D01*
X1264Y739D01*
X1262Y739D01*
X1262Y741D01*
X1258Y741D01*
X1258Y743D01*
X1256Y743D01*
X1256Y745D01*
X1254Y745D01*
X1254Y747D01*
X1252Y747D01*
X1252Y749D01*
X1250Y749D01*
X1250Y751D01*
X1248Y751D01*
X1248Y755D01*
X1152Y755D01*
G37*
D02*
G36*
X1044Y735D02*
X1044Y733D01*
X1272Y733D01*
X1272Y735D01*
X1044Y735D01*
G37*
D02*
G36*
X1044Y735D02*
X1044Y733D01*
X1272Y733D01*
X1272Y735D01*
X1044Y735D01*
G37*
D02*
G36*
X1044Y733D02*
X1044Y729D01*
X1284Y729D01*
X1284Y731D01*
X1276Y731D01*
X1276Y733D01*
X1044Y733D01*
G37*
D02*
G36*
X1044Y729D02*
X1044Y727D01*
X1362Y727D01*
X1362Y729D01*
X1044Y729D01*
G37*
D02*
G36*
X1044Y729D02*
X1044Y727D01*
X1362Y727D01*
X1362Y729D01*
X1044Y729D01*
G37*
D02*
G36*
X1044Y727D02*
X1044Y713D01*
X1184Y713D01*
X1184Y711D01*
X1200Y711D01*
X1200Y709D01*
X1204Y709D01*
X1204Y707D01*
X1206Y707D01*
X1206Y705D01*
X1208Y705D01*
X1208Y703D01*
X1210Y703D01*
X1210Y701D01*
X1212Y701D01*
X1212Y699D01*
X1214Y699D01*
X1214Y695D01*
X1216Y695D01*
X1216Y687D01*
X1218Y687D01*
X1218Y437D01*
X1296Y437D01*
X1296Y435D01*
X1304Y435D01*
X1304Y433D01*
X1310Y433D01*
X1310Y431D01*
X1312Y431D01*
X1312Y429D01*
X1316Y429D01*
X1316Y427D01*
X1320Y427D01*
X1320Y425D01*
X1322Y425D01*
X1322Y423D01*
X1324Y423D01*
X1324Y421D01*
X1326Y421D01*
X1326Y419D01*
X1328Y419D01*
X1328Y417D01*
X1330Y417D01*
X1330Y415D01*
X1332Y415D01*
X1332Y413D01*
X1334Y413D01*
X1334Y409D01*
X1336Y409D01*
X1336Y407D01*
X1338Y407D01*
X1338Y403D01*
X1340Y403D01*
X1340Y397D01*
X1342Y397D01*
X1342Y391D01*
X1362Y391D01*
X1362Y727D01*
X1044Y727D01*
G37*
D02*
G36*
X1218Y437D02*
X1218Y387D01*
X1238Y387D01*
X1238Y397D01*
X1240Y397D01*
X1240Y401D01*
X1242Y401D01*
X1242Y405D01*
X1244Y405D01*
X1244Y409D01*
X1246Y409D01*
X1246Y411D01*
X1248Y411D01*
X1248Y415D01*
X1250Y415D01*
X1250Y417D01*
X1252Y417D01*
X1252Y419D01*
X1254Y419D01*
X1254Y421D01*
X1256Y421D01*
X1256Y423D01*
X1258Y423D01*
X1258Y425D01*
X1262Y425D01*
X1262Y427D01*
X1264Y427D01*
X1264Y429D01*
X1268Y429D01*
X1268Y431D01*
X1272Y431D01*
X1272Y433D01*
X1276Y433D01*
X1276Y435D01*
X1284Y435D01*
X1284Y437D01*
X1218Y437D01*
G37*
D02*
G36*
X854Y757D02*
X854Y755D01*
X852Y755D01*
X852Y751D01*
X850Y751D01*
X850Y749D01*
X848Y749D01*
X848Y747D01*
X844Y747D01*
X844Y745D01*
X842Y745D01*
X842Y743D01*
X840Y743D01*
X840Y741D01*
X836Y741D01*
X836Y739D01*
X832Y739D01*
X832Y737D01*
X828Y737D01*
X828Y735D01*
X904Y735D01*
X904Y737D01*
X898Y737D01*
X898Y739D01*
X894Y739D01*
X894Y741D01*
X890Y741D01*
X890Y743D01*
X888Y743D01*
X888Y745D01*
X886Y745D01*
X886Y747D01*
X884Y747D01*
X884Y749D01*
X882Y749D01*
X882Y751D01*
X880Y751D01*
X880Y753D01*
X878Y753D01*
X878Y755D01*
X876Y755D01*
X876Y757D01*
X854Y757D01*
G37*
D02*
G36*
X954Y757D02*
X954Y755D01*
X952Y755D01*
X952Y751D01*
X950Y751D01*
X950Y749D01*
X948Y749D01*
X948Y747D01*
X944Y747D01*
X944Y745D01*
X942Y745D01*
X942Y743D01*
X940Y743D01*
X940Y741D01*
X936Y741D01*
X936Y739D01*
X932Y739D01*
X932Y737D01*
X928Y737D01*
X928Y735D01*
X988Y735D01*
X988Y745D01*
X986Y745D01*
X986Y747D01*
X984Y747D01*
X984Y749D01*
X982Y749D01*
X982Y751D01*
X980Y751D01*
X980Y753D01*
X978Y753D01*
X978Y755D01*
X976Y755D01*
X976Y757D01*
X954Y757D01*
G37*
D02*
G36*
X758Y755D02*
X758Y753D01*
X756Y753D01*
X756Y751D01*
X754Y751D01*
X754Y749D01*
X752Y749D01*
X752Y747D01*
X750Y747D01*
X750Y745D01*
X748Y745D01*
X748Y743D01*
X746Y743D01*
X746Y741D01*
X742Y741D01*
X742Y739D01*
X740Y739D01*
X740Y737D01*
X736Y737D01*
X736Y735D01*
X804Y735D01*
X804Y737D01*
X798Y737D01*
X798Y739D01*
X794Y739D01*
X794Y741D01*
X790Y741D01*
X790Y743D01*
X788Y743D01*
X788Y745D01*
X786Y745D01*
X786Y747D01*
X784Y747D01*
X784Y749D01*
X782Y749D01*
X782Y751D01*
X780Y751D01*
X780Y753D01*
X778Y753D01*
X778Y755D01*
X758Y755D01*
G37*
D02*
G36*
X668Y741D02*
X668Y731D01*
X704Y731D01*
X704Y733D01*
X698Y733D01*
X698Y735D01*
X694Y735D01*
X694Y737D01*
X690Y737D01*
X690Y739D01*
X688Y739D01*
X688Y741D01*
X668Y741D01*
G37*
D02*
G36*
X732Y735D02*
X732Y733D01*
X988Y733D01*
X988Y735D01*
X732Y735D01*
G37*
D02*
G36*
X732Y735D02*
X732Y733D01*
X988Y733D01*
X988Y735D01*
X732Y735D01*
G37*
D02*
G36*
X732Y735D02*
X732Y733D01*
X988Y733D01*
X988Y735D01*
X732Y735D01*
G37*
D02*
G36*
X726Y733D02*
X726Y731D01*
X988Y731D01*
X988Y733D01*
X726Y733D01*
G37*
D02*
G36*
X668Y731D02*
X668Y729D01*
X988Y729D01*
X988Y731D01*
X668Y731D01*
G37*
D02*
G36*
X668Y731D02*
X668Y729D01*
X988Y729D01*
X988Y731D01*
X668Y731D01*
G37*
D02*
G36*
X668Y729D02*
X668Y611D01*
X1020Y611D01*
X1020Y609D01*
X1028Y609D01*
X1028Y607D01*
X1030Y607D01*
X1030Y605D01*
X1034Y605D01*
X1034Y603D01*
X1036Y603D01*
X1036Y601D01*
X1038Y601D01*
X1038Y599D01*
X1040Y599D01*
X1040Y595D01*
X1042Y595D01*
X1042Y589D01*
X1044Y589D01*
X1044Y535D01*
X1116Y535D01*
X1116Y533D01*
X1128Y533D01*
X1128Y531D01*
X1132Y531D01*
X1132Y529D01*
X1136Y529D01*
X1136Y527D01*
X1140Y527D01*
X1140Y525D01*
X1142Y525D01*
X1142Y523D01*
X1162Y523D01*
X1162Y657D01*
X1006Y657D01*
X1006Y659D01*
X1002Y659D01*
X1002Y661D01*
X998Y661D01*
X998Y663D01*
X996Y663D01*
X996Y665D01*
X994Y665D01*
X994Y667D01*
X992Y667D01*
X992Y671D01*
X990Y671D01*
X990Y675D01*
X988Y675D01*
X988Y729D01*
X668Y729D01*
G37*
D02*
G36*
X1044Y535D02*
X1044Y523D01*
X1046Y523D01*
X1046Y521D01*
X1048Y521D01*
X1048Y519D01*
X1050Y519D01*
X1050Y517D01*
X1052Y517D01*
X1052Y515D01*
X1054Y515D01*
X1054Y511D01*
X1076Y511D01*
X1076Y513D01*
X1078Y513D01*
X1078Y515D01*
X1080Y515D01*
X1080Y517D01*
X1082Y517D01*
X1082Y519D01*
X1084Y519D01*
X1084Y521D01*
X1086Y521D01*
X1086Y523D01*
X1088Y523D01*
X1088Y525D01*
X1090Y525D01*
X1090Y527D01*
X1094Y527D01*
X1094Y529D01*
X1098Y529D01*
X1098Y531D01*
X1104Y531D01*
X1104Y533D01*
X1114Y533D01*
X1114Y535D01*
X1044Y535D01*
G37*
D02*
G36*
X594Y573D02*
X594Y535D01*
X916Y535D01*
X916Y533D01*
X928Y533D01*
X928Y531D01*
X932Y531D01*
X932Y529D01*
X936Y529D01*
X936Y527D01*
X940Y527D01*
X940Y525D01*
X942Y525D01*
X942Y523D01*
X946Y523D01*
X946Y521D01*
X948Y521D01*
X948Y519D01*
X950Y519D01*
X950Y517D01*
X952Y517D01*
X952Y515D01*
X954Y515D01*
X954Y511D01*
X976Y511D01*
X976Y513D01*
X978Y513D01*
X978Y515D01*
X980Y515D01*
X980Y517D01*
X982Y517D01*
X982Y519D01*
X984Y519D01*
X984Y521D01*
X986Y521D01*
X986Y523D01*
X988Y523D01*
X988Y555D01*
X630Y555D01*
X630Y557D01*
X626Y557D01*
X626Y559D01*
X622Y559D01*
X622Y561D01*
X620Y561D01*
X620Y563D01*
X618Y563D01*
X618Y565D01*
X616Y565D01*
X616Y569D01*
X614Y569D01*
X614Y573D01*
X594Y573D01*
G37*
D02*
G36*
X594Y535D02*
X594Y437D01*
X726Y437D01*
X726Y435D01*
X732Y435D01*
X732Y433D01*
X736Y433D01*
X736Y431D01*
X740Y431D01*
X740Y429D01*
X742Y429D01*
X742Y427D01*
X746Y427D01*
X746Y425D01*
X748Y425D01*
X748Y423D01*
X750Y423D01*
X750Y421D01*
X752Y421D01*
X752Y419D01*
X754Y419D01*
X754Y417D01*
X756Y417D01*
X756Y415D01*
X758Y415D01*
X758Y413D01*
X788Y413D01*
X788Y445D01*
X786Y445D01*
X786Y447D01*
X784Y447D01*
X784Y449D01*
X782Y449D01*
X782Y451D01*
X780Y451D01*
X780Y453D01*
X778Y453D01*
X778Y455D01*
X776Y455D01*
X776Y457D01*
X774Y457D01*
X774Y461D01*
X772Y461D01*
X772Y463D01*
X770Y463D01*
X770Y467D01*
X768Y467D01*
X768Y473D01*
X766Y473D01*
X766Y495D01*
X768Y495D01*
X768Y501D01*
X770Y501D01*
X770Y505D01*
X772Y505D01*
X772Y509D01*
X774Y509D01*
X774Y511D01*
X776Y511D01*
X776Y513D01*
X778Y513D01*
X778Y515D01*
X780Y515D01*
X780Y517D01*
X782Y517D01*
X782Y519D01*
X784Y519D01*
X784Y521D01*
X786Y521D01*
X786Y523D01*
X788Y523D01*
X788Y525D01*
X790Y525D01*
X790Y527D01*
X794Y527D01*
X794Y529D01*
X798Y529D01*
X798Y531D01*
X804Y531D01*
X804Y533D01*
X814Y533D01*
X814Y535D01*
X594Y535D01*
G37*
D02*
G36*
X816Y535D02*
X816Y533D01*
X828Y533D01*
X828Y531D01*
X832Y531D01*
X832Y529D01*
X836Y529D01*
X836Y527D01*
X840Y527D01*
X840Y525D01*
X842Y525D01*
X842Y523D01*
X846Y523D01*
X846Y521D01*
X848Y521D01*
X848Y519D01*
X850Y519D01*
X850Y517D01*
X852Y517D01*
X852Y515D01*
X854Y515D01*
X854Y511D01*
X876Y511D01*
X876Y513D01*
X878Y513D01*
X878Y515D01*
X880Y515D01*
X880Y517D01*
X882Y517D01*
X882Y519D01*
X884Y519D01*
X884Y521D01*
X886Y521D01*
X886Y523D01*
X888Y523D01*
X888Y525D01*
X890Y525D01*
X890Y527D01*
X894Y527D01*
X894Y529D01*
X898Y529D01*
X898Y531D01*
X904Y531D01*
X904Y533D01*
X914Y533D01*
X914Y535D01*
X816Y535D01*
G37*
D02*
G36*
X854Y457D02*
X854Y455D01*
X852Y455D01*
X852Y451D01*
X850Y451D01*
X850Y449D01*
X848Y449D01*
X848Y447D01*
X844Y447D01*
X844Y381D01*
X842Y381D01*
X842Y373D01*
X840Y373D01*
X840Y369D01*
X838Y369D01*
X838Y367D01*
X836Y367D01*
X836Y365D01*
X834Y365D01*
X834Y363D01*
X832Y363D01*
X832Y361D01*
X830Y361D01*
X830Y359D01*
X826Y359D01*
X826Y357D01*
X758Y357D01*
X758Y353D01*
X756Y353D01*
X756Y351D01*
X754Y351D01*
X754Y349D01*
X752Y349D01*
X752Y347D01*
X750Y347D01*
X750Y345D01*
X748Y345D01*
X748Y343D01*
X746Y343D01*
X746Y341D01*
X742Y341D01*
X742Y339D01*
X740Y339D01*
X740Y337D01*
X736Y337D01*
X736Y335D01*
X732Y335D01*
X732Y333D01*
X726Y333D01*
X726Y331D01*
X824Y331D01*
X824Y333D01*
X826Y333D01*
X826Y335D01*
X828Y335D01*
X828Y339D01*
X830Y339D01*
X830Y341D01*
X832Y341D01*
X832Y343D01*
X834Y343D01*
X834Y345D01*
X836Y345D01*
X836Y347D01*
X838Y347D01*
X838Y349D01*
X840Y349D01*
X840Y351D01*
X842Y351D01*
X842Y353D01*
X844Y353D01*
X844Y355D01*
X846Y355D01*
X846Y357D01*
X848Y357D01*
X848Y359D01*
X850Y359D01*
X850Y361D01*
X852Y361D01*
X852Y363D01*
X854Y363D01*
X854Y365D01*
X856Y365D01*
X856Y367D01*
X858Y367D01*
X858Y369D01*
X860Y369D01*
X860Y371D01*
X862Y371D01*
X862Y373D01*
X864Y373D01*
X864Y375D01*
X866Y375D01*
X866Y377D01*
X868Y377D01*
X868Y379D01*
X870Y379D01*
X870Y381D01*
X872Y381D01*
X872Y383D01*
X874Y383D01*
X874Y385D01*
X876Y385D01*
X876Y387D01*
X878Y387D01*
X878Y389D01*
X880Y389D01*
X880Y391D01*
X882Y391D01*
X882Y393D01*
X884Y393D01*
X884Y395D01*
X886Y395D01*
X886Y397D01*
X888Y397D01*
X888Y445D01*
X886Y445D01*
X886Y447D01*
X884Y447D01*
X884Y449D01*
X882Y449D01*
X882Y451D01*
X880Y451D01*
X880Y453D01*
X878Y453D01*
X878Y455D01*
X876Y455D01*
X876Y457D01*
X854Y457D01*
G37*
D02*
G36*
X594Y437D02*
X594Y331D01*
X704Y331D01*
X704Y333D01*
X698Y333D01*
X698Y335D01*
X694Y335D01*
X694Y337D01*
X690Y337D01*
X690Y339D01*
X688Y339D01*
X688Y341D01*
X686Y341D01*
X686Y343D01*
X682Y343D01*
X682Y345D01*
X680Y345D01*
X680Y347D01*
X678Y347D01*
X678Y349D01*
X676Y349D01*
X676Y351D01*
X674Y351D01*
X674Y355D01*
X672Y355D01*
X672Y357D01*
X670Y357D01*
X670Y361D01*
X668Y361D01*
X668Y363D01*
X666Y363D01*
X666Y369D01*
X664Y369D01*
X664Y375D01*
X662Y375D01*
X662Y393D01*
X664Y393D01*
X664Y401D01*
X666Y401D01*
X666Y405D01*
X668Y405D01*
X668Y409D01*
X670Y409D01*
X670Y411D01*
X672Y411D01*
X672Y413D01*
X674Y413D01*
X674Y417D01*
X676Y417D01*
X676Y419D01*
X678Y419D01*
X678Y421D01*
X680Y421D01*
X680Y423D01*
X682Y423D01*
X682Y425D01*
X684Y425D01*
X684Y427D01*
X688Y427D01*
X688Y429D01*
X690Y429D01*
X690Y431D01*
X694Y431D01*
X694Y433D01*
X698Y433D01*
X698Y435D01*
X704Y435D01*
X704Y437D01*
X594Y437D01*
G37*
D02*
G36*
X594Y331D02*
X594Y329D01*
X822Y329D01*
X822Y331D01*
X594Y331D01*
G37*
D02*
G36*
X594Y331D02*
X594Y329D01*
X822Y329D01*
X822Y331D01*
X594Y331D01*
G37*
D02*
G36*
X594Y329D02*
X594Y279D01*
X592Y279D01*
X592Y271D01*
X590Y271D01*
X590Y267D01*
X588Y267D01*
X588Y265D01*
X586Y265D01*
X586Y263D01*
X584Y263D01*
X584Y261D01*
X582Y261D01*
X582Y259D01*
X580Y259D01*
X580Y257D01*
X576Y257D01*
X576Y255D01*
X512Y255D01*
X512Y253D01*
X510Y253D01*
X510Y251D01*
X508Y251D01*
X508Y249D01*
X506Y249D01*
X506Y247D01*
X504Y247D01*
X504Y245D01*
X502Y245D01*
X502Y225D01*
X504Y225D01*
X504Y223D01*
X506Y223D01*
X506Y221D01*
X508Y221D01*
X508Y219D01*
X510Y219D01*
X510Y215D01*
X512Y215D01*
X512Y213D01*
X514Y213D01*
X514Y209D01*
X516Y209D01*
X516Y205D01*
X518Y205D01*
X518Y201D01*
X520Y201D01*
X520Y191D01*
X522Y191D01*
X522Y179D01*
X520Y179D01*
X520Y171D01*
X518Y171D01*
X518Y165D01*
X516Y165D01*
X516Y161D01*
X514Y161D01*
X514Y159D01*
X512Y159D01*
X512Y155D01*
X510Y155D01*
X510Y153D01*
X508Y153D01*
X508Y151D01*
X506Y151D01*
X506Y149D01*
X504Y149D01*
X504Y147D01*
X502Y147D01*
X502Y145D01*
X500Y145D01*
X500Y143D01*
X498Y143D01*
X498Y141D01*
X496Y141D01*
X496Y139D01*
X492Y139D01*
X492Y137D01*
X490Y137D01*
X490Y135D01*
X486Y135D01*
X486Y133D01*
X480Y133D01*
X480Y113D01*
X660Y113D01*
X660Y241D01*
X734Y241D01*
X734Y243D01*
X736Y243D01*
X736Y245D01*
X738Y245D01*
X738Y247D01*
X740Y247D01*
X740Y249D01*
X742Y249D01*
X742Y251D01*
X744Y251D01*
X744Y253D01*
X746Y253D01*
X746Y255D01*
X748Y255D01*
X748Y257D01*
X750Y257D01*
X750Y259D01*
X752Y259D01*
X752Y261D01*
X754Y261D01*
X754Y263D01*
X756Y263D01*
X756Y265D01*
X758Y265D01*
X758Y267D01*
X760Y267D01*
X760Y269D01*
X762Y269D01*
X762Y271D01*
X764Y271D01*
X764Y273D01*
X766Y273D01*
X766Y275D01*
X768Y275D01*
X768Y277D01*
X770Y277D01*
X770Y279D01*
X772Y279D01*
X772Y281D01*
X774Y281D01*
X774Y283D01*
X776Y283D01*
X776Y285D01*
X778Y285D01*
X778Y287D01*
X780Y287D01*
X780Y289D01*
X782Y289D01*
X782Y291D01*
X784Y291D01*
X784Y293D01*
X786Y293D01*
X786Y295D01*
X788Y295D01*
X788Y297D01*
X790Y297D01*
X790Y299D01*
X792Y299D01*
X792Y301D01*
X794Y301D01*
X794Y303D01*
X796Y303D01*
X796Y305D01*
X798Y305D01*
X798Y307D01*
X800Y307D01*
X800Y309D01*
X802Y309D01*
X802Y311D01*
X804Y311D01*
X804Y313D01*
X806Y313D01*
X806Y315D01*
X808Y315D01*
X808Y317D01*
X810Y317D01*
X810Y319D01*
X812Y319D01*
X812Y321D01*
X814Y321D01*
X814Y323D01*
X816Y323D01*
X816Y325D01*
X818Y325D01*
X818Y327D01*
X820Y327D01*
X820Y329D01*
X594Y329D01*
G37*
D02*
G36*
X1142Y383D02*
X1142Y373D01*
X1140Y373D01*
X1140Y369D01*
X1138Y369D01*
X1138Y367D01*
X1136Y367D01*
X1136Y365D01*
X1134Y365D01*
X1134Y363D01*
X1132Y363D01*
X1132Y361D01*
X1130Y361D01*
X1130Y359D01*
X1126Y359D01*
X1126Y357D01*
X926Y357D01*
X926Y355D01*
X924Y355D01*
X924Y353D01*
X922Y353D01*
X922Y351D01*
X920Y351D01*
X920Y349D01*
X918Y349D01*
X918Y347D01*
X916Y347D01*
X916Y345D01*
X914Y345D01*
X914Y343D01*
X912Y343D01*
X912Y341D01*
X910Y341D01*
X910Y339D01*
X908Y339D01*
X908Y337D01*
X906Y337D01*
X906Y335D01*
X904Y335D01*
X904Y333D01*
X902Y333D01*
X902Y331D01*
X900Y331D01*
X900Y329D01*
X898Y329D01*
X898Y327D01*
X896Y327D01*
X896Y325D01*
X894Y325D01*
X894Y323D01*
X892Y323D01*
X892Y321D01*
X890Y321D01*
X890Y319D01*
X888Y319D01*
X888Y317D01*
X886Y317D01*
X886Y315D01*
X884Y315D01*
X884Y313D01*
X882Y313D01*
X882Y311D01*
X880Y311D01*
X880Y309D01*
X878Y309D01*
X878Y307D01*
X876Y307D01*
X876Y305D01*
X874Y305D01*
X874Y303D01*
X872Y303D01*
X872Y301D01*
X870Y301D01*
X870Y299D01*
X868Y299D01*
X868Y297D01*
X866Y297D01*
X866Y295D01*
X864Y295D01*
X864Y293D01*
X862Y293D01*
X862Y291D01*
X860Y291D01*
X860Y289D01*
X858Y289D01*
X858Y287D01*
X856Y287D01*
X856Y285D01*
X854Y285D01*
X854Y283D01*
X852Y283D01*
X852Y281D01*
X850Y281D01*
X850Y279D01*
X848Y279D01*
X848Y277D01*
X846Y277D01*
X846Y275D01*
X844Y275D01*
X844Y273D01*
X842Y273D01*
X842Y271D01*
X840Y271D01*
X840Y269D01*
X838Y269D01*
X838Y267D01*
X836Y267D01*
X836Y265D01*
X834Y265D01*
X834Y263D01*
X832Y263D01*
X832Y261D01*
X830Y261D01*
X830Y259D01*
X828Y259D01*
X828Y257D01*
X826Y257D01*
X826Y255D01*
X824Y255D01*
X824Y253D01*
X822Y253D01*
X822Y251D01*
X820Y251D01*
X820Y249D01*
X818Y249D01*
X818Y247D01*
X816Y247D01*
X816Y245D01*
X814Y245D01*
X814Y243D01*
X812Y243D01*
X812Y241D01*
X810Y241D01*
X810Y239D01*
X808Y239D01*
X808Y237D01*
X806Y237D01*
X806Y235D01*
X804Y235D01*
X804Y233D01*
X802Y233D01*
X802Y231D01*
X800Y231D01*
X800Y229D01*
X798Y229D01*
X798Y227D01*
X796Y227D01*
X796Y225D01*
X794Y225D01*
X794Y223D01*
X792Y223D01*
X792Y221D01*
X790Y221D01*
X790Y219D01*
X788Y219D01*
X788Y217D01*
X786Y217D01*
X786Y215D01*
X784Y215D01*
X784Y213D01*
X782Y213D01*
X782Y211D01*
X780Y211D01*
X780Y209D01*
X778Y209D01*
X778Y207D01*
X776Y207D01*
X776Y205D01*
X774Y205D01*
X774Y203D01*
X772Y203D01*
X772Y113D01*
X834Y113D01*
X834Y133D01*
X830Y133D01*
X830Y135D01*
X828Y135D01*
X828Y137D01*
X824Y137D01*
X824Y139D01*
X822Y139D01*
X822Y141D01*
X818Y141D01*
X818Y143D01*
X816Y143D01*
X816Y145D01*
X814Y145D01*
X814Y147D01*
X812Y147D01*
X812Y149D01*
X810Y149D01*
X810Y153D01*
X808Y153D01*
X808Y155D01*
X806Y155D01*
X806Y159D01*
X804Y159D01*
X804Y161D01*
X802Y161D01*
X802Y165D01*
X800Y165D01*
X800Y171D01*
X798Y171D01*
X798Y197D01*
X800Y197D01*
X800Y203D01*
X802Y203D01*
X802Y207D01*
X804Y207D01*
X804Y209D01*
X806Y209D01*
X806Y213D01*
X808Y213D01*
X808Y215D01*
X810Y215D01*
X810Y219D01*
X812Y219D01*
X812Y221D01*
X814Y221D01*
X814Y223D01*
X816Y223D01*
X816Y225D01*
X818Y225D01*
X818Y227D01*
X822Y227D01*
X822Y229D01*
X824Y229D01*
X824Y231D01*
X828Y231D01*
X828Y233D01*
X830Y233D01*
X830Y235D01*
X834Y235D01*
X834Y237D01*
X840Y237D01*
X840Y239D01*
X852Y239D01*
X852Y241D01*
X868Y241D01*
X868Y245D01*
X870Y245D01*
X870Y247D01*
X872Y247D01*
X872Y249D01*
X874Y249D01*
X874Y251D01*
X876Y251D01*
X876Y253D01*
X878Y253D01*
X878Y255D01*
X880Y255D01*
X880Y257D01*
X882Y257D01*
X882Y259D01*
X884Y259D01*
X884Y261D01*
X886Y261D01*
X886Y265D01*
X888Y265D01*
X888Y267D01*
X890Y267D01*
X890Y269D01*
X892Y269D01*
X892Y271D01*
X894Y271D01*
X894Y273D01*
X896Y273D01*
X896Y275D01*
X898Y275D01*
X898Y277D01*
X900Y277D01*
X900Y279D01*
X902Y279D01*
X902Y283D01*
X904Y283D01*
X904Y285D01*
X906Y285D01*
X906Y287D01*
X908Y287D01*
X908Y289D01*
X910Y289D01*
X910Y291D01*
X912Y291D01*
X912Y293D01*
X914Y293D01*
X914Y295D01*
X916Y295D01*
X916Y297D01*
X918Y297D01*
X918Y301D01*
X920Y301D01*
X920Y303D01*
X922Y303D01*
X922Y305D01*
X926Y305D01*
X926Y307D01*
X928Y307D01*
X928Y309D01*
X934Y309D01*
X934Y311D01*
X1162Y311D01*
X1162Y383D01*
X1142Y383D01*
G37*
D02*
G36*
X1216Y279D02*
X1216Y271D01*
X1214Y271D01*
X1214Y267D01*
X1212Y267D01*
X1212Y265D01*
X1210Y265D01*
X1210Y263D01*
X1208Y263D01*
X1208Y261D01*
X1206Y261D01*
X1206Y259D01*
X1204Y259D01*
X1204Y257D01*
X1200Y257D01*
X1200Y255D01*
X952Y255D01*
X952Y251D01*
X950Y251D01*
X950Y249D01*
X948Y249D01*
X948Y247D01*
X946Y247D01*
X946Y245D01*
X944Y245D01*
X944Y243D01*
X942Y243D01*
X942Y241D01*
X940Y241D01*
X940Y239D01*
X938Y239D01*
X938Y237D01*
X936Y237D01*
X936Y233D01*
X934Y233D01*
X934Y231D01*
X932Y231D01*
X932Y229D01*
X930Y229D01*
X930Y227D01*
X928Y227D01*
X928Y225D01*
X926Y225D01*
X926Y223D01*
X924Y223D01*
X924Y221D01*
X922Y221D01*
X922Y219D01*
X920Y219D01*
X920Y215D01*
X918Y215D01*
X918Y213D01*
X916Y213D01*
X916Y211D01*
X914Y211D01*
X914Y209D01*
X912Y209D01*
X912Y207D01*
X910Y207D01*
X910Y205D01*
X908Y205D01*
X908Y185D01*
X910Y185D01*
X910Y183D01*
X908Y183D01*
X908Y171D01*
X906Y171D01*
X906Y165D01*
X904Y165D01*
X904Y161D01*
X902Y161D01*
X902Y159D01*
X900Y159D01*
X900Y155D01*
X898Y155D01*
X898Y153D01*
X896Y153D01*
X896Y149D01*
X894Y149D01*
X894Y147D01*
X892Y147D01*
X892Y145D01*
X890Y145D01*
X890Y143D01*
X888Y143D01*
X888Y141D01*
X884Y141D01*
X884Y139D01*
X882Y139D01*
X882Y137D01*
X878Y137D01*
X878Y135D01*
X876Y135D01*
X876Y133D01*
X872Y133D01*
X872Y113D01*
X1032Y113D01*
X1032Y111D01*
X1238Y111D01*
X1238Y131D01*
X1236Y131D01*
X1236Y235D01*
X1238Y235D01*
X1238Y237D01*
X1246Y237D01*
X1246Y257D01*
X1244Y257D01*
X1244Y261D01*
X1242Y261D01*
X1242Y265D01*
X1240Y265D01*
X1240Y269D01*
X1238Y269D01*
X1238Y279D01*
X1216Y279D01*
G37*
D02*
G36*
X1342Y275D02*
X1342Y269D01*
X1340Y269D01*
X1340Y263D01*
X1338Y263D01*
X1338Y259D01*
X1336Y259D01*
X1336Y257D01*
X1334Y257D01*
X1334Y237D01*
X1344Y237D01*
X1344Y111D01*
X1436Y111D01*
X1436Y113D01*
X1476Y113D01*
X1476Y133D01*
X1470Y133D01*
X1470Y135D01*
X1466Y135D01*
X1466Y137D01*
X1462Y137D01*
X1462Y139D01*
X1460Y139D01*
X1460Y141D01*
X1458Y141D01*
X1458Y143D01*
X1454Y143D01*
X1454Y145D01*
X1452Y145D01*
X1452Y147D01*
X1450Y147D01*
X1450Y149D01*
X1448Y149D01*
X1448Y153D01*
X1446Y153D01*
X1446Y155D01*
X1444Y155D01*
X1444Y157D01*
X1442Y157D01*
X1442Y161D01*
X1440Y161D01*
X1440Y165D01*
X1438Y165D01*
X1438Y169D01*
X1436Y169D01*
X1436Y177D01*
X1434Y177D01*
X1434Y195D01*
X1436Y195D01*
X1436Y201D01*
X1438Y201D01*
X1438Y207D01*
X1440Y207D01*
X1440Y211D01*
X1442Y211D01*
X1442Y213D01*
X1444Y213D01*
X1444Y217D01*
X1446Y217D01*
X1446Y219D01*
X1448Y219D01*
X1448Y221D01*
X1450Y221D01*
X1450Y223D01*
X1452Y223D01*
X1452Y225D01*
X1454Y225D01*
X1454Y245D01*
X1452Y245D01*
X1452Y247D01*
X1450Y247D01*
X1450Y249D01*
X1448Y249D01*
X1448Y251D01*
X1446Y251D01*
X1446Y253D01*
X1444Y253D01*
X1444Y255D01*
X1380Y255D01*
X1380Y257D01*
X1376Y257D01*
X1376Y259D01*
X1372Y259D01*
X1372Y261D01*
X1370Y261D01*
X1370Y263D01*
X1368Y263D01*
X1368Y267D01*
X1366Y267D01*
X1366Y269D01*
X1364Y269D01*
X1364Y275D01*
X1342Y275D01*
G37*
D02*
G36*
X144Y1075D02*
X144Y1055D01*
X146Y1055D01*
X146Y1049D01*
X148Y1049D01*
X148Y1041D01*
X150Y1041D01*
X150Y1037D01*
X1268Y1037D01*
X1268Y1011D01*
X1394Y1011D01*
X1394Y1009D01*
X1402Y1009D01*
X1402Y1007D01*
X1406Y1007D01*
X1406Y1005D01*
X1408Y1005D01*
X1408Y1003D01*
X1410Y1003D01*
X1410Y1001D01*
X1412Y1001D01*
X1412Y999D01*
X1414Y999D01*
X1414Y995D01*
X1416Y995D01*
X1416Y991D01*
X1418Y991D01*
X1418Y973D01*
X1860Y973D01*
X1860Y975D01*
X1850Y975D01*
X1850Y977D01*
X1844Y977D01*
X1844Y979D01*
X1840Y979D01*
X1840Y981D01*
X1836Y981D01*
X1836Y983D01*
X1834Y983D01*
X1834Y985D01*
X1830Y985D01*
X1830Y987D01*
X1828Y987D01*
X1828Y989D01*
X1826Y989D01*
X1826Y991D01*
X1824Y991D01*
X1824Y993D01*
X1822Y993D01*
X1822Y995D01*
X1820Y995D01*
X1820Y997D01*
X1818Y997D01*
X1818Y1001D01*
X1816Y1001D01*
X1816Y1003D01*
X1814Y1003D01*
X1814Y1007D01*
X1812Y1007D01*
X1812Y1011D01*
X1810Y1011D01*
X1810Y1015D01*
X1808Y1015D01*
X1808Y1023D01*
X1806Y1023D01*
X1806Y1043D01*
X1808Y1043D01*
X1808Y1051D01*
X1810Y1051D01*
X1810Y1055D01*
X1812Y1055D01*
X1812Y1075D01*
X144Y1075D01*
G37*
D02*
G36*
X150Y1037D02*
X150Y1025D01*
X148Y1025D01*
X148Y1017D01*
X146Y1017D01*
X146Y1011D01*
X144Y1011D01*
X144Y1007D01*
X142Y1007D01*
X142Y1005D01*
X140Y1005D01*
X140Y1001D01*
X138Y1001D01*
X138Y999D01*
X136Y999D01*
X136Y995D01*
X134Y995D01*
X134Y993D01*
X132Y993D01*
X132Y991D01*
X130Y991D01*
X130Y989D01*
X128Y989D01*
X128Y987D01*
X124Y987D01*
X124Y985D01*
X122Y985D01*
X122Y983D01*
X118Y983D01*
X118Y981D01*
X114Y981D01*
X114Y979D01*
X110Y979D01*
X110Y977D01*
X106Y977D01*
X106Y975D01*
X96Y975D01*
X96Y973D01*
X664Y973D01*
X664Y975D01*
X662Y975D01*
X662Y993D01*
X664Y993D01*
X664Y1001D01*
X666Y1001D01*
X666Y1005D01*
X668Y1005D01*
X668Y1009D01*
X670Y1009D01*
X670Y1011D01*
X672Y1011D01*
X672Y1013D01*
X674Y1013D01*
X674Y1017D01*
X676Y1017D01*
X676Y1019D01*
X678Y1019D01*
X678Y1021D01*
X680Y1021D01*
X680Y1023D01*
X682Y1023D01*
X682Y1025D01*
X684Y1025D01*
X684Y1027D01*
X688Y1027D01*
X688Y1029D01*
X690Y1029D01*
X690Y1031D01*
X694Y1031D01*
X694Y1033D01*
X698Y1033D01*
X698Y1035D01*
X704Y1035D01*
X704Y1037D01*
X150Y1037D01*
G37*
D02*
G36*
X726Y1037D02*
X726Y1035D01*
X732Y1035D01*
X732Y1033D01*
X736Y1033D01*
X736Y1031D01*
X740Y1031D01*
X740Y1029D01*
X742Y1029D01*
X742Y1027D01*
X762Y1027D01*
X762Y1037D01*
X726Y1037D01*
G37*
D02*
G36*
X868Y1037D02*
X868Y931D01*
X844Y931D01*
X844Y835D01*
X1016Y835D01*
X1016Y833D01*
X1028Y833D01*
X1028Y831D01*
X1032Y831D01*
X1032Y829D01*
X1036Y829D01*
X1036Y827D01*
X1040Y827D01*
X1040Y825D01*
X1042Y825D01*
X1042Y823D01*
X1046Y823D01*
X1046Y821D01*
X1048Y821D01*
X1048Y819D01*
X1050Y819D01*
X1050Y817D01*
X1052Y817D01*
X1052Y815D01*
X1054Y815D01*
X1054Y811D01*
X1076Y811D01*
X1076Y813D01*
X1078Y813D01*
X1078Y815D01*
X1080Y815D01*
X1080Y817D01*
X1082Y817D01*
X1082Y819D01*
X1084Y819D01*
X1084Y821D01*
X1086Y821D01*
X1086Y823D01*
X1088Y823D01*
X1088Y941D01*
X1086Y941D01*
X1086Y943D01*
X1082Y943D01*
X1082Y945D01*
X1080Y945D01*
X1080Y947D01*
X1078Y947D01*
X1078Y949D01*
X1076Y949D01*
X1076Y951D01*
X1074Y951D01*
X1074Y955D01*
X1072Y955D01*
X1072Y957D01*
X1070Y957D01*
X1070Y961D01*
X1068Y961D01*
X1068Y963D01*
X1066Y963D01*
X1066Y969D01*
X1064Y969D01*
X1064Y975D01*
X1062Y975D01*
X1062Y993D01*
X1064Y993D01*
X1064Y1001D01*
X1066Y1001D01*
X1066Y1005D01*
X1068Y1005D01*
X1068Y1009D01*
X1070Y1009D01*
X1070Y1011D01*
X1072Y1011D01*
X1072Y1013D01*
X1074Y1013D01*
X1074Y1017D01*
X1076Y1017D01*
X1076Y1019D01*
X1078Y1019D01*
X1078Y1021D01*
X1080Y1021D01*
X1080Y1023D01*
X1082Y1023D01*
X1082Y1025D01*
X1084Y1025D01*
X1084Y1027D01*
X1088Y1027D01*
X1088Y1029D01*
X1090Y1029D01*
X1090Y1031D01*
X1094Y1031D01*
X1094Y1033D01*
X1098Y1033D01*
X1098Y1035D01*
X1104Y1035D01*
X1104Y1037D01*
X868Y1037D01*
G37*
D02*
G36*
X1126Y1037D02*
X1126Y1035D01*
X1132Y1035D01*
X1132Y1033D01*
X1136Y1033D01*
X1136Y1031D01*
X1140Y1031D01*
X1140Y1029D01*
X1142Y1029D01*
X1142Y1027D01*
X1162Y1027D01*
X1162Y1037D01*
X1126Y1037D01*
G37*
D02*
G36*
X48Y979D02*
X48Y973D01*
X86Y973D01*
X86Y975D01*
X76Y975D01*
X76Y977D01*
X70Y977D01*
X70Y979D01*
X48Y979D01*
G37*
D02*
G36*
X1880Y977D02*
X1880Y975D01*
X1870Y975D01*
X1870Y973D01*
X1904Y973D01*
X1904Y977D01*
X1880Y977D01*
G37*
D02*
G36*
X48Y973D02*
X48Y971D01*
X664Y971D01*
X664Y973D01*
X48Y973D01*
G37*
D02*
G36*
X48Y973D02*
X48Y971D01*
X664Y971D01*
X664Y973D01*
X48Y973D01*
G37*
D02*
G36*
X1418Y973D02*
X1418Y971D01*
X1904Y971D01*
X1904Y973D01*
X1418Y973D01*
G37*
D02*
G36*
X1418Y973D02*
X1418Y971D01*
X1904Y971D01*
X1904Y973D01*
X1418Y973D01*
G37*
D02*
G36*
X48Y971D02*
X48Y961D01*
X648Y961D01*
X648Y959D01*
X670Y959D01*
X670Y961D01*
X668Y961D01*
X668Y963D01*
X666Y963D01*
X666Y969D01*
X664Y969D01*
X664Y971D01*
X48Y971D01*
G37*
D02*
G36*
X1418Y971D02*
X1418Y635D01*
X1502Y635D01*
X1502Y633D01*
X1508Y633D01*
X1508Y631D01*
X1512Y631D01*
X1512Y629D01*
X1516Y629D01*
X1516Y627D01*
X1520Y627D01*
X1520Y625D01*
X1522Y625D01*
X1522Y623D01*
X1524Y623D01*
X1524Y621D01*
X1526Y621D01*
X1526Y619D01*
X1528Y619D01*
X1528Y617D01*
X1794Y617D01*
X1794Y615D01*
X1800Y615D01*
X1800Y613D01*
X1802Y613D01*
X1802Y611D01*
X1806Y611D01*
X1806Y609D01*
X1808Y609D01*
X1808Y607D01*
X1810Y607D01*
X1810Y605D01*
X1812Y605D01*
X1812Y603D01*
X1814Y603D01*
X1814Y601D01*
X1816Y601D01*
X1816Y599D01*
X1818Y599D01*
X1818Y595D01*
X1820Y595D01*
X1820Y591D01*
X1822Y591D01*
X1822Y585D01*
X1824Y585D01*
X1824Y575D01*
X1822Y575D01*
X1822Y567D01*
X1820Y567D01*
X1820Y563D01*
X1818Y563D01*
X1818Y559D01*
X1816Y559D01*
X1816Y557D01*
X1814Y557D01*
X1814Y555D01*
X1812Y555D01*
X1812Y553D01*
X1810Y553D01*
X1810Y551D01*
X1808Y551D01*
X1808Y549D01*
X1806Y549D01*
X1806Y547D01*
X1802Y547D01*
X1802Y545D01*
X1798Y545D01*
X1798Y543D01*
X1792Y543D01*
X1792Y541D01*
X1904Y541D01*
X1904Y971D01*
X1418Y971D01*
G37*
D02*
G36*
X48Y961D02*
X48Y913D01*
X220Y913D01*
X220Y885D01*
X224Y885D01*
X224Y883D01*
X230Y883D01*
X230Y881D01*
X232Y881D01*
X232Y879D01*
X236Y879D01*
X236Y877D01*
X238Y877D01*
X238Y873D01*
X240Y873D01*
X240Y871D01*
X242Y871D01*
X242Y865D01*
X244Y865D01*
X244Y803D01*
X356Y803D01*
X356Y805D01*
X350Y805D01*
X350Y807D01*
X346Y807D01*
X346Y809D01*
X342Y809D01*
X342Y811D01*
X338Y811D01*
X338Y813D01*
X336Y813D01*
X336Y815D01*
X332Y815D01*
X332Y817D01*
X330Y817D01*
X330Y819D01*
X328Y819D01*
X328Y821D01*
X326Y821D01*
X326Y823D01*
X324Y823D01*
X324Y825D01*
X322Y825D01*
X322Y829D01*
X320Y829D01*
X320Y831D01*
X318Y831D01*
X318Y835D01*
X316Y835D01*
X316Y839D01*
X314Y839D01*
X314Y843D01*
X312Y843D01*
X312Y851D01*
X310Y851D01*
X310Y865D01*
X312Y865D01*
X312Y873D01*
X314Y873D01*
X314Y877D01*
X316Y877D01*
X316Y881D01*
X318Y881D01*
X318Y885D01*
X320Y885D01*
X320Y887D01*
X322Y887D01*
X322Y891D01*
X324Y891D01*
X324Y893D01*
X326Y893D01*
X326Y895D01*
X328Y895D01*
X328Y897D01*
X330Y897D01*
X330Y899D01*
X332Y899D01*
X332Y901D01*
X336Y901D01*
X336Y939D01*
X338Y939D01*
X338Y945D01*
X340Y945D01*
X340Y949D01*
X342Y949D01*
X342Y951D01*
X344Y951D01*
X344Y953D01*
X346Y953D01*
X346Y955D01*
X348Y955D01*
X348Y957D01*
X350Y957D01*
X350Y959D01*
X354Y959D01*
X354Y961D01*
X48Y961D01*
G37*
D02*
G36*
X48Y913D02*
X48Y143D01*
X96Y143D01*
X96Y141D01*
X106Y141D01*
X106Y139D01*
X110Y139D01*
X110Y137D01*
X116Y137D01*
X116Y135D01*
X118Y135D01*
X118Y133D01*
X122Y133D01*
X122Y131D01*
X124Y131D01*
X124Y129D01*
X128Y129D01*
X128Y127D01*
X130Y127D01*
X130Y125D01*
X132Y125D01*
X132Y123D01*
X134Y123D01*
X134Y121D01*
X136Y121D01*
X136Y117D01*
X138Y117D01*
X138Y115D01*
X140Y115D01*
X140Y111D01*
X142Y111D01*
X142Y109D01*
X144Y109D01*
X144Y105D01*
X146Y105D01*
X146Y99D01*
X148Y99D01*
X148Y91D01*
X150Y91D01*
X150Y75D01*
X148Y75D01*
X148Y67D01*
X146Y67D01*
X146Y61D01*
X144Y61D01*
X144Y41D01*
X200Y41D01*
X200Y61D01*
X198Y61D01*
X198Y63D01*
X196Y63D01*
X196Y65D01*
X194Y65D01*
X194Y67D01*
X192Y67D01*
X192Y71D01*
X190Y71D01*
X190Y77D01*
X188Y77D01*
X188Y147D01*
X166Y147D01*
X166Y149D01*
X158Y149D01*
X158Y151D01*
X154Y151D01*
X154Y153D01*
X150Y153D01*
X150Y155D01*
X148Y155D01*
X148Y157D01*
X146Y157D01*
X146Y159D01*
X144Y159D01*
X144Y161D01*
X142Y161D01*
X142Y163D01*
X140Y163D01*
X140Y165D01*
X138Y165D01*
X138Y169D01*
X136Y169D01*
X136Y173D01*
X134Y173D01*
X134Y179D01*
X132Y179D01*
X132Y193D01*
X134Y193D01*
X134Y199D01*
X136Y199D01*
X136Y203D01*
X138Y203D01*
X138Y205D01*
X140Y205D01*
X140Y209D01*
X142Y209D01*
X142Y211D01*
X144Y211D01*
X144Y213D01*
X146Y213D01*
X146Y215D01*
X148Y215D01*
X148Y217D01*
X152Y217D01*
X152Y219D01*
X156Y219D01*
X156Y221D01*
X160Y221D01*
X160Y223D01*
X188Y223D01*
X188Y541D01*
X164Y541D01*
X164Y543D01*
X158Y543D01*
X158Y545D01*
X154Y545D01*
X154Y547D01*
X150Y547D01*
X150Y549D01*
X148Y549D01*
X148Y551D01*
X146Y551D01*
X146Y553D01*
X144Y553D01*
X144Y555D01*
X142Y555D01*
X142Y557D01*
X140Y557D01*
X140Y559D01*
X138Y559D01*
X138Y563D01*
X136Y563D01*
X136Y567D01*
X134Y567D01*
X134Y571D01*
X132Y571D01*
X132Y587D01*
X134Y587D01*
X134Y593D01*
X136Y593D01*
X136Y597D01*
X138Y597D01*
X138Y599D01*
X140Y599D01*
X140Y601D01*
X142Y601D01*
X142Y605D01*
X144Y605D01*
X144Y607D01*
X146Y607D01*
X146Y609D01*
X150Y609D01*
X150Y611D01*
X152Y611D01*
X152Y613D01*
X156Y613D01*
X156Y615D01*
X162Y615D01*
X162Y617D01*
X188Y617D01*
X188Y803D01*
X110Y803D01*
X110Y913D01*
X48Y913D01*
G37*
D02*
G36*
X410Y905D02*
X410Y885D01*
X412Y885D01*
X412Y883D01*
X414Y883D01*
X414Y879D01*
X416Y879D01*
X416Y875D01*
X418Y875D01*
X418Y867D01*
X420Y867D01*
X420Y849D01*
X418Y849D01*
X418Y841D01*
X416Y841D01*
X416Y837D01*
X414Y837D01*
X414Y833D01*
X412Y833D01*
X412Y831D01*
X410Y831D01*
X410Y827D01*
X408Y827D01*
X408Y825D01*
X406Y825D01*
X406Y823D01*
X404Y823D01*
X404Y821D01*
X402Y821D01*
X402Y819D01*
X400Y819D01*
X400Y817D01*
X398Y817D01*
X398Y815D01*
X396Y815D01*
X396Y813D01*
X392Y813D01*
X392Y811D01*
X390Y811D01*
X390Y809D01*
X386Y809D01*
X386Y807D01*
X380Y807D01*
X380Y805D01*
X374Y805D01*
X374Y803D01*
X538Y803D01*
X538Y813D01*
X536Y813D01*
X536Y815D01*
X532Y815D01*
X532Y817D01*
X530Y817D01*
X530Y819D01*
X528Y819D01*
X528Y821D01*
X526Y821D01*
X526Y823D01*
X524Y823D01*
X524Y825D01*
X522Y825D01*
X522Y829D01*
X520Y829D01*
X520Y831D01*
X518Y831D01*
X518Y835D01*
X516Y835D01*
X516Y839D01*
X514Y839D01*
X514Y843D01*
X512Y843D01*
X512Y851D01*
X510Y851D01*
X510Y865D01*
X512Y865D01*
X512Y873D01*
X514Y873D01*
X514Y877D01*
X516Y877D01*
X516Y881D01*
X518Y881D01*
X518Y885D01*
X520Y885D01*
X520Y905D01*
X410Y905D01*
G37*
D02*
G36*
X844Y835D02*
X844Y823D01*
X846Y823D01*
X846Y821D01*
X848Y821D01*
X848Y819D01*
X850Y819D01*
X850Y817D01*
X852Y817D01*
X852Y815D01*
X854Y815D01*
X854Y811D01*
X876Y811D01*
X876Y813D01*
X878Y813D01*
X878Y815D01*
X880Y815D01*
X880Y817D01*
X882Y817D01*
X882Y819D01*
X884Y819D01*
X884Y821D01*
X886Y821D01*
X886Y823D01*
X888Y823D01*
X888Y825D01*
X890Y825D01*
X890Y827D01*
X894Y827D01*
X894Y829D01*
X898Y829D01*
X898Y831D01*
X904Y831D01*
X904Y833D01*
X914Y833D01*
X914Y835D01*
X844Y835D01*
G37*
D02*
G36*
X916Y835D02*
X916Y833D01*
X928Y833D01*
X928Y831D01*
X932Y831D01*
X932Y829D01*
X936Y829D01*
X936Y827D01*
X940Y827D01*
X940Y825D01*
X942Y825D01*
X942Y823D01*
X946Y823D01*
X946Y821D01*
X948Y821D01*
X948Y819D01*
X950Y819D01*
X950Y817D01*
X952Y817D01*
X952Y815D01*
X954Y815D01*
X954Y811D01*
X976Y811D01*
X976Y813D01*
X978Y813D01*
X978Y815D01*
X980Y815D01*
X980Y817D01*
X982Y817D01*
X982Y819D01*
X984Y819D01*
X984Y821D01*
X986Y821D01*
X986Y823D01*
X988Y823D01*
X988Y825D01*
X990Y825D01*
X990Y827D01*
X994Y827D01*
X994Y829D01*
X998Y829D01*
X998Y831D01*
X1004Y831D01*
X1004Y833D01*
X1014Y833D01*
X1014Y835D01*
X916Y835D01*
G37*
D02*
G36*
X244Y803D02*
X244Y801D01*
X538Y801D01*
X538Y803D01*
X244Y803D01*
G37*
D02*
G36*
X244Y803D02*
X244Y801D01*
X538Y801D01*
X538Y803D01*
X244Y803D01*
G37*
D02*
G36*
X244Y801D02*
X244Y635D01*
X476Y635D01*
X476Y633D01*
X482Y633D01*
X482Y631D01*
X488Y631D01*
X488Y629D01*
X490Y629D01*
X490Y627D01*
X494Y627D01*
X494Y625D01*
X496Y625D01*
X496Y623D01*
X500Y623D01*
X500Y621D01*
X502Y621D01*
X502Y619D01*
X504Y619D01*
X504Y617D01*
X506Y617D01*
X506Y615D01*
X508Y615D01*
X508Y613D01*
X510Y613D01*
X510Y609D01*
X512Y609D01*
X512Y607D01*
X514Y607D01*
X514Y603D01*
X516Y603D01*
X516Y599D01*
X518Y599D01*
X518Y593D01*
X538Y593D01*
X538Y801D01*
X244Y801D01*
G37*
D02*
G36*
X244Y635D02*
X244Y617D01*
X276Y617D01*
X276Y615D01*
X282Y615D01*
X282Y613D01*
X286Y613D01*
X286Y611D01*
X288Y611D01*
X288Y609D01*
X292Y609D01*
X292Y607D01*
X294Y607D01*
X294Y605D01*
X296Y605D01*
X296Y603D01*
X298Y603D01*
X298Y601D01*
X300Y601D01*
X300Y597D01*
X302Y597D01*
X302Y593D01*
X304Y593D01*
X304Y589D01*
X306Y589D01*
X306Y571D01*
X304Y571D01*
X304Y565D01*
X302Y565D01*
X302Y561D01*
X300Y561D01*
X300Y559D01*
X298Y559D01*
X298Y555D01*
X296Y555D01*
X296Y553D01*
X294Y553D01*
X294Y551D01*
X290Y551D01*
X290Y549D01*
X288Y549D01*
X288Y547D01*
X286Y547D01*
X286Y545D01*
X282Y545D01*
X282Y543D01*
X274Y543D01*
X274Y541D01*
X244Y541D01*
X244Y439D01*
X276Y439D01*
X276Y437D01*
X284Y437D01*
X284Y435D01*
X288Y435D01*
X288Y433D01*
X292Y433D01*
X292Y431D01*
X296Y431D01*
X296Y429D01*
X298Y429D01*
X298Y427D01*
X302Y427D01*
X302Y425D01*
X304Y425D01*
X304Y423D01*
X306Y423D01*
X306Y421D01*
X308Y421D01*
X308Y419D01*
X310Y419D01*
X310Y417D01*
X312Y417D01*
X312Y415D01*
X314Y415D01*
X314Y411D01*
X316Y411D01*
X316Y409D01*
X318Y409D01*
X318Y405D01*
X320Y405D01*
X320Y401D01*
X322Y401D01*
X322Y395D01*
X324Y395D01*
X324Y371D01*
X322Y371D01*
X322Y365D01*
X320Y365D01*
X320Y361D01*
X318Y361D01*
X318Y357D01*
X316Y357D01*
X316Y353D01*
X314Y353D01*
X314Y351D01*
X312Y351D01*
X312Y349D01*
X310Y349D01*
X310Y345D01*
X308Y345D01*
X308Y343D01*
X306Y343D01*
X306Y341D01*
X302Y341D01*
X302Y339D01*
X300Y339D01*
X300Y337D01*
X298Y337D01*
X298Y335D01*
X294Y335D01*
X294Y333D01*
X290Y333D01*
X290Y331D01*
X286Y331D01*
X286Y329D01*
X280Y329D01*
X280Y327D01*
X244Y327D01*
X244Y223D01*
X278Y223D01*
X278Y221D01*
X284Y221D01*
X284Y219D01*
X286Y219D01*
X286Y217D01*
X290Y217D01*
X290Y215D01*
X292Y215D01*
X292Y213D01*
X294Y213D01*
X294Y211D01*
X296Y211D01*
X296Y209D01*
X298Y209D01*
X298Y207D01*
X300Y207D01*
X300Y203D01*
X302Y203D01*
X302Y199D01*
X304Y199D01*
X304Y195D01*
X306Y195D01*
X306Y177D01*
X304Y177D01*
X304Y171D01*
X302Y171D01*
X302Y167D01*
X300Y167D01*
X300Y165D01*
X298Y165D01*
X298Y163D01*
X296Y163D01*
X296Y161D01*
X294Y161D01*
X294Y159D01*
X292Y159D01*
X292Y157D01*
X290Y157D01*
X290Y155D01*
X288Y155D01*
X288Y153D01*
X284Y153D01*
X284Y151D01*
X280Y151D01*
X280Y149D01*
X272Y149D01*
X272Y147D01*
X426Y147D01*
X426Y149D01*
X424Y149D01*
X424Y151D01*
X422Y151D01*
X422Y153D01*
X420Y153D01*
X420Y157D01*
X418Y157D01*
X418Y159D01*
X416Y159D01*
X416Y163D01*
X414Y163D01*
X414Y167D01*
X412Y167D01*
X412Y173D01*
X410Y173D01*
X410Y199D01*
X412Y199D01*
X412Y205D01*
X414Y205D01*
X414Y209D01*
X416Y209D01*
X416Y213D01*
X418Y213D01*
X418Y215D01*
X420Y215D01*
X420Y217D01*
X422Y217D01*
X422Y221D01*
X424Y221D01*
X424Y223D01*
X426Y223D01*
X426Y225D01*
X428Y225D01*
X428Y245D01*
X426Y245D01*
X426Y247D01*
X424Y247D01*
X424Y249D01*
X422Y249D01*
X422Y251D01*
X420Y251D01*
X420Y255D01*
X418Y255D01*
X418Y257D01*
X416Y257D01*
X416Y261D01*
X414Y261D01*
X414Y265D01*
X412Y265D01*
X412Y271D01*
X410Y271D01*
X410Y297D01*
X412Y297D01*
X412Y303D01*
X414Y303D01*
X414Y307D01*
X416Y307D01*
X416Y311D01*
X418Y311D01*
X418Y313D01*
X420Y313D01*
X420Y317D01*
X422Y317D01*
X422Y319D01*
X424Y319D01*
X424Y321D01*
X426Y321D01*
X426Y323D01*
X428Y323D01*
X428Y325D01*
X430Y325D01*
X430Y327D01*
X432Y327D01*
X432Y329D01*
X436Y329D01*
X436Y331D01*
X438Y331D01*
X438Y333D01*
X442Y333D01*
X442Y355D01*
X440Y355D01*
X440Y357D01*
X438Y357D01*
X438Y359D01*
X436Y359D01*
X436Y361D01*
X434Y361D01*
X434Y365D01*
X432Y365D01*
X432Y367D01*
X430Y367D01*
X430Y373D01*
X428Y373D01*
X428Y393D01*
X430Y393D01*
X430Y397D01*
X432Y397D01*
X432Y401D01*
X434Y401D01*
X434Y403D01*
X436Y403D01*
X436Y407D01*
X438Y407D01*
X438Y409D01*
X440Y409D01*
X440Y411D01*
X444Y411D01*
X444Y431D01*
X440Y431D01*
X440Y433D01*
X436Y433D01*
X436Y435D01*
X434Y435D01*
X434Y437D01*
X432Y437D01*
X432Y439D01*
X428Y439D01*
X428Y441D01*
X426Y441D01*
X426Y443D01*
X424Y443D01*
X424Y447D01*
X422Y447D01*
X422Y449D01*
X420Y449D01*
X420Y451D01*
X418Y451D01*
X418Y455D01*
X416Y455D01*
X416Y457D01*
X414Y457D01*
X414Y463D01*
X412Y463D01*
X412Y467D01*
X410Y467D01*
X410Y493D01*
X412Y493D01*
X412Y499D01*
X414Y499D01*
X414Y503D01*
X416Y503D01*
X416Y507D01*
X418Y507D01*
X418Y511D01*
X420Y511D01*
X420Y513D01*
X422Y513D01*
X422Y515D01*
X424Y515D01*
X424Y517D01*
X426Y517D01*
X426Y519D01*
X428Y519D01*
X428Y541D01*
X426Y541D01*
X426Y543D01*
X424Y543D01*
X424Y545D01*
X422Y545D01*
X422Y547D01*
X420Y547D01*
X420Y549D01*
X418Y549D01*
X418Y553D01*
X416Y553D01*
X416Y557D01*
X414Y557D01*
X414Y561D01*
X412Y561D01*
X412Y567D01*
X410Y567D01*
X410Y593D01*
X412Y593D01*
X412Y597D01*
X414Y597D01*
X414Y603D01*
X416Y603D01*
X416Y605D01*
X418Y605D01*
X418Y609D01*
X420Y609D01*
X420Y611D01*
X422Y611D01*
X422Y613D01*
X424Y613D01*
X424Y617D01*
X426Y617D01*
X426Y619D01*
X428Y619D01*
X428Y621D01*
X432Y621D01*
X432Y623D01*
X434Y623D01*
X434Y625D01*
X436Y625D01*
X436Y627D01*
X440Y627D01*
X440Y629D01*
X444Y629D01*
X444Y631D01*
X448Y631D01*
X448Y633D01*
X454Y633D01*
X454Y635D01*
X244Y635D01*
G37*
D02*
G36*
X1418Y635D02*
X1418Y595D01*
X1438Y595D01*
X1438Y601D01*
X1440Y601D01*
X1440Y603D01*
X1442Y603D01*
X1442Y607D01*
X1444Y607D01*
X1444Y611D01*
X1446Y611D01*
X1446Y613D01*
X1448Y613D01*
X1448Y615D01*
X1450Y615D01*
X1450Y617D01*
X1452Y617D01*
X1452Y619D01*
X1454Y619D01*
X1454Y621D01*
X1456Y621D01*
X1456Y623D01*
X1458Y623D01*
X1458Y625D01*
X1462Y625D01*
X1462Y627D01*
X1464Y627D01*
X1464Y629D01*
X1468Y629D01*
X1468Y631D01*
X1472Y631D01*
X1472Y633D01*
X1480Y633D01*
X1480Y635D01*
X1418Y635D01*
G37*
D02*
G36*
X1530Y617D02*
X1530Y615D01*
X1532Y615D01*
X1532Y613D01*
X1534Y613D01*
X1534Y611D01*
X1536Y611D01*
X1536Y609D01*
X1538Y609D01*
X1538Y605D01*
X1540Y605D01*
X1540Y601D01*
X1542Y601D01*
X1542Y597D01*
X1544Y597D01*
X1544Y591D01*
X1546Y591D01*
X1546Y569D01*
X1544Y569D01*
X1544Y561D01*
X1542Y561D01*
X1542Y557D01*
X1540Y557D01*
X1540Y553D01*
X1538Y553D01*
X1538Y551D01*
X1536Y551D01*
X1536Y547D01*
X1534Y547D01*
X1534Y545D01*
X1532Y545D01*
X1532Y543D01*
X1530Y543D01*
X1530Y541D01*
X1680Y541D01*
X1680Y543D01*
X1674Y543D01*
X1674Y545D01*
X1670Y545D01*
X1670Y547D01*
X1668Y547D01*
X1668Y549D01*
X1664Y549D01*
X1664Y551D01*
X1662Y551D01*
X1662Y553D01*
X1660Y553D01*
X1660Y555D01*
X1658Y555D01*
X1658Y557D01*
X1656Y557D01*
X1656Y561D01*
X1654Y561D01*
X1654Y565D01*
X1652Y565D01*
X1652Y569D01*
X1650Y569D01*
X1650Y589D01*
X1652Y589D01*
X1652Y595D01*
X1654Y595D01*
X1654Y597D01*
X1656Y597D01*
X1656Y601D01*
X1658Y601D01*
X1658Y603D01*
X1660Y603D01*
X1660Y605D01*
X1662Y605D01*
X1662Y607D01*
X1664Y607D01*
X1664Y609D01*
X1666Y609D01*
X1666Y611D01*
X1670Y611D01*
X1670Y613D01*
X1674Y613D01*
X1674Y615D01*
X1678Y615D01*
X1678Y617D01*
X1530Y617D01*
G37*
D02*
G36*
X1696Y617D02*
X1696Y615D01*
X1700Y615D01*
X1700Y613D01*
X1704Y613D01*
X1704Y611D01*
X1708Y611D01*
X1708Y609D01*
X1710Y609D01*
X1710Y607D01*
X1712Y607D01*
X1712Y605D01*
X1714Y605D01*
X1714Y603D01*
X1716Y603D01*
X1716Y601D01*
X1718Y601D01*
X1718Y599D01*
X1720Y599D01*
X1720Y595D01*
X1722Y595D01*
X1722Y591D01*
X1724Y591D01*
X1724Y581D01*
X1726Y581D01*
X1726Y577D01*
X1724Y577D01*
X1724Y569D01*
X1722Y569D01*
X1722Y563D01*
X1720Y563D01*
X1720Y561D01*
X1718Y561D01*
X1718Y557D01*
X1716Y557D01*
X1716Y555D01*
X1714Y555D01*
X1714Y553D01*
X1712Y553D01*
X1712Y551D01*
X1710Y551D01*
X1710Y549D01*
X1706Y549D01*
X1706Y547D01*
X1704Y547D01*
X1704Y545D01*
X1700Y545D01*
X1700Y543D01*
X1694Y543D01*
X1694Y541D01*
X1778Y541D01*
X1778Y543D01*
X1772Y543D01*
X1772Y545D01*
X1768Y545D01*
X1768Y547D01*
X1766Y547D01*
X1766Y549D01*
X1762Y549D01*
X1762Y551D01*
X1760Y551D01*
X1760Y553D01*
X1758Y553D01*
X1758Y555D01*
X1756Y555D01*
X1756Y559D01*
X1754Y559D01*
X1754Y561D01*
X1752Y561D01*
X1752Y565D01*
X1750Y565D01*
X1750Y569D01*
X1748Y569D01*
X1748Y589D01*
X1750Y589D01*
X1750Y593D01*
X1752Y593D01*
X1752Y597D01*
X1754Y597D01*
X1754Y601D01*
X1756Y601D01*
X1756Y603D01*
X1758Y603D01*
X1758Y605D01*
X1760Y605D01*
X1760Y607D01*
X1762Y607D01*
X1762Y609D01*
X1764Y609D01*
X1764Y611D01*
X1768Y611D01*
X1768Y613D01*
X1772Y613D01*
X1772Y615D01*
X1776Y615D01*
X1776Y617D01*
X1696Y617D01*
G37*
D02*
G36*
X1528Y541D02*
X1528Y539D01*
X1904Y539D01*
X1904Y541D01*
X1528Y541D01*
G37*
D02*
G36*
X1528Y541D02*
X1528Y539D01*
X1904Y539D01*
X1904Y541D01*
X1528Y541D01*
G37*
D02*
G36*
X1528Y541D02*
X1528Y539D01*
X1904Y539D01*
X1904Y541D01*
X1528Y541D01*
G37*
D02*
G36*
X1528Y539D02*
X1528Y519D01*
X1530Y519D01*
X1530Y517D01*
X1532Y517D01*
X1532Y515D01*
X1534Y515D01*
X1534Y513D01*
X1536Y513D01*
X1536Y509D01*
X1538Y509D01*
X1538Y507D01*
X1540Y507D01*
X1540Y503D01*
X1542Y503D01*
X1542Y499D01*
X1544Y499D01*
X1544Y491D01*
X1546Y491D01*
X1546Y469D01*
X1544Y469D01*
X1544Y463D01*
X1542Y463D01*
X1542Y459D01*
X1540Y459D01*
X1540Y455D01*
X1538Y455D01*
X1538Y453D01*
X1536Y453D01*
X1536Y449D01*
X1534Y449D01*
X1534Y447D01*
X1532Y447D01*
X1532Y445D01*
X1530Y445D01*
X1530Y443D01*
X1528Y443D01*
X1528Y441D01*
X1526Y441D01*
X1526Y439D01*
X1694Y439D01*
X1694Y437D01*
X1702Y437D01*
X1702Y435D01*
X1708Y435D01*
X1708Y433D01*
X1712Y433D01*
X1712Y431D01*
X1714Y431D01*
X1714Y429D01*
X1718Y429D01*
X1718Y427D01*
X1720Y427D01*
X1720Y425D01*
X1722Y425D01*
X1722Y423D01*
X1724Y423D01*
X1724Y421D01*
X1726Y421D01*
X1726Y419D01*
X1728Y419D01*
X1728Y417D01*
X1730Y417D01*
X1730Y415D01*
X1732Y415D01*
X1732Y413D01*
X1734Y413D01*
X1734Y409D01*
X1736Y409D01*
X1736Y405D01*
X1738Y405D01*
X1738Y401D01*
X1740Y401D01*
X1740Y397D01*
X1742Y397D01*
X1742Y387D01*
X1744Y387D01*
X1744Y379D01*
X1742Y379D01*
X1742Y369D01*
X1740Y369D01*
X1740Y363D01*
X1738Y363D01*
X1738Y359D01*
X1736Y359D01*
X1736Y355D01*
X1734Y355D01*
X1734Y353D01*
X1732Y353D01*
X1732Y349D01*
X1730Y349D01*
X1730Y347D01*
X1728Y347D01*
X1728Y345D01*
X1726Y345D01*
X1726Y343D01*
X1724Y343D01*
X1724Y341D01*
X1722Y341D01*
X1722Y339D01*
X1720Y339D01*
X1720Y337D01*
X1716Y337D01*
X1716Y335D01*
X1714Y335D01*
X1714Y333D01*
X1710Y333D01*
X1710Y331D01*
X1706Y331D01*
X1706Y329D01*
X1700Y329D01*
X1700Y327D01*
X1904Y327D01*
X1904Y539D01*
X1528Y539D01*
G37*
D02*
G36*
X1524Y439D02*
X1524Y437D01*
X1522Y437D01*
X1522Y435D01*
X1518Y435D01*
X1518Y433D01*
X1516Y433D01*
X1516Y431D01*
X1512Y431D01*
X1512Y413D01*
X1618Y413D01*
X1618Y411D01*
X1640Y411D01*
X1640Y413D01*
X1642Y413D01*
X1642Y415D01*
X1644Y415D01*
X1644Y417D01*
X1646Y417D01*
X1646Y419D01*
X1648Y419D01*
X1648Y421D01*
X1650Y421D01*
X1650Y423D01*
X1652Y423D01*
X1652Y425D01*
X1654Y425D01*
X1654Y427D01*
X1656Y427D01*
X1656Y429D01*
X1660Y429D01*
X1660Y431D01*
X1662Y431D01*
X1662Y433D01*
X1666Y433D01*
X1666Y435D01*
X1672Y435D01*
X1672Y437D01*
X1680Y437D01*
X1680Y439D01*
X1524Y439D01*
G37*
D02*
G36*
X1512Y413D02*
X1512Y411D01*
X1514Y411D01*
X1514Y409D01*
X1516Y409D01*
X1516Y407D01*
X1518Y407D01*
X1518Y405D01*
X1520Y405D01*
X1520Y403D01*
X1522Y403D01*
X1522Y399D01*
X1524Y399D01*
X1524Y397D01*
X1526Y397D01*
X1526Y391D01*
X1528Y391D01*
X1528Y375D01*
X1526Y375D01*
X1526Y369D01*
X1524Y369D01*
X1524Y365D01*
X1522Y365D01*
X1522Y361D01*
X1520Y361D01*
X1520Y359D01*
X1518Y359D01*
X1518Y357D01*
X1516Y357D01*
X1516Y355D01*
X1514Y355D01*
X1514Y333D01*
X1518Y333D01*
X1518Y331D01*
X1520Y331D01*
X1520Y329D01*
X1522Y329D01*
X1522Y327D01*
X1526Y327D01*
X1526Y325D01*
X1528Y325D01*
X1528Y323D01*
X1530Y323D01*
X1530Y321D01*
X1532Y321D01*
X1532Y319D01*
X1534Y319D01*
X1534Y315D01*
X1536Y315D01*
X1536Y313D01*
X1538Y313D01*
X1538Y309D01*
X1540Y309D01*
X1540Y305D01*
X1542Y305D01*
X1542Y301D01*
X1544Y301D01*
X1544Y295D01*
X1546Y295D01*
X1546Y273D01*
X1544Y273D01*
X1544Y267D01*
X1542Y267D01*
X1542Y263D01*
X1540Y263D01*
X1540Y259D01*
X1538Y259D01*
X1538Y255D01*
X1536Y255D01*
X1536Y253D01*
X1534Y253D01*
X1534Y249D01*
X1532Y249D01*
X1532Y247D01*
X1530Y247D01*
X1530Y245D01*
X1528Y245D01*
X1528Y225D01*
X1530Y225D01*
X1530Y223D01*
X1532Y223D01*
X1532Y219D01*
X1534Y219D01*
X1534Y217D01*
X1536Y217D01*
X1536Y215D01*
X1538Y215D01*
X1538Y211D01*
X1540Y211D01*
X1540Y207D01*
X1542Y207D01*
X1542Y203D01*
X1544Y203D01*
X1544Y197D01*
X1546Y197D01*
X1546Y175D01*
X1544Y175D01*
X1544Y169D01*
X1542Y169D01*
X1542Y163D01*
X1540Y163D01*
X1540Y161D01*
X1538Y161D01*
X1538Y157D01*
X1536Y157D01*
X1536Y155D01*
X1534Y155D01*
X1534Y151D01*
X1532Y151D01*
X1532Y149D01*
X1530Y149D01*
X1530Y147D01*
X1528Y147D01*
X1528Y145D01*
X1526Y145D01*
X1526Y143D01*
X1524Y143D01*
X1524Y141D01*
X1520Y141D01*
X1520Y139D01*
X1518Y139D01*
X1518Y137D01*
X1514Y137D01*
X1514Y135D01*
X1510Y135D01*
X1510Y133D01*
X1506Y133D01*
X1506Y113D01*
X1588Y113D01*
X1588Y393D01*
X1590Y393D01*
X1590Y399D01*
X1592Y399D01*
X1592Y401D01*
X1594Y401D01*
X1594Y403D01*
X1596Y403D01*
X1596Y405D01*
X1598Y405D01*
X1598Y407D01*
X1600Y407D01*
X1600Y409D01*
X1604Y409D01*
X1604Y411D01*
X1614Y411D01*
X1614Y413D01*
X1512Y413D01*
G37*
D02*
G36*
X1644Y333D02*
X1644Y327D01*
X1674Y327D01*
X1674Y329D01*
X1668Y329D01*
X1668Y331D01*
X1664Y331D01*
X1664Y333D01*
X1644Y333D01*
G37*
D02*
G36*
X1644Y327D02*
X1644Y325D01*
X1904Y325D01*
X1904Y327D01*
X1644Y327D01*
G37*
D02*
G36*
X1644Y327D02*
X1644Y325D01*
X1904Y325D01*
X1904Y327D01*
X1644Y327D01*
G37*
D02*
G36*
X1644Y325D02*
X1644Y223D01*
X1796Y223D01*
X1796Y221D01*
X1800Y221D01*
X1800Y219D01*
X1804Y219D01*
X1804Y217D01*
X1806Y217D01*
X1806Y215D01*
X1810Y215D01*
X1810Y213D01*
X1812Y213D01*
X1812Y211D01*
X1814Y211D01*
X1814Y207D01*
X1816Y207D01*
X1816Y205D01*
X1818Y205D01*
X1818Y201D01*
X1820Y201D01*
X1820Y197D01*
X1822Y197D01*
X1822Y191D01*
X1824Y191D01*
X1824Y181D01*
X1822Y181D01*
X1822Y173D01*
X1820Y173D01*
X1820Y169D01*
X1818Y169D01*
X1818Y167D01*
X1816Y167D01*
X1816Y163D01*
X1814Y163D01*
X1814Y161D01*
X1812Y161D01*
X1812Y159D01*
X1810Y159D01*
X1810Y157D01*
X1808Y157D01*
X1808Y155D01*
X1804Y155D01*
X1804Y153D01*
X1802Y153D01*
X1802Y151D01*
X1798Y151D01*
X1798Y149D01*
X1790Y149D01*
X1790Y147D01*
X1904Y147D01*
X1904Y325D01*
X1644Y325D01*
G37*
D02*
G36*
X1644Y223D02*
X1644Y213D01*
X1664Y213D01*
X1664Y215D01*
X1666Y215D01*
X1666Y217D01*
X1668Y217D01*
X1668Y219D01*
X1672Y219D01*
X1672Y221D01*
X1678Y221D01*
X1678Y223D01*
X1644Y223D01*
G37*
D02*
G36*
X1696Y223D02*
X1696Y221D01*
X1702Y221D01*
X1702Y219D01*
X1706Y219D01*
X1706Y217D01*
X1708Y217D01*
X1708Y215D01*
X1710Y215D01*
X1710Y213D01*
X1712Y213D01*
X1712Y211D01*
X1714Y211D01*
X1714Y209D01*
X1716Y209D01*
X1716Y207D01*
X1718Y207D01*
X1718Y205D01*
X1720Y205D01*
X1720Y201D01*
X1722Y201D01*
X1722Y197D01*
X1724Y197D01*
X1724Y187D01*
X1726Y187D01*
X1726Y185D01*
X1724Y185D01*
X1724Y175D01*
X1722Y175D01*
X1722Y171D01*
X1720Y171D01*
X1720Y167D01*
X1718Y167D01*
X1718Y165D01*
X1716Y165D01*
X1716Y161D01*
X1714Y161D01*
X1714Y159D01*
X1712Y159D01*
X1712Y157D01*
X1710Y157D01*
X1710Y155D01*
X1706Y155D01*
X1706Y153D01*
X1702Y153D01*
X1702Y151D01*
X1698Y151D01*
X1698Y149D01*
X1692Y149D01*
X1692Y147D01*
X1782Y147D01*
X1782Y149D01*
X1774Y149D01*
X1774Y151D01*
X1770Y151D01*
X1770Y153D01*
X1766Y153D01*
X1766Y155D01*
X1764Y155D01*
X1764Y157D01*
X1762Y157D01*
X1762Y159D01*
X1760Y159D01*
X1760Y161D01*
X1758Y161D01*
X1758Y163D01*
X1756Y163D01*
X1756Y165D01*
X1754Y165D01*
X1754Y167D01*
X1752Y167D01*
X1752Y171D01*
X1750Y171D01*
X1750Y177D01*
X1748Y177D01*
X1748Y195D01*
X1750Y195D01*
X1750Y201D01*
X1752Y201D01*
X1752Y203D01*
X1754Y203D01*
X1754Y207D01*
X1756Y207D01*
X1756Y209D01*
X1758Y209D01*
X1758Y211D01*
X1760Y211D01*
X1760Y213D01*
X1762Y213D01*
X1762Y215D01*
X1764Y215D01*
X1764Y217D01*
X1768Y217D01*
X1768Y219D01*
X1770Y219D01*
X1770Y221D01*
X1776Y221D01*
X1776Y223D01*
X1696Y223D01*
G37*
D02*
G36*
X1644Y157D02*
X1644Y147D01*
X1682Y147D01*
X1682Y149D01*
X1676Y149D01*
X1676Y151D01*
X1672Y151D01*
X1672Y153D01*
X1668Y153D01*
X1668Y155D01*
X1666Y155D01*
X1666Y157D01*
X1644Y157D01*
G37*
D02*
G36*
X244Y149D02*
X244Y147D01*
X264Y147D01*
X264Y149D01*
X244Y149D01*
G37*
D02*
G36*
X244Y147D02*
X244Y145D01*
X428Y145D01*
X428Y147D01*
X244Y147D01*
G37*
D02*
G36*
X244Y147D02*
X244Y145D01*
X428Y145D01*
X428Y147D01*
X244Y147D01*
G37*
D02*
G36*
X1644Y147D02*
X1644Y145D01*
X1904Y145D01*
X1904Y147D01*
X1644Y147D01*
G37*
D02*
G36*
X1644Y147D02*
X1644Y145D01*
X1904Y145D01*
X1904Y147D01*
X1644Y147D01*
G37*
D02*
G36*
X1644Y147D02*
X1644Y145D01*
X1904Y145D01*
X1904Y147D01*
X1644Y147D01*
G37*
D02*
G36*
X244Y145D02*
X244Y111D01*
X440Y111D01*
X440Y113D01*
X450Y113D01*
X450Y133D01*
X446Y133D01*
X446Y135D01*
X442Y135D01*
X442Y137D01*
X438Y137D01*
X438Y139D01*
X434Y139D01*
X434Y141D01*
X432Y141D01*
X432Y143D01*
X430Y143D01*
X430Y145D01*
X244Y145D01*
G37*
D02*
G36*
X1644Y145D02*
X1644Y143D01*
X1870Y143D01*
X1870Y141D01*
X1880Y141D01*
X1880Y139D01*
X1904Y139D01*
X1904Y145D01*
X1644Y145D01*
G37*
D02*
G36*
X48Y143D02*
X48Y137D01*
X70Y137D01*
X70Y139D01*
X76Y139D01*
X76Y141D01*
X84Y141D01*
X84Y143D01*
X48Y143D01*
G37*
D02*
G36*
X1644Y143D02*
X1644Y81D01*
X1642Y81D01*
X1642Y73D01*
X1640Y73D01*
X1640Y71D01*
X1638Y71D01*
X1638Y67D01*
X1636Y67D01*
X1636Y65D01*
X1634Y65D01*
X1634Y63D01*
X1632Y63D01*
X1632Y61D01*
X1628Y61D01*
X1628Y41D01*
X1812Y41D01*
X1812Y61D01*
X1810Y61D01*
X1810Y65D01*
X1808Y65D01*
X1808Y73D01*
X1806Y73D01*
X1806Y93D01*
X1808Y93D01*
X1808Y101D01*
X1810Y101D01*
X1810Y105D01*
X1812Y105D01*
X1812Y109D01*
X1814Y109D01*
X1814Y113D01*
X1816Y113D01*
X1816Y115D01*
X1818Y115D01*
X1818Y119D01*
X1820Y119D01*
X1820Y121D01*
X1822Y121D01*
X1822Y123D01*
X1824Y123D01*
X1824Y125D01*
X1826Y125D01*
X1826Y127D01*
X1828Y127D01*
X1828Y129D01*
X1830Y129D01*
X1830Y131D01*
X1834Y131D01*
X1834Y133D01*
X1836Y133D01*
X1836Y135D01*
X1840Y135D01*
X1840Y137D01*
X1844Y137D01*
X1844Y139D01*
X1850Y139D01*
X1850Y141D01*
X1860Y141D01*
X1860Y143D01*
X1644Y143D01*
G37*
D02*
G04 End of Copper1*
M02*