G04 MADE WITH FRITZING*
G04 WWW.FRITZING.ORG*
G04 DOUBLE SIDED*
G04 HOLES PLATED*
G04 CONTOUR ON CENTER OF CONTOUR VECTOR*
%ASAXBY*%
%FSLAX23Y23*%
%MOIN*%
%OFA0B0*%
%SFA1.0B1.0*%
%ADD10C,0.096614*%
%ADD11C,0.078000*%
%ADD12C,0.090350*%
%ADD13C,0.054000*%
%ADD14C,0.090000*%
%ADD15C,0.085000*%
%ADD16C,0.088000*%
%ADD17R,0.090000X0.090000*%
%ADD18R,0.085000X0.085000*%
%ADD19R,0.088000X0.088000*%
%LNMASK1*%
G90*
G70*
G54D10*
X90Y83D03*
X90Y1033D03*
X1865Y83D03*
G54D11*
X815Y484D03*
X915Y484D03*
X1015Y484D03*
X1115Y484D03*
X1115Y784D03*
X1015Y784D03*
X915Y784D03*
X815Y784D03*
X815Y484D03*
X915Y484D03*
X1015Y484D03*
X1115Y484D03*
X1115Y784D03*
X1015Y784D03*
X915Y784D03*
X815Y784D03*
G54D12*
X1687Y382D03*
X1490Y185D03*
X1490Y284D03*
X1490Y481D03*
X1490Y579D03*
G54D13*
X1687Y185D03*
X1785Y185D03*
X1785Y579D03*
X1687Y579D03*
X1490Y382D03*
G54D14*
X715Y184D03*
X853Y184D03*
G54D15*
X1290Y383D03*
X1290Y783D03*
X1290Y183D03*
X1290Y283D03*
G54D16*
X165Y858D03*
X365Y858D03*
X565Y858D03*
G54D15*
X715Y384D03*
X715Y784D03*
X815Y984D03*
X715Y984D03*
X1215Y984D03*
X1115Y984D03*
G54D12*
X268Y382D03*
X465Y579D03*
X465Y481D03*
X465Y284D03*
X465Y185D03*
G54D13*
X268Y579D03*
X170Y579D03*
X170Y185D03*
X268Y185D03*
X465Y382D03*
G54D10*
X1865Y1033D03*
G54D17*
X715Y184D03*
G54D18*
X1290Y183D03*
G54D19*
X165Y858D03*
G54D18*
X815Y984D03*
X1215Y984D03*
G04 End of Mask1*
M02*