G04 MADE WITH FRITZING*
G04 WWW.FRITZING.ORG*
G04 DOUBLE SIDED*
G04 HOLES PLATED*
G04 CONTOUR ON CENTER OF CONTOUR VECTOR*
%ASAXBY*%
%FSLAX23Y23*%
%MOIN*%
%OFA0B0*%
%SFA1.0B1.0*%
%ADD10C,0.066567X0.046567*%
%ADD11C,0.008000*%
%ADD12C,0.010000*%
%ADD13C,0.005000*%
%ADD14R,0.001000X0.001000*%
%LNSILK1*%
G90*
G70*
G54D10*
X815Y584D03*
G54D11*
X765Y734D02*
X1165Y734D01*
D02*
X765Y734D02*
X765Y574D01*
D02*
X1165Y734D02*
X1165Y534D01*
D02*
X765Y534D02*
X1165Y534D01*
D02*
X765Y534D02*
X765Y574D01*
D02*
X765Y574D02*
X765Y594D01*
D02*
X1392Y146D02*
X1392Y618D01*
D02*
X1825Y146D02*
X1825Y205D01*
D02*
X1825Y559D02*
X1825Y618D01*
D02*
X1864Y205D02*
X1864Y264D01*
D02*
X1864Y500D02*
X1864Y559D01*
D02*
X1864Y559D02*
X1825Y559D01*
D02*
X1864Y205D02*
X1825Y205D01*
D02*
X1825Y146D02*
X1549Y146D01*
D02*
X1392Y146D02*
X1431Y146D01*
D02*
X1825Y146D02*
X1825Y618D01*
D02*
X1825Y618D02*
X1549Y618D01*
D02*
X1392Y618D02*
X1431Y618D01*
G54D12*
D02*
X641Y96D02*
X927Y96D01*
D02*
X927Y96D02*
X927Y312D01*
D02*
X927Y312D02*
X641Y312D01*
D02*
X641Y312D02*
X641Y96D01*
G54D13*
D02*
X927Y272D02*
X641Y272D01*
G54D12*
D02*
X1257Y492D02*
X1257Y692D01*
D02*
X1257Y692D02*
X1323Y692D01*
D02*
X1323Y692D02*
X1323Y492D01*
D02*
X1323Y492D02*
X1257Y492D01*
D02*
X115Y808D02*
X615Y808D01*
D02*
X615Y808D02*
X615Y908D01*
D02*
X615Y908D02*
X115Y908D01*
D02*
X115Y908D02*
X115Y808D01*
D02*
X682Y493D02*
X682Y693D01*
D02*
X682Y693D02*
X748Y693D01*
D02*
X748Y693D02*
X748Y493D01*
D02*
X748Y493D02*
X682Y493D01*
G54D11*
D02*
X564Y618D02*
X564Y146D01*
D02*
X131Y618D02*
X131Y559D01*
D02*
X131Y205D02*
X131Y146D01*
D02*
X91Y559D02*
X91Y500D01*
D02*
X91Y264D02*
X91Y205D01*
D02*
X91Y205D02*
X131Y205D01*
D02*
X91Y559D02*
X131Y559D01*
D02*
X13Y500D02*
X13Y264D01*
D02*
X13Y264D02*
X91Y264D01*
D02*
X13Y500D02*
X91Y500D01*
D02*
X131Y618D02*
X406Y618D01*
D02*
X564Y618D02*
X524Y618D01*
D02*
X131Y618D02*
X131Y146D01*
D02*
X131Y146D02*
X406Y146D01*
D02*
X564Y146D02*
X524Y146D01*
G54D14*
X7Y1108D02*
X15Y1108D01*
X7Y1107D02*
X14Y1107D01*
X7Y1106D02*
X14Y1106D01*
X7Y1105D02*
X14Y1105D01*
X7Y1104D02*
X14Y1104D01*
X7Y1103D02*
X14Y1103D01*
X7Y1102D02*
X14Y1102D01*
X7Y1101D02*
X14Y1101D01*
X7Y1100D02*
X14Y1100D01*
X7Y1099D02*
X14Y1099D01*
X7Y1098D02*
X14Y1098D01*
X7Y1097D02*
X14Y1097D01*
X7Y1096D02*
X14Y1096D01*
X7Y1095D02*
X14Y1095D01*
X7Y1094D02*
X14Y1094D01*
X7Y1093D02*
X14Y1093D01*
X7Y1092D02*
X14Y1092D01*
X7Y1091D02*
X14Y1091D01*
X7Y1090D02*
X14Y1090D01*
X7Y1089D02*
X14Y1089D01*
X754Y1089D02*
X775Y1089D01*
X1154Y1089D02*
X1175Y1089D01*
X7Y1088D02*
X14Y1088D01*
X747Y1088D02*
X782Y1088D01*
X1147Y1088D02*
X1182Y1088D01*
X7Y1087D02*
X14Y1087D01*
X742Y1087D02*
X787Y1087D01*
X1142Y1087D02*
X1187Y1087D01*
X7Y1086D02*
X14Y1086D01*
X738Y1086D02*
X791Y1086D01*
X1138Y1086D02*
X1191Y1086D01*
X7Y1085D02*
X14Y1085D01*
X735Y1085D02*
X794Y1085D01*
X1135Y1085D02*
X1194Y1085D01*
X7Y1084D02*
X14Y1084D01*
X732Y1084D02*
X797Y1084D01*
X1132Y1084D02*
X1197Y1084D01*
X7Y1083D02*
X14Y1083D01*
X729Y1083D02*
X800Y1083D01*
X1129Y1083D02*
X1200Y1083D01*
X7Y1082D02*
X14Y1082D01*
X726Y1082D02*
X803Y1082D01*
X1126Y1082D02*
X1202Y1082D01*
X7Y1081D02*
X14Y1081D01*
X724Y1081D02*
X805Y1081D01*
X1124Y1081D02*
X1205Y1081D01*
X7Y1080D02*
X14Y1080D01*
X722Y1080D02*
X807Y1080D01*
X1122Y1080D02*
X1207Y1080D01*
X7Y1079D02*
X14Y1079D01*
X720Y1079D02*
X753Y1079D01*
X776Y1079D02*
X809Y1079D01*
X1119Y1079D02*
X1153Y1079D01*
X1175Y1079D02*
X1209Y1079D01*
X7Y1078D02*
X14Y1078D01*
X718Y1078D02*
X746Y1078D01*
X782Y1078D02*
X811Y1078D01*
X1117Y1078D02*
X1146Y1078D01*
X1182Y1078D02*
X1211Y1078D01*
X7Y1077D02*
X14Y1077D01*
X716Y1077D02*
X742Y1077D01*
X787Y1077D02*
X813Y1077D01*
X1116Y1077D02*
X1141Y1077D01*
X1187Y1077D02*
X1213Y1077D01*
X7Y1076D02*
X14Y1076D01*
X714Y1076D02*
X738Y1076D01*
X791Y1076D02*
X815Y1076D01*
X1114Y1076D02*
X1138Y1076D01*
X1191Y1076D02*
X1215Y1076D01*
X7Y1075D02*
X14Y1075D01*
X712Y1075D02*
X734Y1075D01*
X795Y1075D02*
X817Y1075D01*
X1112Y1075D02*
X1134Y1075D01*
X1194Y1075D02*
X1217Y1075D01*
X7Y1074D02*
X14Y1074D01*
X711Y1074D02*
X731Y1074D01*
X798Y1074D02*
X818Y1074D01*
X1110Y1074D02*
X1131Y1074D01*
X1197Y1074D02*
X1218Y1074D01*
X7Y1073D02*
X14Y1073D01*
X709Y1073D02*
X729Y1073D01*
X800Y1073D02*
X820Y1073D01*
X1109Y1073D02*
X1129Y1073D01*
X1200Y1073D02*
X1220Y1073D01*
X7Y1072D02*
X14Y1072D01*
X707Y1072D02*
X726Y1072D01*
X803Y1072D02*
X822Y1072D01*
X1107Y1072D02*
X1126Y1072D01*
X1203Y1072D02*
X1221Y1072D01*
X7Y1071D02*
X14Y1071D01*
X706Y1071D02*
X724Y1071D01*
X805Y1071D02*
X823Y1071D01*
X1106Y1071D02*
X1124Y1071D01*
X1205Y1071D02*
X1223Y1071D01*
X7Y1070D02*
X14Y1070D01*
X705Y1070D02*
X722Y1070D01*
X807Y1070D02*
X824Y1070D01*
X1104Y1070D02*
X1122Y1070D01*
X1207Y1070D02*
X1224Y1070D01*
X7Y1069D02*
X14Y1069D01*
X703Y1069D02*
X720Y1069D01*
X809Y1069D02*
X826Y1069D01*
X1103Y1069D02*
X1120Y1069D01*
X1209Y1069D02*
X1226Y1069D01*
X7Y1068D02*
X14Y1068D01*
X702Y1068D02*
X718Y1068D01*
X811Y1068D02*
X827Y1068D01*
X1102Y1068D02*
X1118Y1068D01*
X1211Y1068D02*
X1227Y1068D01*
X7Y1067D02*
X14Y1067D01*
X701Y1067D02*
X716Y1067D01*
X813Y1067D02*
X828Y1067D01*
X1100Y1067D02*
X1116Y1067D01*
X1213Y1067D02*
X1228Y1067D01*
X7Y1066D02*
X14Y1066D01*
X699Y1066D02*
X714Y1066D01*
X815Y1066D02*
X830Y1066D01*
X1099Y1066D02*
X1114Y1066D01*
X1214Y1066D02*
X1230Y1066D01*
X7Y1065D02*
X14Y1065D01*
X698Y1065D02*
X713Y1065D01*
X816Y1065D02*
X831Y1065D01*
X1098Y1065D02*
X1113Y1065D01*
X1216Y1065D02*
X1231Y1065D01*
X7Y1064D02*
X14Y1064D01*
X697Y1064D02*
X711Y1064D01*
X818Y1064D02*
X832Y1064D01*
X1097Y1064D02*
X1111Y1064D01*
X1218Y1064D02*
X1232Y1064D01*
X7Y1063D02*
X14Y1063D01*
X696Y1063D02*
X710Y1063D01*
X819Y1063D02*
X833Y1063D01*
X1096Y1063D02*
X1110Y1063D01*
X1219Y1063D02*
X1233Y1063D01*
X7Y1062D02*
X14Y1062D01*
X695Y1062D02*
X708Y1062D01*
X821Y1062D02*
X834Y1062D01*
X1094Y1062D02*
X1108Y1062D01*
X1220Y1062D02*
X1234Y1062D01*
X7Y1061D02*
X14Y1061D01*
X694Y1061D02*
X707Y1061D01*
X822Y1061D02*
X835Y1061D01*
X1093Y1061D02*
X1107Y1061D01*
X1222Y1061D02*
X1235Y1061D01*
X7Y1060D02*
X14Y1060D01*
X693Y1060D02*
X706Y1060D01*
X823Y1060D02*
X836Y1060D01*
X1092Y1060D02*
X1106Y1060D01*
X1223Y1060D02*
X1236Y1060D01*
X7Y1059D02*
X14Y1059D01*
X691Y1059D02*
X704Y1059D01*
X825Y1059D02*
X838Y1059D01*
X1091Y1059D02*
X1104Y1059D01*
X1224Y1059D02*
X1237Y1059D01*
X7Y1058D02*
X14Y1058D01*
X690Y1058D02*
X703Y1058D01*
X826Y1058D02*
X838Y1058D01*
X1090Y1058D02*
X1103Y1058D01*
X1226Y1058D02*
X1238Y1058D01*
X7Y1057D02*
X14Y1057D01*
X690Y1057D02*
X702Y1057D01*
X827Y1057D02*
X839Y1057D01*
X1089Y1057D02*
X1102Y1057D01*
X1227Y1057D02*
X1239Y1057D01*
X7Y1056D02*
X14Y1056D01*
X689Y1056D02*
X701Y1056D01*
X828Y1056D02*
X840Y1056D01*
X1088Y1056D02*
X1101Y1056D01*
X1228Y1056D02*
X1240Y1056D01*
X7Y1055D02*
X14Y1055D01*
X688Y1055D02*
X700Y1055D01*
X829Y1055D02*
X841Y1055D01*
X1087Y1055D02*
X1100Y1055D01*
X1229Y1055D02*
X1241Y1055D01*
X7Y1054D02*
X14Y1054D01*
X687Y1054D02*
X699Y1054D01*
X830Y1054D02*
X842Y1054D01*
X1087Y1054D02*
X1098Y1054D01*
X1230Y1054D02*
X1242Y1054D01*
X7Y1053D02*
X14Y1053D01*
X686Y1053D02*
X698Y1053D01*
X831Y1053D02*
X843Y1053D01*
X1086Y1053D02*
X1097Y1053D01*
X1231Y1053D02*
X1243Y1053D01*
X7Y1052D02*
X14Y1052D01*
X685Y1052D02*
X697Y1052D01*
X832Y1052D02*
X844Y1052D01*
X1085Y1052D02*
X1096Y1052D01*
X1232Y1052D02*
X1244Y1052D01*
X7Y1051D02*
X14Y1051D01*
X684Y1051D02*
X696Y1051D01*
X833Y1051D02*
X845Y1051D01*
X1084Y1051D02*
X1095Y1051D01*
X1233Y1051D02*
X1245Y1051D01*
X7Y1050D02*
X14Y1050D01*
X683Y1050D02*
X695Y1050D01*
X834Y1050D02*
X846Y1050D01*
X1083Y1050D02*
X1094Y1050D01*
X1234Y1050D02*
X1245Y1050D01*
X7Y1049D02*
X14Y1049D01*
X683Y1049D02*
X694Y1049D01*
X835Y1049D02*
X846Y1049D01*
X1082Y1049D02*
X1094Y1049D01*
X1235Y1049D02*
X1246Y1049D01*
X7Y1048D02*
X14Y1048D01*
X682Y1048D02*
X693Y1048D01*
X836Y1048D02*
X847Y1048D01*
X1082Y1048D02*
X1093Y1048D01*
X1236Y1048D02*
X1247Y1048D01*
X7Y1047D02*
X14Y1047D01*
X681Y1047D02*
X692Y1047D01*
X837Y1047D02*
X848Y1047D01*
X1081Y1047D02*
X1092Y1047D01*
X1237Y1047D02*
X1248Y1047D01*
X7Y1046D02*
X14Y1046D01*
X680Y1046D02*
X691Y1046D01*
X838Y1046D02*
X849Y1046D01*
X1080Y1046D02*
X1091Y1046D01*
X1238Y1046D02*
X1249Y1046D01*
X7Y1045D02*
X14Y1045D01*
X680Y1045D02*
X690Y1045D01*
X799Y1045D02*
X830Y1045D01*
X839Y1045D02*
X849Y1045D01*
X1079Y1045D02*
X1090Y1045D01*
X1199Y1045D02*
X1230Y1045D01*
X1239Y1045D02*
X1249Y1045D01*
X7Y1044D02*
X14Y1044D01*
X679Y1044D02*
X689Y1044D01*
X797Y1044D02*
X832Y1044D01*
X840Y1044D02*
X850Y1044D01*
X1079Y1044D02*
X1089Y1044D01*
X1197Y1044D02*
X1232Y1044D01*
X1239Y1044D02*
X1250Y1044D01*
X7Y1043D02*
X14Y1043D01*
X678Y1043D02*
X689Y1043D01*
X796Y1043D02*
X833Y1043D01*
X840Y1043D02*
X851Y1043D01*
X1078Y1043D02*
X1089Y1043D01*
X1196Y1043D02*
X1233Y1043D01*
X1240Y1043D02*
X1251Y1043D01*
X7Y1042D02*
X14Y1042D01*
X677Y1042D02*
X688Y1042D01*
X795Y1042D02*
X834Y1042D01*
X841Y1042D02*
X851Y1042D01*
X1077Y1042D02*
X1088Y1042D01*
X1195Y1042D02*
X1234Y1042D01*
X1241Y1042D02*
X1251Y1042D01*
X7Y1041D02*
X14Y1041D01*
X677Y1041D02*
X687Y1041D01*
X795Y1041D02*
X834Y1041D01*
X842Y1041D02*
X852Y1041D01*
X1077Y1041D02*
X1087Y1041D01*
X1195Y1041D02*
X1234Y1041D01*
X1242Y1041D02*
X1252Y1041D01*
X7Y1040D02*
X14Y1040D01*
X676Y1040D02*
X686Y1040D01*
X795Y1040D02*
X834Y1040D01*
X843Y1040D02*
X853Y1040D01*
X1076Y1040D02*
X1086Y1040D01*
X1194Y1040D02*
X1234Y1040D01*
X1242Y1040D02*
X1253Y1040D01*
X7Y1039D02*
X14Y1039D01*
X676Y1039D02*
X686Y1039D01*
X795Y1039D02*
X834Y1039D01*
X843Y1039D02*
X853Y1039D01*
X1075Y1039D02*
X1086Y1039D01*
X1194Y1039D02*
X1234Y1039D01*
X1243Y1039D02*
X1253Y1039D01*
X7Y1038D02*
X14Y1038D01*
X675Y1038D02*
X685Y1038D01*
X795Y1038D02*
X834Y1038D01*
X844Y1038D02*
X854Y1038D01*
X1075Y1038D02*
X1085Y1038D01*
X1195Y1038D02*
X1234Y1038D01*
X1244Y1038D02*
X1254Y1038D01*
X7Y1037D02*
X14Y1037D01*
X674Y1037D02*
X684Y1037D01*
X795Y1037D02*
X834Y1037D01*
X845Y1037D02*
X855Y1037D01*
X1074Y1037D02*
X1084Y1037D01*
X1195Y1037D02*
X1234Y1037D01*
X1244Y1037D02*
X1254Y1037D01*
X7Y1036D02*
X14Y1036D01*
X674Y1036D02*
X684Y1036D01*
X796Y1036D02*
X833Y1036D01*
X845Y1036D02*
X855Y1036D01*
X1074Y1036D02*
X1084Y1036D01*
X1196Y1036D02*
X1233Y1036D01*
X1245Y1036D02*
X1255Y1036D01*
X7Y1035D02*
X14Y1035D01*
X673Y1035D02*
X683Y1035D01*
X797Y1035D02*
X832Y1035D01*
X846Y1035D02*
X856Y1035D01*
X1073Y1035D02*
X1083Y1035D01*
X1197Y1035D02*
X1232Y1035D01*
X1246Y1035D02*
X1256Y1035D01*
X7Y1034D02*
X14Y1034D01*
X673Y1034D02*
X682Y1034D01*
X846Y1034D02*
X856Y1034D01*
X1072Y1034D02*
X1082Y1034D01*
X1246Y1034D02*
X1256Y1034D01*
X7Y1033D02*
X14Y1033D01*
X672Y1033D02*
X682Y1033D01*
X847Y1033D02*
X857Y1033D01*
X1072Y1033D02*
X1082Y1033D01*
X1247Y1033D02*
X1257Y1033D01*
X7Y1032D02*
X14Y1032D01*
X672Y1032D02*
X681Y1032D01*
X848Y1032D02*
X857Y1032D01*
X1071Y1032D02*
X1081Y1032D01*
X1247Y1032D02*
X1257Y1032D01*
X7Y1031D02*
X14Y1031D01*
X671Y1031D02*
X681Y1031D01*
X848Y1031D02*
X858Y1031D01*
X1071Y1031D02*
X1081Y1031D01*
X1248Y1031D02*
X1258Y1031D01*
X7Y1030D02*
X14Y1030D01*
X671Y1030D02*
X680Y1030D01*
X849Y1030D02*
X858Y1030D01*
X1070Y1030D02*
X1080Y1030D01*
X1249Y1030D02*
X1258Y1030D01*
X7Y1029D02*
X14Y1029D01*
X670Y1029D02*
X680Y1029D01*
X849Y1029D02*
X859Y1029D01*
X1070Y1029D02*
X1080Y1029D01*
X1249Y1029D02*
X1259Y1029D01*
X7Y1028D02*
X14Y1028D01*
X670Y1028D02*
X679Y1028D01*
X850Y1028D02*
X859Y1028D01*
X1069Y1028D02*
X1079Y1028D01*
X1250Y1028D02*
X1259Y1028D01*
X7Y1027D02*
X14Y1027D01*
X669Y1027D02*
X679Y1027D01*
X857Y1027D02*
X860Y1027D01*
X1069Y1027D02*
X1079Y1027D01*
X1257Y1027D02*
X1260Y1027D01*
X7Y1026D02*
X14Y1026D01*
X669Y1026D02*
X678Y1026D01*
X857Y1026D02*
X860Y1026D01*
X1069Y1026D02*
X1078Y1026D01*
X1257Y1026D02*
X1260Y1026D01*
X7Y1025D02*
X14Y1025D01*
X668Y1025D02*
X678Y1025D01*
X857Y1025D02*
X861Y1025D01*
X1068Y1025D02*
X1078Y1025D01*
X1257Y1025D02*
X1261Y1025D01*
X7Y1024D02*
X14Y1024D01*
X668Y1024D02*
X677Y1024D01*
X857Y1024D02*
X861Y1024D01*
X1068Y1024D02*
X1077Y1024D01*
X1257Y1024D02*
X1261Y1024D01*
X7Y1023D02*
X14Y1023D01*
X667Y1023D02*
X677Y1023D01*
X857Y1023D02*
X861Y1023D01*
X1067Y1023D02*
X1077Y1023D01*
X1257Y1023D02*
X1261Y1023D01*
X7Y1022D02*
X14Y1022D01*
X667Y1022D02*
X676Y1022D01*
X857Y1022D02*
X862Y1022D01*
X1067Y1022D02*
X1076Y1022D01*
X1257Y1022D02*
X1262Y1022D01*
X7Y1021D02*
X14Y1021D01*
X667Y1021D02*
X676Y1021D01*
X857Y1021D02*
X862Y1021D01*
X1067Y1021D02*
X1076Y1021D01*
X1257Y1021D02*
X1262Y1021D01*
X1401Y1021D02*
X1409Y1021D01*
X7Y1020D02*
X14Y1020D01*
X666Y1020D02*
X676Y1020D01*
X857Y1020D02*
X863Y1020D01*
X1066Y1020D02*
X1076Y1020D01*
X1257Y1020D02*
X1263Y1020D01*
X1400Y1020D02*
X1411Y1020D01*
X7Y1019D02*
X14Y1019D01*
X666Y1019D02*
X675Y1019D01*
X857Y1019D02*
X863Y1019D01*
X1066Y1019D02*
X1075Y1019D01*
X1257Y1019D02*
X1263Y1019D01*
X1399Y1019D02*
X1411Y1019D01*
X7Y1018D02*
X14Y1018D01*
X666Y1018D02*
X675Y1018D01*
X857Y1018D02*
X863Y1018D01*
X1065Y1018D02*
X1075Y1018D01*
X1257Y1018D02*
X1263Y1018D01*
X1398Y1018D02*
X1412Y1018D01*
X7Y1017D02*
X14Y1017D01*
X665Y1017D02*
X675Y1017D01*
X857Y1017D02*
X864Y1017D01*
X1065Y1017D02*
X1074Y1017D01*
X1257Y1017D02*
X1264Y1017D01*
X1335Y1017D02*
X1356Y1017D01*
X1398Y1017D02*
X1412Y1017D01*
X7Y1016D02*
X14Y1016D01*
X665Y1016D02*
X674Y1016D01*
X857Y1016D02*
X864Y1016D01*
X1065Y1016D02*
X1074Y1016D01*
X1257Y1016D02*
X1264Y1016D01*
X1331Y1016D02*
X1358Y1016D01*
X1398Y1016D02*
X1412Y1016D01*
X7Y1015D02*
X14Y1015D01*
X665Y1015D02*
X674Y1015D01*
X857Y1015D02*
X864Y1015D01*
X1064Y1015D02*
X1074Y1015D01*
X1257Y1015D02*
X1264Y1015D01*
X1329Y1015D02*
X1359Y1015D01*
X1398Y1015D02*
X1412Y1015D01*
X7Y1014D02*
X14Y1014D01*
X664Y1014D02*
X674Y1014D01*
X857Y1014D02*
X865Y1014D01*
X1064Y1014D02*
X1073Y1014D01*
X1144Y1014D02*
X1152Y1014D01*
X1257Y1014D02*
X1264Y1014D01*
X1328Y1014D02*
X1359Y1014D01*
X1398Y1014D02*
X1412Y1014D01*
X7Y1013D02*
X14Y1013D01*
X664Y1013D02*
X673Y1013D01*
X857Y1013D02*
X865Y1013D01*
X1064Y1013D02*
X1073Y1013D01*
X1145Y1013D02*
X1153Y1013D01*
X1171Y1013D02*
X1171Y1013D01*
X1257Y1013D02*
X1265Y1013D01*
X1326Y1013D02*
X1360Y1013D01*
X1398Y1013D02*
X1412Y1013D01*
X7Y1012D02*
X14Y1012D01*
X664Y1012D02*
X673Y1012D01*
X857Y1012D02*
X865Y1012D01*
X1064Y1012D02*
X1073Y1012D01*
X1146Y1012D02*
X1154Y1012D01*
X1170Y1012D02*
X1171Y1012D01*
X1257Y1012D02*
X1265Y1012D01*
X1325Y1012D02*
X1360Y1012D01*
X1398Y1012D02*
X1412Y1012D01*
X1467Y1012D02*
X1472Y1012D01*
X7Y1011D02*
X14Y1011D01*
X663Y1011D02*
X673Y1011D01*
X857Y1011D02*
X865Y1011D01*
X1063Y1011D02*
X1072Y1011D01*
X1147Y1011D02*
X1154Y1011D01*
X1170Y1011D02*
X1171Y1011D01*
X1257Y1011D02*
X1265Y1011D01*
X1325Y1011D02*
X1360Y1011D01*
X1398Y1011D02*
X1412Y1011D01*
X1466Y1011D02*
X1473Y1011D01*
X7Y1010D02*
X14Y1010D01*
X663Y1010D02*
X672Y1010D01*
X857Y1010D02*
X866Y1010D01*
X1063Y1010D02*
X1072Y1010D01*
X1148Y1010D02*
X1153Y1010D01*
X1171Y1010D02*
X1171Y1010D01*
X1257Y1010D02*
X1266Y1010D01*
X1324Y1010D02*
X1359Y1010D01*
X1399Y1010D02*
X1412Y1010D01*
X1466Y1010D02*
X1474Y1010D01*
X7Y1009D02*
X14Y1009D01*
X663Y1009D02*
X672Y1009D01*
X857Y1009D02*
X866Y1009D01*
X1063Y1009D02*
X1072Y1009D01*
X1148Y1009D02*
X1153Y1009D01*
X1171Y1009D02*
X1171Y1009D01*
X1257Y1009D02*
X1266Y1009D01*
X1324Y1009D02*
X1359Y1009D01*
X1399Y1009D02*
X1411Y1009D01*
X1466Y1009D02*
X1474Y1009D01*
X7Y1008D02*
X14Y1008D01*
X663Y1008D02*
X672Y1008D01*
X767Y1008D02*
X771Y1008D01*
X857Y1008D02*
X866Y1008D01*
X1063Y1008D02*
X1072Y1008D01*
X1149Y1008D02*
X1152Y1008D01*
X1257Y1008D02*
X1266Y1008D01*
X1323Y1008D02*
X1358Y1008D01*
X1400Y1008D02*
X1410Y1008D01*
X1465Y1008D02*
X1475Y1008D01*
X7Y1007D02*
X14Y1007D01*
X663Y1007D02*
X672Y1007D01*
X766Y1007D02*
X771Y1007D01*
X857Y1007D02*
X866Y1007D01*
X1062Y1007D02*
X1071Y1007D01*
X1257Y1007D02*
X1266Y1007D01*
X1323Y1007D02*
X1335Y1007D01*
X1465Y1007D02*
X1475Y1007D01*
X7Y1006D02*
X14Y1006D01*
X662Y1006D02*
X671Y1006D01*
X766Y1006D02*
X771Y1006D01*
X858Y1006D02*
X867Y1006D01*
X1062Y1006D02*
X1071Y1006D01*
X1257Y1006D02*
X1267Y1006D01*
X1322Y1006D02*
X1333Y1006D01*
X1465Y1006D02*
X1475Y1006D01*
X7Y1005D02*
X14Y1005D01*
X662Y1005D02*
X671Y1005D01*
X766Y1005D02*
X771Y1005D01*
X858Y1005D02*
X867Y1005D01*
X1062Y1005D02*
X1071Y1005D01*
X1258Y1005D02*
X1267Y1005D01*
X1322Y1005D02*
X1332Y1005D01*
X1465Y1005D02*
X1475Y1005D01*
X7Y1004D02*
X14Y1004D01*
X662Y1004D02*
X671Y1004D01*
X766Y1004D02*
X771Y1004D01*
X858Y1004D02*
X867Y1004D01*
X1062Y1004D02*
X1071Y1004D01*
X1258Y1004D02*
X1267Y1004D01*
X1321Y1004D02*
X1332Y1004D01*
X1465Y1004D02*
X1475Y1004D01*
X7Y1003D02*
X14Y1003D01*
X662Y1003D02*
X671Y1003D01*
X767Y1003D02*
X771Y1003D01*
X858Y1003D02*
X867Y1003D01*
X1062Y1003D02*
X1071Y1003D01*
X1258Y1003D02*
X1267Y1003D01*
X1321Y1003D02*
X1331Y1003D01*
X1465Y1003D02*
X1475Y1003D01*
X7Y1002D02*
X14Y1002D01*
X662Y1002D02*
X671Y1002D01*
X768Y1002D02*
X771Y1002D01*
X858Y1002D02*
X867Y1002D01*
X1061Y1002D02*
X1070Y1002D01*
X1258Y1002D02*
X1267Y1002D01*
X1320Y1002D02*
X1331Y1002D01*
X1465Y1002D02*
X1475Y1002D01*
X7Y1001D02*
X14Y1001D01*
X661Y1001D02*
X670Y1001D01*
X859Y1001D02*
X868Y1001D01*
X1061Y1001D02*
X1070Y1001D01*
X1258Y1001D02*
X1267Y1001D01*
X1320Y1001D02*
X1330Y1001D01*
X1465Y1001D02*
X1475Y1001D01*
X7Y1000D02*
X14Y1000D01*
X661Y1000D02*
X670Y1000D01*
X859Y1000D02*
X868Y1000D01*
X1061Y1000D02*
X1070Y1000D01*
X1259Y1000D02*
X1268Y1000D01*
X1319Y1000D02*
X1330Y1000D01*
X1465Y1000D02*
X1475Y1000D01*
X7Y999D02*
X14Y999D01*
X661Y999D02*
X670Y999D01*
X859Y999D02*
X868Y999D01*
X1061Y999D02*
X1070Y999D01*
X1259Y999D02*
X1268Y999D01*
X1319Y999D02*
X1329Y999D01*
X1465Y999D02*
X1475Y999D01*
X7Y998D02*
X14Y998D01*
X661Y998D02*
X670Y998D01*
X859Y998D02*
X868Y998D01*
X1061Y998D02*
X1070Y998D01*
X1259Y998D02*
X1268Y998D01*
X1318Y998D02*
X1328Y998D01*
X1465Y998D02*
X1475Y998D01*
X7Y997D02*
X14Y997D01*
X661Y997D02*
X670Y997D01*
X859Y997D02*
X868Y997D01*
X1061Y997D02*
X1070Y997D01*
X1259Y997D02*
X1268Y997D01*
X1318Y997D02*
X1328Y997D01*
X1465Y997D02*
X1475Y997D01*
X7Y996D02*
X14Y996D01*
X661Y996D02*
X670Y996D01*
X859Y996D02*
X868Y996D01*
X1061Y996D02*
X1070Y996D01*
X1259Y996D02*
X1268Y996D01*
X1317Y996D02*
X1327Y996D01*
X1393Y996D02*
X1407Y996D01*
X1461Y996D02*
X1494Y996D01*
X7Y995D02*
X14Y995D01*
X661Y995D02*
X670Y995D01*
X859Y995D02*
X868Y995D01*
X1060Y995D02*
X1069Y995D01*
X1259Y995D02*
X1268Y995D01*
X1317Y995D02*
X1327Y995D01*
X1390Y995D02*
X1410Y995D01*
X1458Y995D02*
X1497Y995D01*
X1530Y995D02*
X1535Y995D01*
X1569Y995D02*
X1575Y995D01*
X7Y994D02*
X14Y994D01*
X660Y994D02*
X669Y994D01*
X859Y994D02*
X868Y994D01*
X1060Y994D02*
X1069Y994D01*
X1259Y994D02*
X1268Y994D01*
X1316Y994D02*
X1326Y994D01*
X1389Y994D02*
X1411Y994D01*
X1457Y994D02*
X1498Y994D01*
X1529Y994D02*
X1536Y994D01*
X1568Y994D02*
X1576Y994D01*
X7Y993D02*
X14Y993D01*
X660Y993D02*
X669Y993D01*
X860Y993D02*
X869Y993D01*
X1060Y993D02*
X1069Y993D01*
X1259Y993D02*
X1268Y993D01*
X1316Y993D02*
X1326Y993D01*
X1389Y993D02*
X1412Y993D01*
X1456Y993D02*
X1499Y993D01*
X1528Y993D02*
X1536Y993D01*
X1568Y993D02*
X1576Y993D01*
X7Y992D02*
X14Y992D01*
X660Y992D02*
X669Y992D01*
X860Y992D02*
X869Y992D01*
X1060Y992D02*
X1069Y992D01*
X1260Y992D02*
X1268Y992D01*
X1315Y992D02*
X1325Y992D01*
X1388Y992D02*
X1412Y992D01*
X1456Y992D02*
X1499Y992D01*
X1528Y992D02*
X1537Y992D01*
X1568Y992D02*
X1576Y992D01*
X7Y991D02*
X14Y991D01*
X660Y991D02*
X669Y991D01*
X860Y991D02*
X869Y991D01*
X1060Y991D02*
X1069Y991D01*
X1260Y991D02*
X1269Y991D01*
X1315Y991D02*
X1325Y991D01*
X1388Y991D02*
X1412Y991D01*
X1456Y991D02*
X1499Y991D01*
X1528Y991D02*
X1537Y991D01*
X1567Y991D02*
X1577Y991D01*
X7Y990D02*
X14Y990D01*
X660Y990D02*
X669Y990D01*
X860Y990D02*
X869Y990D01*
X1060Y990D02*
X1069Y990D01*
X1260Y990D02*
X1269Y990D01*
X1314Y990D02*
X1324Y990D01*
X1388Y990D02*
X1412Y990D01*
X1456Y990D02*
X1499Y990D01*
X1528Y990D02*
X1537Y990D01*
X1567Y990D02*
X1577Y990D01*
X7Y989D02*
X14Y989D01*
X660Y989D02*
X669Y989D01*
X860Y989D02*
X869Y989D01*
X1060Y989D02*
X1069Y989D01*
X1260Y989D02*
X1269Y989D01*
X1314Y989D02*
X1324Y989D01*
X1389Y989D02*
X1412Y989D01*
X1456Y989D02*
X1499Y989D01*
X1528Y989D02*
X1537Y989D01*
X1567Y989D02*
X1577Y989D01*
X7Y988D02*
X14Y988D01*
X660Y988D02*
X669Y988D01*
X860Y988D02*
X869Y988D01*
X1060Y988D02*
X1069Y988D01*
X1171Y988D02*
X1171Y988D01*
X1260Y988D02*
X1269Y988D01*
X1313Y988D02*
X1323Y988D01*
X1389Y988D02*
X1412Y988D01*
X1456Y988D02*
X1498Y988D01*
X1528Y988D02*
X1537Y988D01*
X1567Y988D02*
X1577Y988D01*
X7Y987D02*
X14Y987D01*
X660Y987D02*
X669Y987D01*
X860Y987D02*
X869Y987D01*
X1060Y987D02*
X1069Y987D01*
X1171Y987D02*
X1171Y987D01*
X1260Y987D02*
X1269Y987D01*
X1313Y987D02*
X1323Y987D01*
X1390Y987D02*
X1412Y987D01*
X1457Y987D02*
X1497Y987D01*
X1528Y987D02*
X1537Y987D01*
X1567Y987D02*
X1577Y987D01*
X7Y986D02*
X14Y986D01*
X660Y986D02*
X669Y986D01*
X860Y986D02*
X869Y986D01*
X1060Y986D02*
X1069Y986D01*
X1171Y986D02*
X1171Y986D01*
X1260Y986D02*
X1269Y986D01*
X1312Y986D02*
X1322Y986D01*
X1392Y986D02*
X1412Y986D01*
X1460Y986D02*
X1495Y986D01*
X1528Y986D02*
X1537Y986D01*
X1567Y986D02*
X1577Y986D01*
X7Y985D02*
X14Y985D01*
X164Y985D02*
X167Y985D01*
X192Y985D02*
X195Y985D01*
X268Y985D02*
X281Y985D01*
X660Y985D02*
X669Y985D01*
X860Y985D02*
X869Y985D01*
X1060Y985D02*
X1069Y985D01*
X1170Y985D02*
X1171Y985D01*
X1260Y985D02*
X1269Y985D01*
X1312Y985D02*
X1322Y985D01*
X1403Y985D02*
X1412Y985D01*
X1465Y985D02*
X1475Y985D01*
X1528Y985D02*
X1537Y985D01*
X1567Y985D02*
X1577Y985D01*
X7Y984D02*
X14Y984D01*
X163Y984D02*
X168Y984D01*
X191Y984D02*
X196Y984D01*
X267Y984D02*
X282Y984D01*
X660Y984D02*
X669Y984D01*
X860Y984D02*
X869Y984D01*
X1060Y984D02*
X1069Y984D01*
X1170Y984D02*
X1171Y984D01*
X1260Y984D02*
X1269Y984D01*
X1312Y984D02*
X1321Y984D01*
X1403Y984D02*
X1412Y984D01*
X1465Y984D02*
X1475Y984D01*
X1528Y984D02*
X1537Y984D01*
X1567Y984D02*
X1577Y984D01*
X7Y983D02*
X14Y983D01*
X163Y983D02*
X169Y983D01*
X190Y983D02*
X196Y983D01*
X266Y983D02*
X283Y983D01*
X660Y983D02*
X669Y983D01*
X860Y983D02*
X869Y983D01*
X1060Y983D02*
X1069Y983D01*
X1170Y983D02*
X1171Y983D01*
X1260Y983D02*
X1269Y983D01*
X1311Y983D02*
X1321Y983D01*
X1403Y983D02*
X1412Y983D01*
X1465Y983D02*
X1475Y983D01*
X1528Y983D02*
X1537Y983D01*
X1567Y983D02*
X1577Y983D01*
X7Y982D02*
X14Y982D01*
X163Y982D02*
X169Y982D01*
X190Y982D02*
X196Y982D01*
X266Y982D02*
X283Y982D01*
X660Y982D02*
X669Y982D01*
X860Y982D02*
X869Y982D01*
X1060Y982D02*
X1069Y982D01*
X1170Y982D02*
X1171Y982D01*
X1260Y982D02*
X1269Y982D01*
X1311Y982D02*
X1321Y982D01*
X1403Y982D02*
X1412Y982D01*
X1465Y982D02*
X1475Y982D01*
X1528Y982D02*
X1538Y982D01*
X1567Y982D02*
X1577Y982D01*
X7Y981D02*
X14Y981D01*
X163Y981D02*
X169Y981D01*
X190Y981D02*
X196Y981D01*
X267Y981D02*
X283Y981D01*
X660Y981D02*
X669Y981D01*
X860Y981D02*
X869Y981D01*
X1060Y981D02*
X1069Y981D01*
X1170Y981D02*
X1171Y981D01*
X1260Y981D02*
X1269Y981D01*
X1311Y981D02*
X1320Y981D01*
X1403Y981D02*
X1412Y981D01*
X1465Y981D02*
X1475Y981D01*
X1528Y981D02*
X1538Y981D01*
X1566Y981D02*
X1576Y981D01*
X7Y980D02*
X14Y980D01*
X163Y980D02*
X169Y980D01*
X190Y980D02*
X196Y980D01*
X267Y980D02*
X283Y980D01*
X660Y980D02*
X669Y980D01*
X860Y980D02*
X869Y980D01*
X1060Y980D02*
X1069Y980D01*
X1170Y980D02*
X1171Y980D01*
X1260Y980D02*
X1269Y980D01*
X1311Y980D02*
X1320Y980D01*
X1403Y980D02*
X1412Y980D01*
X1465Y980D02*
X1475Y980D01*
X1528Y980D02*
X1538Y980D01*
X1566Y980D02*
X1576Y980D01*
X7Y979D02*
X14Y979D01*
X163Y979D02*
X169Y979D01*
X190Y979D02*
X196Y979D01*
X269Y979D02*
X283Y979D01*
X660Y979D02*
X669Y979D01*
X860Y979D02*
X869Y979D01*
X1060Y979D02*
X1069Y979D01*
X1170Y979D02*
X1171Y979D01*
X1260Y979D02*
X1269Y979D01*
X1311Y979D02*
X1320Y979D01*
X1403Y979D02*
X1412Y979D01*
X1465Y979D02*
X1475Y979D01*
X1529Y979D02*
X1539Y979D01*
X1565Y979D02*
X1575Y979D01*
X7Y978D02*
X14Y978D01*
X163Y978D02*
X169Y978D01*
X190Y978D02*
X196Y978D01*
X277Y978D02*
X283Y978D01*
X660Y978D02*
X669Y978D01*
X860Y978D02*
X869Y978D01*
X1060Y978D02*
X1069Y978D01*
X1170Y978D02*
X1171Y978D01*
X1260Y978D02*
X1269Y978D01*
X1311Y978D02*
X1320Y978D01*
X1403Y978D02*
X1412Y978D01*
X1465Y978D02*
X1475Y978D01*
X1529Y978D02*
X1539Y978D01*
X1565Y978D02*
X1575Y978D01*
X7Y977D02*
X14Y977D01*
X163Y977D02*
X169Y977D01*
X190Y977D02*
X196Y977D01*
X277Y977D02*
X283Y977D01*
X660Y977D02*
X669Y977D01*
X860Y977D02*
X869Y977D01*
X1060Y977D02*
X1069Y977D01*
X1170Y977D02*
X1171Y977D01*
X1259Y977D02*
X1268Y977D01*
X1311Y977D02*
X1320Y977D01*
X1403Y977D02*
X1412Y977D01*
X1465Y977D02*
X1475Y977D01*
X1530Y977D02*
X1540Y977D01*
X1565Y977D02*
X1575Y977D01*
X7Y976D02*
X14Y976D01*
X163Y976D02*
X169Y976D01*
X190Y976D02*
X196Y976D01*
X277Y976D02*
X283Y976D01*
X660Y976D02*
X669Y976D01*
X860Y976D02*
X869Y976D01*
X1060Y976D02*
X1069Y976D01*
X1170Y976D02*
X1171Y976D01*
X1259Y976D02*
X1268Y976D01*
X1311Y976D02*
X1320Y976D01*
X1403Y976D02*
X1412Y976D01*
X1465Y976D02*
X1475Y976D01*
X1530Y976D02*
X1540Y976D01*
X1564Y976D02*
X1574Y976D01*
X7Y975D02*
X14Y975D01*
X163Y975D02*
X169Y975D01*
X190Y975D02*
X196Y975D01*
X277Y975D02*
X283Y975D01*
X660Y975D02*
X669Y975D01*
X859Y975D02*
X868Y975D01*
X1060Y975D02*
X1069Y975D01*
X1170Y975D02*
X1171Y975D01*
X1259Y975D02*
X1268Y975D01*
X1311Y975D02*
X1320Y975D01*
X1403Y975D02*
X1412Y975D01*
X1465Y975D02*
X1475Y975D01*
X1531Y975D02*
X1541Y975D01*
X1564Y975D02*
X1574Y975D01*
X7Y974D02*
X14Y974D01*
X163Y974D02*
X169Y974D01*
X190Y974D02*
X196Y974D01*
X277Y974D02*
X283Y974D01*
X661Y974D02*
X670Y974D01*
X859Y974D02*
X868Y974D01*
X1060Y974D02*
X1069Y974D01*
X1170Y974D02*
X1171Y974D01*
X1259Y974D02*
X1268Y974D01*
X1311Y974D02*
X1321Y974D01*
X1403Y974D02*
X1412Y974D01*
X1465Y974D02*
X1475Y974D01*
X1531Y974D02*
X1541Y974D01*
X1563Y974D02*
X1573Y974D01*
X7Y973D02*
X14Y973D01*
X163Y973D02*
X169Y973D01*
X190Y973D02*
X196Y973D01*
X277Y973D02*
X283Y973D01*
X661Y973D02*
X670Y973D01*
X859Y973D02*
X868Y973D01*
X1061Y973D02*
X1070Y973D01*
X1170Y973D02*
X1171Y973D01*
X1259Y973D02*
X1268Y973D01*
X1312Y973D02*
X1321Y973D01*
X1403Y973D02*
X1412Y973D01*
X1465Y973D02*
X1475Y973D01*
X1531Y973D02*
X1541Y973D01*
X1563Y973D02*
X1573Y973D01*
X7Y972D02*
X14Y972D01*
X163Y972D02*
X169Y972D01*
X190Y972D02*
X196Y972D01*
X277Y972D02*
X283Y972D01*
X661Y972D02*
X670Y972D01*
X859Y972D02*
X868Y972D01*
X1061Y972D02*
X1070Y972D01*
X1170Y972D02*
X1171Y972D01*
X1259Y972D02*
X1268Y972D01*
X1312Y972D02*
X1322Y972D01*
X1403Y972D02*
X1412Y972D01*
X1465Y972D02*
X1475Y972D01*
X1532Y972D02*
X1542Y972D01*
X1562Y972D02*
X1572Y972D01*
X7Y971D02*
X14Y971D01*
X163Y971D02*
X169Y971D01*
X190Y971D02*
X196Y971D01*
X225Y971D02*
X234Y971D01*
X277Y971D02*
X283Y971D01*
X316Y971D02*
X316Y971D01*
X366Y971D02*
X366Y971D01*
X375Y971D02*
X375Y971D01*
X426Y971D02*
X435Y971D01*
X482Y971D02*
X487Y971D01*
X661Y971D02*
X670Y971D01*
X859Y971D02*
X868Y971D01*
X1061Y971D02*
X1070Y971D01*
X1170Y971D02*
X1171Y971D01*
X1259Y971D02*
X1268Y971D01*
X1312Y971D02*
X1322Y971D01*
X1403Y971D02*
X1412Y971D01*
X1465Y971D02*
X1475Y971D01*
X1532Y971D02*
X1542Y971D01*
X1562Y971D02*
X1572Y971D01*
X7Y970D02*
X14Y970D01*
X163Y970D02*
X169Y970D01*
X190Y970D02*
X196Y970D01*
X221Y970D02*
X238Y970D01*
X277Y970D02*
X283Y970D01*
X314Y970D02*
X318Y970D01*
X342Y970D02*
X346Y970D01*
X364Y970D02*
X368Y970D01*
X372Y970D02*
X379Y970D01*
X385Y970D02*
X392Y970D01*
X422Y970D02*
X439Y970D01*
X465Y970D02*
X469Y970D01*
X479Y970D02*
X491Y970D01*
X661Y970D02*
X670Y970D01*
X859Y970D02*
X868Y970D01*
X1061Y970D02*
X1070Y970D01*
X1170Y970D02*
X1171Y970D01*
X1259Y970D02*
X1268Y970D01*
X1313Y970D02*
X1323Y970D01*
X1403Y970D02*
X1412Y970D01*
X1465Y970D02*
X1475Y970D01*
X1533Y970D02*
X1543Y970D01*
X1561Y970D02*
X1572Y970D01*
X7Y969D02*
X14Y969D01*
X163Y969D02*
X169Y969D01*
X189Y969D02*
X196Y969D01*
X220Y969D02*
X239Y969D01*
X277Y969D02*
X283Y969D01*
X313Y969D02*
X319Y969D01*
X341Y969D02*
X346Y969D01*
X363Y969D02*
X380Y969D01*
X384Y969D02*
X393Y969D01*
X420Y969D02*
X440Y969D01*
X464Y969D02*
X469Y969D01*
X477Y969D02*
X492Y969D01*
X661Y969D02*
X670Y969D01*
X859Y969D02*
X868Y969D01*
X1061Y969D02*
X1070Y969D01*
X1170Y969D02*
X1171Y969D01*
X1259Y969D02*
X1268Y969D01*
X1313Y969D02*
X1323Y969D01*
X1403Y969D02*
X1412Y969D01*
X1465Y969D02*
X1475Y969D01*
X1533Y969D02*
X1543Y969D01*
X1561Y969D02*
X1571Y969D01*
X7Y968D02*
X14Y968D01*
X163Y968D02*
X170Y968D01*
X189Y968D02*
X195Y968D01*
X218Y968D02*
X241Y968D01*
X277Y968D02*
X283Y968D01*
X313Y968D02*
X319Y968D01*
X341Y968D02*
X347Y968D01*
X363Y968D02*
X381Y968D01*
X383Y968D02*
X394Y968D01*
X419Y968D02*
X442Y968D01*
X464Y968D02*
X470Y968D01*
X475Y968D02*
X493Y968D01*
X661Y968D02*
X670Y968D01*
X859Y968D02*
X868Y968D01*
X1061Y968D02*
X1070Y968D01*
X1170Y968D02*
X1171Y968D01*
X1258Y968D02*
X1267Y968D01*
X1313Y968D02*
X1324Y968D01*
X1403Y968D02*
X1412Y968D01*
X1465Y968D02*
X1475Y968D01*
X1534Y968D02*
X1544Y968D01*
X1561Y968D02*
X1571Y968D01*
X7Y967D02*
X14Y967D01*
X164Y967D02*
X170Y967D01*
X189Y967D02*
X195Y967D01*
X217Y967D02*
X242Y967D01*
X277Y967D02*
X283Y967D01*
X313Y967D02*
X319Y967D01*
X341Y967D02*
X347Y967D01*
X363Y967D02*
X395Y967D01*
X418Y967D02*
X443Y967D01*
X464Y967D02*
X470Y967D01*
X474Y967D02*
X494Y967D01*
X662Y967D02*
X671Y967D01*
X858Y967D02*
X867Y967D01*
X1061Y967D02*
X1070Y967D01*
X1170Y967D02*
X1171Y967D01*
X1258Y967D02*
X1267Y967D01*
X1314Y967D02*
X1324Y967D01*
X1403Y967D02*
X1412Y967D01*
X1465Y967D02*
X1475Y967D01*
X1534Y967D02*
X1544Y967D01*
X1560Y967D02*
X1570Y967D01*
X7Y966D02*
X14Y966D01*
X164Y966D02*
X171Y966D01*
X188Y966D02*
X195Y966D01*
X216Y966D02*
X243Y966D01*
X277Y966D02*
X283Y966D01*
X313Y966D02*
X319Y966D01*
X341Y966D02*
X347Y966D01*
X363Y966D02*
X396Y966D01*
X417Y966D02*
X444Y966D01*
X464Y966D02*
X470Y966D01*
X472Y966D02*
X495Y966D01*
X662Y966D02*
X671Y966D01*
X858Y966D02*
X867Y966D01*
X1062Y966D02*
X1071Y966D01*
X1152Y966D02*
X1153Y966D01*
X1170Y966D02*
X1171Y966D01*
X1258Y966D02*
X1267Y966D01*
X1314Y966D02*
X1325Y966D01*
X1403Y966D02*
X1412Y966D01*
X1465Y966D02*
X1475Y966D01*
X1535Y966D02*
X1545Y966D01*
X1560Y966D02*
X1570Y966D01*
X7Y965D02*
X14Y965D01*
X164Y965D02*
X171Y965D01*
X188Y965D02*
X194Y965D01*
X215Y965D02*
X244Y965D01*
X277Y965D02*
X283Y965D01*
X313Y965D02*
X319Y965D01*
X341Y965D02*
X347Y965D01*
X363Y965D02*
X396Y965D01*
X416Y965D02*
X445Y965D01*
X464Y965D02*
X495Y965D01*
X662Y965D02*
X671Y965D01*
X858Y965D02*
X867Y965D01*
X1062Y965D02*
X1071Y965D01*
X1152Y965D02*
X1154Y965D01*
X1170Y965D02*
X1171Y965D01*
X1258Y965D02*
X1267Y965D01*
X1315Y965D02*
X1325Y965D01*
X1403Y965D02*
X1412Y965D01*
X1465Y965D02*
X1475Y965D01*
X1535Y965D02*
X1545Y965D01*
X1559Y965D02*
X1569Y965D01*
X7Y964D02*
X14Y964D01*
X165Y964D02*
X171Y964D01*
X187Y964D02*
X194Y964D01*
X214Y964D02*
X224Y964D01*
X234Y964D02*
X245Y964D01*
X277Y964D02*
X283Y964D01*
X313Y964D02*
X319Y964D01*
X341Y964D02*
X347Y964D01*
X363Y964D02*
X374Y964D01*
X376Y964D02*
X396Y964D01*
X415Y964D02*
X425Y964D01*
X435Y964D02*
X446Y964D01*
X464Y964D02*
X481Y964D01*
X487Y964D02*
X496Y964D01*
X662Y964D02*
X671Y964D01*
X858Y964D02*
X867Y964D01*
X1062Y964D02*
X1071Y964D01*
X1151Y964D02*
X1154Y964D01*
X1170Y964D02*
X1171Y964D01*
X1258Y964D02*
X1267Y964D01*
X1315Y964D02*
X1326Y964D01*
X1403Y964D02*
X1412Y964D01*
X1465Y964D02*
X1475Y964D01*
X1535Y964D02*
X1545Y964D01*
X1559Y964D02*
X1569Y964D01*
X7Y963D02*
X14Y963D01*
X165Y963D02*
X172Y963D01*
X187Y963D02*
X194Y963D01*
X214Y963D02*
X222Y963D01*
X237Y963D02*
X245Y963D01*
X277Y963D02*
X283Y963D01*
X313Y963D02*
X319Y963D01*
X341Y963D02*
X347Y963D01*
X363Y963D02*
X373Y963D01*
X377Y963D02*
X387Y963D01*
X390Y963D02*
X396Y963D01*
X415Y963D02*
X423Y963D01*
X438Y963D02*
X446Y963D01*
X464Y963D02*
X479Y963D01*
X489Y963D02*
X496Y963D01*
X662Y963D02*
X671Y963D01*
X858Y963D02*
X867Y963D01*
X1062Y963D02*
X1071Y963D01*
X1150Y963D02*
X1153Y963D01*
X1170Y963D02*
X1171Y963D01*
X1257Y963D02*
X1266Y963D01*
X1316Y963D02*
X1326Y963D01*
X1403Y963D02*
X1412Y963D01*
X1465Y963D02*
X1475Y963D01*
X1536Y963D02*
X1546Y963D01*
X1558Y963D02*
X1568Y963D01*
X7Y962D02*
X14Y962D01*
X166Y962D02*
X172Y962D01*
X187Y962D02*
X193Y962D01*
X213Y962D02*
X221Y962D01*
X238Y962D02*
X246Y962D01*
X277Y962D02*
X283Y962D01*
X313Y962D02*
X319Y962D01*
X341Y962D02*
X347Y962D01*
X363Y962D02*
X372Y962D01*
X377Y962D02*
X385Y962D01*
X390Y962D02*
X396Y962D01*
X414Y962D02*
X422Y962D01*
X439Y962D02*
X446Y962D01*
X464Y962D02*
X478Y962D01*
X490Y962D02*
X496Y962D01*
X663Y962D02*
X672Y962D01*
X857Y962D02*
X866Y962D01*
X1062Y962D02*
X1072Y962D01*
X1150Y962D02*
X1153Y962D01*
X1170Y962D02*
X1171Y962D01*
X1257Y962D02*
X1266Y962D01*
X1316Y962D02*
X1327Y962D01*
X1403Y962D02*
X1412Y962D01*
X1465Y962D02*
X1475Y962D01*
X1536Y962D02*
X1546Y962D01*
X1558Y962D02*
X1568Y962D01*
X7Y961D02*
X14Y961D01*
X166Y961D02*
X173Y961D01*
X186Y961D02*
X193Y961D01*
X213Y961D02*
X220Y961D01*
X239Y961D02*
X246Y961D01*
X277Y961D02*
X283Y961D01*
X313Y961D02*
X319Y961D01*
X341Y961D02*
X347Y961D01*
X363Y961D02*
X371Y961D01*
X377Y961D02*
X384Y961D01*
X390Y961D02*
X396Y961D01*
X414Y961D02*
X421Y961D01*
X440Y961D02*
X447Y961D01*
X464Y961D02*
X476Y961D01*
X490Y961D02*
X496Y961D01*
X663Y961D02*
X672Y961D01*
X767Y961D02*
X771Y961D01*
X857Y961D02*
X866Y961D01*
X1063Y961D02*
X1072Y961D01*
X1149Y961D02*
X1152Y961D01*
X1170Y961D02*
X1171Y961D01*
X1257Y961D02*
X1266Y961D01*
X1317Y961D02*
X1327Y961D01*
X1403Y961D02*
X1412Y961D01*
X1465Y961D02*
X1475Y961D01*
X1537Y961D02*
X1547Y961D01*
X1557Y961D02*
X1568Y961D01*
X7Y960D02*
X14Y960D01*
X166Y960D02*
X173Y960D01*
X186Y960D02*
X192Y960D01*
X213Y960D02*
X219Y960D01*
X240Y960D02*
X246Y960D01*
X277Y960D02*
X283Y960D01*
X313Y960D02*
X319Y960D01*
X341Y960D02*
X347Y960D01*
X363Y960D02*
X369Y960D01*
X377Y960D02*
X383Y960D01*
X390Y960D02*
X396Y960D01*
X414Y960D02*
X420Y960D01*
X441Y960D02*
X447Y960D01*
X464Y960D02*
X475Y960D01*
X490Y960D02*
X496Y960D01*
X663Y960D02*
X672Y960D01*
X748Y960D02*
X749Y960D01*
X766Y960D02*
X771Y960D01*
X857Y960D02*
X866Y960D01*
X1063Y960D02*
X1072Y960D01*
X1257Y960D02*
X1266Y960D01*
X1317Y960D02*
X1328Y960D01*
X1403Y960D02*
X1412Y960D01*
X1465Y960D02*
X1475Y960D01*
X1537Y960D02*
X1547Y960D01*
X1557Y960D02*
X1567Y960D01*
X7Y959D02*
X14Y959D01*
X167Y959D02*
X173Y959D01*
X185Y959D02*
X192Y959D01*
X213Y959D02*
X219Y959D01*
X240Y959D02*
X246Y959D01*
X277Y959D02*
X283Y959D01*
X313Y959D02*
X319Y959D01*
X341Y959D02*
X347Y959D01*
X363Y959D02*
X369Y959D01*
X377Y959D02*
X383Y959D01*
X391Y959D02*
X397Y959D01*
X414Y959D02*
X420Y959D01*
X441Y959D02*
X447Y959D01*
X464Y959D02*
X473Y959D01*
X490Y959D02*
X496Y959D01*
X663Y959D02*
X672Y959D01*
X748Y959D02*
X749Y959D01*
X766Y959D02*
X771Y959D01*
X857Y959D02*
X866Y959D01*
X1063Y959D02*
X1072Y959D01*
X1257Y959D02*
X1266Y959D01*
X1318Y959D02*
X1328Y959D01*
X1403Y959D02*
X1412Y959D01*
X1465Y959D02*
X1475Y959D01*
X1538Y959D02*
X1548Y959D01*
X1557Y959D02*
X1567Y959D01*
X7Y958D02*
X14Y958D01*
X167Y958D02*
X174Y958D01*
X185Y958D02*
X192Y958D01*
X213Y958D02*
X219Y958D01*
X240Y958D02*
X246Y958D01*
X277Y958D02*
X283Y958D01*
X313Y958D02*
X319Y958D01*
X341Y958D02*
X347Y958D01*
X363Y958D02*
X369Y958D01*
X377Y958D02*
X383Y958D01*
X391Y958D02*
X397Y958D01*
X414Y958D02*
X420Y958D01*
X441Y958D02*
X447Y958D01*
X464Y958D02*
X472Y958D01*
X490Y958D02*
X496Y958D01*
X664Y958D02*
X673Y958D01*
X747Y958D02*
X749Y958D01*
X766Y958D02*
X771Y958D01*
X857Y958D02*
X865Y958D01*
X1063Y958D02*
X1073Y958D01*
X1257Y958D02*
X1265Y958D01*
X1318Y958D02*
X1329Y958D01*
X1403Y958D02*
X1412Y958D01*
X1465Y958D02*
X1475Y958D01*
X1538Y958D02*
X1548Y958D01*
X1556Y958D02*
X1566Y958D01*
X7Y957D02*
X14Y957D01*
X168Y957D02*
X174Y957D01*
X185Y957D02*
X191Y957D01*
X213Y957D02*
X219Y957D01*
X240Y957D02*
X246Y957D01*
X277Y957D02*
X283Y957D01*
X313Y957D02*
X319Y957D01*
X341Y957D02*
X347Y957D01*
X363Y957D02*
X369Y957D01*
X377Y957D02*
X383Y957D01*
X391Y957D02*
X397Y957D01*
X414Y957D02*
X420Y957D01*
X441Y957D02*
X447Y957D01*
X464Y957D02*
X470Y957D01*
X491Y957D02*
X497Y957D01*
X664Y957D02*
X673Y957D01*
X746Y957D02*
X749Y957D01*
X766Y957D02*
X771Y957D01*
X857Y957D02*
X865Y957D01*
X1064Y957D02*
X1073Y957D01*
X1257Y957D02*
X1265Y957D01*
X1319Y957D02*
X1329Y957D01*
X1403Y957D02*
X1412Y957D01*
X1465Y957D02*
X1475Y957D01*
X1498Y957D02*
X1502Y957D01*
X1539Y957D02*
X1548Y957D01*
X1556Y957D02*
X1566Y957D01*
X7Y956D02*
X14Y956D01*
X168Y956D02*
X175Y956D01*
X184Y956D02*
X191Y956D01*
X213Y956D02*
X219Y956D01*
X240Y956D02*
X246Y956D01*
X277Y956D02*
X283Y956D01*
X314Y956D02*
X320Y956D01*
X341Y956D02*
X347Y956D01*
X363Y956D02*
X369Y956D01*
X377Y956D02*
X383Y956D01*
X391Y956D02*
X397Y956D01*
X414Y956D02*
X420Y956D01*
X441Y956D02*
X447Y956D01*
X464Y956D02*
X470Y956D01*
X491Y956D02*
X497Y956D01*
X664Y956D02*
X673Y956D01*
X745Y956D02*
X748Y956D01*
X767Y956D02*
X771Y956D01*
X857Y956D02*
X865Y956D01*
X1064Y956D02*
X1073Y956D01*
X1257Y956D02*
X1265Y956D01*
X1319Y956D02*
X1330Y956D01*
X1403Y956D02*
X1412Y956D01*
X1465Y956D02*
X1475Y956D01*
X1497Y956D02*
X1503Y956D01*
X1539Y956D02*
X1549Y956D01*
X1555Y956D02*
X1565Y956D01*
X7Y955D02*
X14Y955D01*
X168Y955D02*
X175Y955D01*
X184Y955D02*
X190Y955D01*
X213Y955D02*
X219Y955D01*
X240Y955D02*
X246Y955D01*
X277Y955D02*
X283Y955D01*
X314Y955D02*
X320Y955D01*
X341Y955D02*
X347Y955D01*
X363Y955D02*
X369Y955D01*
X377Y955D02*
X383Y955D01*
X391Y955D02*
X397Y955D01*
X414Y955D02*
X420Y955D01*
X441Y955D02*
X447Y955D01*
X464Y955D02*
X470Y955D01*
X491Y955D02*
X497Y955D01*
X664Y955D02*
X674Y955D01*
X744Y955D02*
X747Y955D01*
X768Y955D02*
X771Y955D01*
X857Y955D02*
X865Y955D01*
X1064Y955D02*
X1073Y955D01*
X1257Y955D02*
X1264Y955D01*
X1320Y955D02*
X1330Y955D01*
X1403Y955D02*
X1412Y955D01*
X1465Y955D02*
X1475Y955D01*
X1496Y955D02*
X1504Y955D01*
X1539Y955D02*
X1549Y955D01*
X1555Y955D02*
X1565Y955D01*
X7Y954D02*
X14Y954D01*
X169Y954D02*
X175Y954D01*
X183Y954D02*
X190Y954D01*
X213Y954D02*
X219Y954D01*
X240Y954D02*
X246Y954D01*
X277Y954D02*
X283Y954D01*
X314Y954D02*
X320Y954D01*
X341Y954D02*
X347Y954D01*
X363Y954D02*
X369Y954D01*
X377Y954D02*
X383Y954D01*
X391Y954D02*
X397Y954D01*
X414Y954D02*
X420Y954D01*
X441Y954D02*
X447Y954D01*
X464Y954D02*
X470Y954D01*
X491Y954D02*
X497Y954D01*
X665Y954D02*
X674Y954D01*
X857Y954D02*
X864Y954D01*
X1065Y954D02*
X1074Y954D01*
X1257Y954D02*
X1264Y954D01*
X1320Y954D02*
X1331Y954D01*
X1403Y954D02*
X1412Y954D01*
X1465Y954D02*
X1475Y954D01*
X1495Y954D02*
X1504Y954D01*
X1540Y954D02*
X1550Y954D01*
X1554Y954D02*
X1565Y954D01*
X7Y953D02*
X14Y953D01*
X169Y953D02*
X176Y953D01*
X183Y953D02*
X190Y953D01*
X213Y953D02*
X219Y953D01*
X240Y953D02*
X246Y953D01*
X277Y953D02*
X283Y953D01*
X314Y953D02*
X320Y953D01*
X341Y953D02*
X347Y953D01*
X363Y953D02*
X369Y953D01*
X377Y953D02*
X383Y953D01*
X391Y953D02*
X397Y953D01*
X414Y953D02*
X447Y953D01*
X464Y953D02*
X470Y953D01*
X491Y953D02*
X497Y953D01*
X665Y953D02*
X674Y953D01*
X857Y953D02*
X864Y953D01*
X1065Y953D02*
X1074Y953D01*
X1257Y953D02*
X1264Y953D01*
X1321Y953D02*
X1331Y953D01*
X1403Y953D02*
X1412Y953D01*
X1465Y953D02*
X1475Y953D01*
X1495Y953D02*
X1504Y953D01*
X1540Y953D02*
X1564Y953D01*
X7Y952D02*
X14Y952D01*
X169Y952D02*
X176Y952D01*
X183Y952D02*
X189Y952D01*
X213Y952D02*
X219Y952D01*
X240Y952D02*
X246Y952D01*
X277Y952D02*
X283Y952D01*
X314Y952D02*
X320Y952D01*
X341Y952D02*
X347Y952D01*
X363Y952D02*
X369Y952D01*
X377Y952D02*
X383Y952D01*
X391Y952D02*
X397Y952D01*
X414Y952D02*
X447Y952D01*
X464Y952D02*
X470Y952D01*
X491Y952D02*
X497Y952D01*
X665Y952D02*
X675Y952D01*
X857Y952D02*
X864Y952D01*
X1065Y952D02*
X1074Y952D01*
X1257Y952D02*
X1263Y952D01*
X1321Y952D02*
X1332Y952D01*
X1403Y952D02*
X1412Y952D01*
X1466Y952D02*
X1475Y952D01*
X1495Y952D02*
X1504Y952D01*
X1541Y952D02*
X1564Y952D01*
X7Y951D02*
X14Y951D01*
X170Y951D02*
X176Y951D01*
X182Y951D02*
X189Y951D01*
X213Y951D02*
X219Y951D01*
X240Y951D02*
X246Y951D01*
X277Y951D02*
X283Y951D01*
X314Y951D02*
X320Y951D01*
X341Y951D02*
X347Y951D01*
X363Y951D02*
X369Y951D01*
X377Y951D02*
X383Y951D01*
X391Y951D02*
X397Y951D01*
X414Y951D02*
X447Y951D01*
X464Y951D02*
X470Y951D01*
X491Y951D02*
X497Y951D01*
X666Y951D02*
X675Y951D01*
X857Y951D02*
X863Y951D01*
X1066Y951D02*
X1075Y951D01*
X1257Y951D02*
X1263Y951D01*
X1322Y951D02*
X1332Y951D01*
X1403Y951D02*
X1412Y951D01*
X1466Y951D02*
X1476Y951D01*
X1494Y951D02*
X1504Y951D01*
X1541Y951D02*
X1563Y951D01*
X7Y950D02*
X14Y950D01*
X170Y950D02*
X177Y950D01*
X182Y950D02*
X188Y950D01*
X213Y950D02*
X219Y950D01*
X240Y950D02*
X246Y950D01*
X277Y950D02*
X283Y950D01*
X314Y950D02*
X320Y950D01*
X341Y950D02*
X347Y950D01*
X363Y950D02*
X369Y950D01*
X377Y950D02*
X383Y950D01*
X391Y950D02*
X397Y950D01*
X414Y950D02*
X447Y950D01*
X464Y950D02*
X470Y950D01*
X491Y950D02*
X497Y950D01*
X666Y950D02*
X675Y950D01*
X857Y950D02*
X863Y950D01*
X1066Y950D02*
X1075Y950D01*
X1257Y950D02*
X1263Y950D01*
X1322Y950D02*
X1334Y950D01*
X1403Y950D02*
X1412Y950D01*
X1466Y950D02*
X1477Y950D01*
X1493Y950D02*
X1504Y950D01*
X1542Y950D02*
X1563Y950D01*
X7Y949D02*
X14Y949D01*
X171Y949D02*
X177Y949D01*
X181Y949D02*
X188Y949D01*
X213Y949D02*
X219Y949D01*
X240Y949D02*
X246Y949D01*
X277Y949D02*
X283Y949D01*
X314Y949D02*
X320Y949D01*
X341Y949D02*
X347Y949D01*
X363Y949D02*
X369Y949D01*
X377Y949D02*
X383Y949D01*
X391Y949D02*
X397Y949D01*
X414Y949D02*
X447Y949D01*
X464Y949D02*
X470Y949D01*
X491Y949D02*
X497Y949D01*
X666Y949D02*
X676Y949D01*
X857Y949D02*
X863Y949D01*
X1066Y949D02*
X1076Y949D01*
X1257Y949D02*
X1262Y949D01*
X1323Y949D02*
X1356Y949D01*
X1391Y949D02*
X1424Y949D01*
X1466Y949D02*
X1503Y949D01*
X1542Y949D02*
X1562Y949D01*
X7Y948D02*
X14Y948D01*
X171Y948D02*
X178Y948D01*
X181Y948D02*
X188Y948D01*
X213Y948D02*
X219Y948D01*
X240Y948D02*
X246Y948D01*
X277Y948D02*
X283Y948D01*
X314Y948D02*
X320Y948D01*
X341Y948D02*
X347Y948D01*
X363Y948D02*
X369Y948D01*
X377Y948D02*
X383Y948D01*
X391Y948D02*
X397Y948D01*
X414Y948D02*
X447Y948D01*
X464Y948D02*
X470Y948D01*
X491Y948D02*
X497Y948D01*
X667Y948D02*
X676Y948D01*
X857Y948D02*
X862Y948D01*
X1067Y948D02*
X1076Y948D01*
X1257Y948D02*
X1262Y948D01*
X1323Y948D02*
X1358Y948D01*
X1390Y948D02*
X1425Y948D01*
X1467Y948D02*
X1503Y948D01*
X1542Y948D02*
X1562Y948D01*
X7Y947D02*
X14Y947D01*
X171Y947D02*
X178Y947D01*
X181Y947D02*
X187Y947D01*
X213Y947D02*
X219Y947D01*
X240Y947D02*
X246Y947D01*
X277Y947D02*
X283Y947D01*
X314Y947D02*
X320Y947D01*
X341Y947D02*
X347Y947D01*
X363Y947D02*
X369Y947D01*
X377Y947D02*
X383Y947D01*
X391Y947D02*
X397Y947D01*
X414Y947D02*
X446Y947D01*
X464Y947D02*
X470Y947D01*
X491Y947D02*
X497Y947D01*
X667Y947D02*
X677Y947D01*
X857Y947D02*
X862Y947D01*
X1067Y947D02*
X1076Y947D01*
X1257Y947D02*
X1262Y947D01*
X1324Y947D02*
X1359Y947D01*
X1389Y947D02*
X1426Y947D01*
X1467Y947D02*
X1502Y947D01*
X1543Y947D02*
X1561Y947D01*
X7Y946D02*
X14Y946D01*
X172Y946D02*
X178Y946D01*
X180Y946D02*
X187Y946D01*
X213Y946D02*
X219Y946D01*
X240Y946D02*
X246Y946D01*
X277Y946D02*
X283Y946D01*
X314Y946D02*
X320Y946D01*
X341Y946D02*
X347Y946D01*
X363Y946D02*
X369Y946D01*
X377Y946D02*
X383Y946D01*
X391Y946D02*
X397Y946D01*
X414Y946D02*
X420Y946D01*
X464Y946D02*
X470Y946D01*
X491Y946D02*
X497Y946D01*
X668Y946D02*
X677Y946D01*
X857Y946D02*
X861Y946D01*
X1067Y946D02*
X1077Y946D01*
X1257Y946D02*
X1261Y946D01*
X1325Y946D02*
X1359Y946D01*
X1388Y946D02*
X1427Y946D01*
X1468Y946D02*
X1502Y946D01*
X1543Y946D02*
X1561Y946D01*
X7Y945D02*
X14Y945D01*
X172Y945D02*
X186Y945D01*
X213Y945D02*
X219Y945D01*
X240Y945D02*
X246Y945D01*
X277Y945D02*
X283Y945D01*
X314Y945D02*
X320Y945D01*
X339Y945D02*
X347Y945D01*
X363Y945D02*
X369Y945D01*
X377Y945D02*
X383Y945D01*
X391Y945D02*
X397Y945D01*
X414Y945D02*
X420Y945D01*
X464Y945D02*
X470Y945D01*
X491Y945D02*
X497Y945D01*
X668Y945D02*
X677Y945D01*
X857Y945D02*
X861Y945D01*
X1068Y945D02*
X1077Y945D01*
X1257Y945D02*
X1261Y945D01*
X1325Y945D02*
X1360Y945D01*
X1388Y945D02*
X1427Y945D01*
X1469Y945D02*
X1501Y945D01*
X1544Y945D02*
X1561Y945D01*
X7Y944D02*
X14Y944D01*
X173Y944D02*
X186Y944D01*
X213Y944D02*
X219Y944D01*
X240Y944D02*
X246Y944D01*
X277Y944D02*
X283Y944D01*
X314Y944D02*
X320Y944D01*
X338Y944D02*
X347Y944D01*
X363Y944D02*
X369Y944D01*
X377Y944D02*
X383Y944D01*
X391Y944D02*
X397Y944D01*
X414Y944D02*
X420Y944D01*
X464Y944D02*
X470Y944D01*
X491Y944D02*
X497Y944D01*
X668Y944D02*
X678Y944D01*
X857Y944D02*
X861Y944D01*
X1068Y944D02*
X1078Y944D01*
X1257Y944D02*
X1260Y944D01*
X1326Y944D02*
X1360Y944D01*
X1388Y944D02*
X1427Y944D01*
X1470Y944D02*
X1500Y944D01*
X1545Y944D02*
X1560Y944D01*
X7Y943D02*
X14Y943D01*
X173Y943D02*
X186Y943D01*
X213Y943D02*
X219Y943D01*
X240Y943D02*
X246Y943D01*
X277Y943D02*
X283Y943D01*
X314Y943D02*
X320Y943D01*
X336Y943D02*
X347Y943D01*
X363Y943D02*
X369Y943D01*
X377Y943D02*
X383Y943D01*
X391Y943D02*
X397Y943D01*
X414Y943D02*
X420Y943D01*
X464Y943D02*
X470Y943D01*
X491Y943D02*
X497Y943D01*
X669Y943D02*
X678Y943D01*
X857Y943D02*
X860Y943D01*
X1069Y943D02*
X1078Y943D01*
X1257Y943D02*
X1260Y943D01*
X1327Y943D02*
X1360Y943D01*
X1388Y943D02*
X1427Y943D01*
X1471Y943D02*
X1499Y943D01*
X1550Y943D02*
X1560Y943D01*
X7Y942D02*
X14Y942D01*
X173Y942D02*
X185Y942D01*
X213Y942D02*
X220Y942D01*
X239Y942D02*
X246Y942D01*
X277Y942D02*
X283Y942D01*
X314Y942D02*
X320Y942D01*
X335Y942D02*
X347Y942D01*
X363Y942D02*
X369Y942D01*
X377Y942D02*
X383Y942D01*
X391Y942D02*
X397Y942D01*
X414Y942D02*
X420Y942D01*
X464Y942D02*
X470Y942D01*
X491Y942D02*
X497Y942D01*
X669Y942D02*
X679Y942D01*
X850Y942D02*
X860Y942D01*
X1069Y942D02*
X1079Y942D01*
X1250Y942D02*
X1259Y942D01*
X1329Y942D02*
X1359Y942D01*
X1389Y942D02*
X1426Y942D01*
X1472Y942D02*
X1498Y942D01*
X1549Y942D02*
X1559Y942D01*
X7Y941D02*
X14Y941D01*
X174Y941D02*
X185Y941D01*
X213Y941D02*
X221Y941D01*
X238Y941D02*
X246Y941D01*
X277Y941D02*
X283Y941D01*
X314Y941D02*
X320Y941D01*
X333Y941D02*
X347Y941D01*
X363Y941D02*
X369Y941D01*
X377Y941D02*
X383Y941D01*
X391Y941D02*
X397Y941D01*
X414Y941D02*
X421Y941D01*
X464Y941D02*
X470Y941D01*
X491Y941D02*
X497Y941D01*
X670Y941D02*
X679Y941D01*
X850Y941D02*
X859Y941D01*
X1070Y941D02*
X1079Y941D01*
X1249Y941D02*
X1259Y941D01*
X1330Y941D02*
X1359Y941D01*
X1389Y941D02*
X1426Y941D01*
X1473Y941D02*
X1496Y941D01*
X1549Y941D02*
X1559Y941D01*
X7Y940D02*
X14Y940D01*
X174Y940D02*
X185Y940D01*
X214Y940D02*
X222Y940D01*
X237Y940D02*
X245Y940D01*
X277Y940D02*
X283Y940D01*
X314Y940D02*
X321Y940D01*
X332Y940D02*
X347Y940D01*
X363Y940D02*
X369Y940D01*
X377Y940D02*
X383Y940D01*
X391Y940D02*
X397Y940D01*
X414Y940D02*
X423Y940D01*
X464Y940D02*
X470Y940D01*
X491Y940D02*
X497Y940D01*
X670Y940D02*
X680Y940D01*
X849Y940D02*
X859Y940D01*
X1070Y940D02*
X1080Y940D01*
X1249Y940D02*
X1259Y940D01*
X1332Y940D02*
X1357Y940D01*
X1391Y940D02*
X1425Y940D01*
X1476Y940D02*
X1494Y940D01*
X1548Y940D02*
X1558Y940D01*
X7Y939D02*
X14Y939D01*
X175Y939D02*
X184Y939D01*
X214Y939D02*
X223Y939D01*
X236Y939D02*
X245Y939D01*
X277Y939D02*
X283Y939D01*
X314Y939D02*
X322Y939D01*
X330Y939D02*
X347Y939D01*
X363Y939D02*
X369Y939D01*
X377Y939D02*
X383Y939D01*
X391Y939D02*
X397Y939D01*
X415Y939D02*
X424Y939D01*
X464Y939D02*
X470Y939D01*
X491Y939D02*
X497Y939D01*
X671Y939D02*
X680Y939D01*
X849Y939D02*
X858Y939D01*
X1071Y939D02*
X1080Y939D01*
X1248Y939D02*
X1258Y939D01*
X1548Y939D02*
X1558Y939D01*
X7Y938D02*
X14Y938D01*
X175Y938D02*
X184Y938D01*
X215Y938D02*
X244Y938D01*
X268Y938D02*
X291Y938D01*
X315Y938D02*
X347Y938D01*
X363Y938D02*
X369Y938D01*
X377Y938D02*
X383Y938D01*
X391Y938D02*
X397Y938D01*
X415Y938D02*
X446Y938D01*
X464Y938D02*
X470Y938D01*
X491Y938D02*
X497Y938D01*
X671Y938D02*
X681Y938D01*
X848Y938D02*
X858Y938D01*
X1071Y938D02*
X1081Y938D01*
X1248Y938D02*
X1258Y938D01*
X1547Y938D02*
X1558Y938D01*
X7Y937D02*
X14Y937D01*
X175Y937D02*
X183Y937D01*
X216Y937D02*
X243Y937D01*
X267Y937D02*
X292Y937D01*
X315Y937D02*
X339Y937D01*
X341Y937D02*
X347Y937D01*
X363Y937D02*
X369Y937D01*
X377Y937D02*
X383Y937D01*
X391Y937D02*
X397Y937D01*
X416Y937D02*
X447Y937D01*
X464Y937D02*
X470Y937D01*
X491Y937D02*
X497Y937D01*
X672Y937D02*
X682Y937D01*
X847Y937D02*
X857Y937D01*
X1072Y937D02*
X1081Y937D01*
X1247Y937D02*
X1257Y937D01*
X1547Y937D02*
X1557Y937D01*
X7Y936D02*
X14Y936D01*
X176Y936D02*
X183Y936D01*
X217Y936D02*
X242Y936D01*
X266Y936D02*
X293Y936D01*
X316Y936D02*
X337Y936D01*
X341Y936D02*
X347Y936D01*
X363Y936D02*
X369Y936D01*
X377Y936D02*
X383Y936D01*
X391Y936D02*
X397Y936D01*
X417Y936D02*
X447Y936D01*
X464Y936D02*
X470Y936D01*
X491Y936D02*
X497Y936D01*
X672Y936D02*
X682Y936D01*
X847Y936D02*
X857Y936D01*
X1072Y936D02*
X1082Y936D01*
X1247Y936D02*
X1257Y936D01*
X1547Y936D02*
X1557Y936D01*
X7Y935D02*
X14Y935D01*
X176Y935D02*
X183Y935D01*
X218Y935D02*
X241Y935D01*
X266Y935D02*
X293Y935D01*
X317Y935D02*
X336Y935D01*
X341Y935D02*
X347Y935D01*
X363Y935D02*
X369Y935D01*
X377Y935D02*
X383Y935D01*
X391Y935D02*
X397Y935D01*
X419Y935D02*
X447Y935D01*
X464Y935D02*
X470Y935D01*
X491Y935D02*
X497Y935D01*
X673Y935D02*
X683Y935D01*
X799Y935D02*
X830Y935D01*
X846Y935D02*
X856Y935D01*
X1073Y935D02*
X1083Y935D01*
X1198Y935D02*
X1230Y935D01*
X1246Y935D02*
X1256Y935D01*
X1546Y935D02*
X1556Y935D01*
X7Y934D02*
X14Y934D01*
X176Y934D02*
X182Y934D01*
X219Y934D02*
X240Y934D01*
X267Y934D02*
X293Y934D01*
X318Y934D02*
X334Y934D01*
X341Y934D02*
X347Y934D01*
X363Y934D02*
X369Y934D01*
X377Y934D02*
X383Y934D01*
X392Y934D02*
X397Y934D01*
X420Y934D02*
X447Y934D01*
X464Y934D02*
X470Y934D01*
X491Y934D02*
X497Y934D01*
X673Y934D02*
X683Y934D01*
X797Y934D02*
X832Y934D01*
X846Y934D02*
X856Y934D01*
X1073Y934D02*
X1083Y934D01*
X1196Y934D02*
X1232Y934D01*
X1246Y934D02*
X1255Y934D01*
X1546Y934D02*
X1556Y934D01*
X7Y933D02*
X14Y933D01*
X177Y933D02*
X182Y933D01*
X221Y933D02*
X239Y933D01*
X267Y933D02*
X292Y933D01*
X319Y933D02*
X333Y933D01*
X341Y933D02*
X346Y933D01*
X364Y933D02*
X368Y933D01*
X378Y933D02*
X382Y933D01*
X392Y933D02*
X397Y933D01*
X421Y933D02*
X446Y933D01*
X464Y933D02*
X469Y933D01*
X492Y933D02*
X496Y933D01*
X674Y933D02*
X684Y933D01*
X796Y933D02*
X833Y933D01*
X845Y933D02*
X855Y933D01*
X1074Y933D02*
X1084Y933D01*
X1195Y933D02*
X1233Y933D01*
X1245Y933D02*
X1255Y933D01*
X1545Y933D02*
X1555Y933D01*
X7Y932D02*
X14Y932D01*
X178Y932D02*
X181Y932D01*
X223Y932D02*
X236Y932D01*
X268Y932D02*
X291Y932D01*
X321Y932D02*
X330Y932D01*
X343Y932D02*
X345Y932D01*
X365Y932D02*
X367Y932D01*
X379Y932D02*
X381Y932D01*
X393Y932D02*
X396Y932D01*
X424Y932D02*
X445Y932D01*
X466Y932D02*
X468Y932D01*
X493Y932D02*
X495Y932D01*
X675Y932D02*
X685Y932D01*
X795Y932D02*
X834Y932D01*
X844Y932D02*
X854Y932D01*
X1074Y932D02*
X1084Y932D01*
X1195Y932D02*
X1234Y932D01*
X1244Y932D02*
X1254Y932D01*
X1545Y932D02*
X1555Y932D01*
X7Y931D02*
X14Y931D01*
X675Y931D02*
X685Y931D01*
X795Y931D02*
X834Y931D01*
X844Y931D02*
X854Y931D01*
X1075Y931D02*
X1085Y931D01*
X1194Y931D02*
X1234Y931D01*
X1244Y931D02*
X1254Y931D01*
X1544Y931D02*
X1554Y931D01*
X7Y930D02*
X14Y930D01*
X676Y930D02*
X686Y930D01*
X794Y930D02*
X834Y930D01*
X843Y930D02*
X853Y930D01*
X1076Y930D02*
X1086Y930D01*
X1194Y930D02*
X1234Y930D01*
X1243Y930D02*
X1253Y930D01*
X1391Y930D02*
X1398Y930D01*
X1544Y930D02*
X1554Y930D01*
X7Y929D02*
X14Y929D01*
X676Y929D02*
X687Y929D01*
X795Y929D02*
X834Y929D01*
X842Y929D02*
X853Y929D01*
X1076Y929D02*
X1087Y929D01*
X1194Y929D02*
X1234Y929D01*
X1242Y929D02*
X1252Y929D01*
X1390Y929D02*
X1399Y929D01*
X1543Y929D02*
X1554Y929D01*
X7Y928D02*
X14Y928D01*
X677Y928D02*
X687Y928D01*
X795Y928D02*
X834Y928D01*
X842Y928D02*
X852Y928D01*
X1077Y928D02*
X1087Y928D01*
X1195Y928D02*
X1234Y928D01*
X1241Y928D02*
X1252Y928D01*
X1389Y928D02*
X1399Y928D01*
X1532Y928D02*
X1553Y928D01*
X7Y927D02*
X14Y927D01*
X678Y927D02*
X688Y927D01*
X795Y927D02*
X834Y927D01*
X841Y927D02*
X851Y927D01*
X1078Y927D02*
X1088Y927D01*
X1195Y927D02*
X1234Y927D01*
X1241Y927D02*
X1251Y927D01*
X1322Y927D02*
X1325Y927D01*
X1389Y927D02*
X1400Y927D01*
X1530Y927D02*
X1553Y927D01*
X7Y926D02*
X14Y926D01*
X678Y926D02*
X689Y926D01*
X796Y926D02*
X833Y926D01*
X840Y926D02*
X851Y926D01*
X1078Y926D02*
X1089Y926D01*
X1196Y926D02*
X1233Y926D01*
X1240Y926D02*
X1250Y926D01*
X1321Y926D02*
X1326Y926D01*
X1389Y926D02*
X1400Y926D01*
X1529Y926D02*
X1552Y926D01*
X7Y925D02*
X14Y925D01*
X679Y925D02*
X690Y925D01*
X797Y925D02*
X832Y925D01*
X839Y925D02*
X850Y925D01*
X1079Y925D02*
X1090Y925D01*
X1197Y925D02*
X1232Y925D01*
X1239Y925D02*
X1250Y925D01*
X1320Y925D02*
X1327Y925D01*
X1389Y925D02*
X1400Y925D01*
X1528Y925D02*
X1552Y925D01*
X7Y924D02*
X14Y924D01*
X680Y924D02*
X690Y924D01*
X838Y924D02*
X849Y924D01*
X1080Y924D02*
X1090Y924D01*
X1238Y924D02*
X1249Y924D01*
X1320Y924D02*
X1327Y924D01*
X1389Y924D02*
X1400Y924D01*
X1528Y924D02*
X1551Y924D01*
X7Y923D02*
X14Y923D01*
X680Y923D02*
X691Y923D01*
X838Y923D02*
X848Y923D01*
X1080Y923D02*
X1091Y923D01*
X1238Y923D02*
X1248Y923D01*
X1320Y923D02*
X1327Y923D01*
X1389Y923D02*
X1400Y923D01*
X1500Y923D02*
X1505Y923D01*
X1528Y923D02*
X1551Y923D01*
X7Y922D02*
X14Y922D01*
X681Y922D02*
X692Y922D01*
X837Y922D02*
X848Y922D01*
X1081Y922D02*
X1092Y922D01*
X1237Y922D02*
X1248Y922D01*
X1320Y922D02*
X1327Y922D01*
X1389Y922D02*
X1399Y922D01*
X1500Y922D02*
X1505Y922D01*
X1528Y922D02*
X1551Y922D01*
X7Y921D02*
X14Y921D01*
X682Y921D02*
X693Y921D01*
X836Y921D02*
X847Y921D01*
X1082Y921D02*
X1093Y921D01*
X1236Y921D02*
X1247Y921D01*
X1320Y921D02*
X1327Y921D01*
X1390Y921D02*
X1399Y921D01*
X1499Y921D02*
X1506Y921D01*
X1528Y921D02*
X1550Y921D01*
X7Y920D02*
X14Y920D01*
X683Y920D02*
X694Y920D01*
X835Y920D02*
X846Y920D01*
X1083Y920D02*
X1094Y920D01*
X1235Y920D02*
X1246Y920D01*
X1320Y920D02*
X1327Y920D01*
X1391Y920D02*
X1398Y920D01*
X1499Y920D02*
X1506Y920D01*
X1529Y920D02*
X1550Y920D01*
X7Y919D02*
X14Y919D01*
X684Y919D02*
X695Y919D01*
X834Y919D02*
X845Y919D01*
X1083Y919D02*
X1095Y919D01*
X1234Y919D02*
X1245Y919D01*
X1320Y919D02*
X1327Y919D01*
X1499Y919D02*
X1506Y919D01*
X1530Y919D02*
X1549Y919D01*
X7Y918D02*
X14Y918D01*
X684Y918D02*
X696Y918D01*
X833Y918D02*
X845Y918D01*
X1084Y918D02*
X1096Y918D01*
X1233Y918D02*
X1244Y918D01*
X1320Y918D02*
X1327Y918D01*
X1499Y918D02*
X1506Y918D01*
X7Y917D02*
X14Y917D01*
X685Y917D02*
X697Y917D01*
X832Y917D02*
X844Y917D01*
X1085Y917D02*
X1097Y917D01*
X1232Y917D02*
X1244Y917D01*
X1320Y917D02*
X1327Y917D01*
X1499Y917D02*
X1506Y917D01*
X7Y916D02*
X14Y916D01*
X686Y916D02*
X698Y916D01*
X831Y916D02*
X843Y916D01*
X1086Y916D02*
X1098Y916D01*
X1231Y916D02*
X1243Y916D01*
X1320Y916D02*
X1327Y916D01*
X1499Y916D02*
X1506Y916D01*
X7Y915D02*
X14Y915D01*
X687Y915D02*
X699Y915D01*
X830Y915D02*
X842Y915D01*
X1087Y915D02*
X1099Y915D01*
X1230Y915D02*
X1242Y915D01*
X1320Y915D02*
X1327Y915D01*
X1499Y915D02*
X1506Y915D01*
X7Y914D02*
X14Y914D01*
X688Y914D02*
X700Y914D01*
X829Y914D02*
X841Y914D01*
X1088Y914D02*
X1100Y914D01*
X1229Y914D02*
X1241Y914D01*
X1320Y914D02*
X1327Y914D01*
X1499Y914D02*
X1506Y914D01*
X7Y913D02*
X14Y913D01*
X689Y913D02*
X701Y913D01*
X828Y913D02*
X840Y913D01*
X1089Y913D02*
X1101Y913D01*
X1228Y913D02*
X1240Y913D01*
X1320Y913D02*
X1327Y913D01*
X1499Y913D02*
X1506Y913D01*
X7Y912D02*
X14Y912D01*
X690Y912D02*
X702Y912D01*
X827Y912D02*
X839Y912D01*
X1090Y912D02*
X1102Y912D01*
X1226Y912D02*
X1239Y912D01*
X1320Y912D02*
X1327Y912D01*
X1499Y912D02*
X1506Y912D01*
X7Y911D02*
X14Y911D01*
X691Y911D02*
X703Y911D01*
X825Y911D02*
X838Y911D01*
X1091Y911D02*
X1103Y911D01*
X1225Y911D02*
X1238Y911D01*
X1320Y911D02*
X1327Y911D01*
X1499Y911D02*
X1506Y911D01*
X7Y910D02*
X14Y910D01*
X692Y910D02*
X705Y910D01*
X824Y910D02*
X837Y910D01*
X1092Y910D02*
X1105Y910D01*
X1224Y910D02*
X1237Y910D01*
X1320Y910D02*
X1327Y910D01*
X1383Y910D02*
X1398Y910D01*
X1442Y910D02*
X1465Y910D01*
X1493Y910D02*
X1524Y910D01*
X1559Y910D02*
X1576Y910D01*
X1607Y910D02*
X1610Y910D01*
X1624Y910D02*
X1635Y910D01*
X1673Y910D02*
X1690Y910D01*
X1721Y910D02*
X1724Y910D01*
X1737Y910D02*
X1750Y910D01*
X1784Y910D02*
X1807Y910D01*
X7Y909D02*
X14Y909D01*
X693Y909D02*
X706Y909D01*
X823Y909D02*
X836Y909D01*
X1093Y909D02*
X1106Y909D01*
X1223Y909D02*
X1236Y909D01*
X1320Y909D02*
X1327Y909D01*
X1382Y909D02*
X1399Y909D01*
X1440Y909D02*
X1467Y909D01*
X1492Y909D02*
X1525Y909D01*
X1557Y909D02*
X1578Y909D01*
X1606Y909D02*
X1611Y909D01*
X1621Y909D02*
X1637Y909D01*
X1671Y909D02*
X1692Y909D01*
X1720Y909D02*
X1726Y909D01*
X1736Y909D02*
X1752Y909D01*
X1782Y909D02*
X1809Y909D01*
X7Y908D02*
X14Y908D01*
X694Y908D02*
X707Y908D01*
X822Y908D02*
X835Y908D01*
X1094Y908D02*
X1107Y908D01*
X1221Y908D02*
X1235Y908D01*
X1320Y908D02*
X1327Y908D01*
X1381Y908D02*
X1399Y908D01*
X1438Y908D02*
X1469Y908D01*
X1491Y908D02*
X1525Y908D01*
X1556Y908D02*
X1579Y908D01*
X1606Y908D02*
X1612Y908D01*
X1620Y908D02*
X1638Y908D01*
X1670Y908D02*
X1693Y908D01*
X1720Y908D02*
X1726Y908D01*
X1735Y908D02*
X1753Y908D01*
X1781Y908D02*
X1811Y908D01*
X7Y907D02*
X14Y907D01*
X695Y907D02*
X709Y907D01*
X820Y907D02*
X834Y907D01*
X1095Y907D02*
X1109Y907D01*
X1220Y907D02*
X1234Y907D01*
X1320Y907D02*
X1327Y907D01*
X1381Y907D02*
X1400Y907D01*
X1437Y907D02*
X1470Y907D01*
X1491Y907D02*
X1525Y907D01*
X1554Y907D02*
X1580Y907D01*
X1605Y907D02*
X1612Y907D01*
X1618Y907D02*
X1639Y907D01*
X1669Y907D02*
X1695Y907D01*
X1719Y907D02*
X1726Y907D01*
X1733Y907D02*
X1754Y907D01*
X1780Y907D02*
X1812Y907D01*
X7Y906D02*
X14Y906D01*
X696Y906D02*
X710Y906D01*
X819Y906D02*
X833Y906D01*
X1096Y906D02*
X1110Y906D01*
X1219Y906D02*
X1233Y906D01*
X1320Y906D02*
X1327Y906D01*
X1381Y906D02*
X1400Y906D01*
X1437Y906D02*
X1470Y906D01*
X1491Y906D02*
X1525Y906D01*
X1553Y906D02*
X1582Y906D01*
X1605Y906D02*
X1612Y906D01*
X1617Y906D02*
X1640Y906D01*
X1667Y906D02*
X1696Y906D01*
X1719Y906D02*
X1726Y906D01*
X1732Y906D02*
X1755Y906D01*
X1779Y906D02*
X1813Y906D01*
X7Y905D02*
X14Y905D01*
X697Y905D02*
X712Y905D01*
X817Y905D02*
X832Y905D01*
X1097Y905D02*
X1112Y905D01*
X1217Y905D02*
X1232Y905D01*
X1320Y905D02*
X1327Y905D01*
X1381Y905D02*
X1400Y905D01*
X1436Y905D02*
X1471Y905D01*
X1492Y905D02*
X1525Y905D01*
X1552Y905D02*
X1583Y905D01*
X1605Y905D02*
X1612Y905D01*
X1615Y905D02*
X1641Y905D01*
X1666Y905D02*
X1697Y905D01*
X1719Y905D02*
X1726Y905D01*
X1731Y905D02*
X1756Y905D01*
X1778Y905D02*
X1814Y905D01*
X7Y904D02*
X14Y904D01*
X698Y904D02*
X713Y904D01*
X816Y904D02*
X831Y904D01*
X1098Y904D02*
X1113Y904D01*
X1215Y904D02*
X1230Y904D01*
X1320Y904D02*
X1327Y904D01*
X1382Y904D02*
X1400Y904D01*
X1436Y904D02*
X1472Y904D01*
X1492Y904D02*
X1525Y904D01*
X1551Y904D02*
X1584Y904D01*
X1605Y904D02*
X1641Y904D01*
X1665Y904D02*
X1698Y904D01*
X1719Y904D02*
X1726Y904D01*
X1730Y904D02*
X1757Y904D01*
X1778Y904D02*
X1814Y904D01*
X7Y903D02*
X14Y903D01*
X700Y903D02*
X715Y903D01*
X814Y903D02*
X829Y903D01*
X1100Y903D02*
X1115Y903D01*
X1214Y903D02*
X1229Y903D01*
X1320Y903D02*
X1327Y903D01*
X1383Y903D02*
X1400Y903D01*
X1435Y903D02*
X1472Y903D01*
X1493Y903D02*
X1523Y903D01*
X1550Y903D02*
X1585Y903D01*
X1605Y903D02*
X1642Y903D01*
X1665Y903D02*
X1699Y903D01*
X1719Y903D02*
X1726Y903D01*
X1729Y903D02*
X1757Y903D01*
X1778Y903D02*
X1814Y903D01*
X7Y902D02*
X14Y902D01*
X701Y902D02*
X717Y902D01*
X812Y902D02*
X828Y902D01*
X1101Y902D02*
X1117Y902D01*
X1212Y902D02*
X1228Y902D01*
X1320Y902D02*
X1327Y902D01*
X1393Y902D02*
X1400Y902D01*
X1435Y902D02*
X1443Y902D01*
X1464Y902D02*
X1471Y902D01*
X1499Y902D02*
X1506Y902D01*
X1550Y902D02*
X1560Y902D01*
X1575Y902D02*
X1585Y902D01*
X1605Y902D02*
X1624Y902D01*
X1634Y902D02*
X1642Y902D01*
X1664Y902D02*
X1674Y902D01*
X1689Y902D02*
X1699Y902D01*
X1719Y902D02*
X1739Y902D01*
X1749Y902D02*
X1757Y902D01*
X1778Y902D02*
X1785Y902D01*
X1806Y902D02*
X1814Y902D01*
X7Y901D02*
X14Y901D01*
X702Y901D02*
X718Y901D01*
X810Y901D02*
X827Y901D01*
X1102Y901D02*
X1118Y901D01*
X1210Y901D02*
X1227Y901D01*
X1320Y901D02*
X1327Y901D01*
X1393Y901D02*
X1400Y901D01*
X1435Y901D02*
X1442Y901D01*
X1465Y901D02*
X1471Y901D01*
X1499Y901D02*
X1506Y901D01*
X1549Y901D02*
X1558Y901D01*
X1577Y901D02*
X1586Y901D01*
X1605Y901D02*
X1623Y901D01*
X1635Y901D02*
X1642Y901D01*
X1663Y901D02*
X1673Y901D01*
X1691Y901D02*
X1700Y901D01*
X1719Y901D02*
X1738Y901D01*
X1750Y901D02*
X1758Y901D01*
X1777Y901D02*
X1784Y901D01*
X1808Y901D02*
X1813Y901D01*
X7Y900D02*
X14Y900D01*
X704Y900D02*
X720Y900D01*
X809Y900D02*
X825Y900D01*
X1103Y900D02*
X1120Y900D01*
X1208Y900D02*
X1225Y900D01*
X1320Y900D02*
X1327Y900D01*
X1393Y900D02*
X1400Y900D01*
X1435Y900D02*
X1442Y900D01*
X1466Y900D02*
X1470Y900D01*
X1499Y900D02*
X1506Y900D01*
X1549Y900D02*
X1557Y900D01*
X1578Y900D02*
X1586Y900D01*
X1605Y900D02*
X1621Y900D01*
X1635Y900D02*
X1643Y900D01*
X1663Y900D02*
X1672Y900D01*
X1692Y900D02*
X1700Y900D01*
X1719Y900D02*
X1737Y900D01*
X1751Y900D02*
X1758Y900D01*
X1778Y900D02*
X1784Y900D01*
X1809Y900D02*
X1812Y900D01*
X7Y899D02*
X14Y899D01*
X705Y899D02*
X722Y899D01*
X807Y899D02*
X824Y899D01*
X1105Y899D02*
X1122Y899D01*
X1206Y899D02*
X1224Y899D01*
X1320Y899D02*
X1327Y899D01*
X1393Y899D02*
X1400Y899D01*
X1435Y899D02*
X1442Y899D01*
X1499Y899D02*
X1506Y899D01*
X1549Y899D02*
X1556Y899D01*
X1579Y899D02*
X1586Y899D01*
X1605Y899D02*
X1620Y899D01*
X1636Y899D02*
X1643Y899D01*
X1663Y899D02*
X1670Y899D01*
X1693Y899D02*
X1700Y899D01*
X1719Y899D02*
X1735Y899D01*
X1751Y899D02*
X1758Y899D01*
X1778Y899D02*
X1785Y899D01*
X7Y898D02*
X14Y898D01*
X706Y898D02*
X725Y898D01*
X804Y898D02*
X823Y898D01*
X1106Y898D02*
X1124Y898D01*
X1204Y898D02*
X1222Y898D01*
X1320Y898D02*
X1327Y898D01*
X1393Y898D02*
X1400Y898D01*
X1435Y898D02*
X1444Y898D01*
X1499Y898D02*
X1506Y898D01*
X1548Y898D02*
X1556Y898D01*
X1579Y898D02*
X1586Y898D01*
X1605Y898D02*
X1618Y898D01*
X1636Y898D02*
X1643Y898D01*
X1663Y898D02*
X1670Y898D01*
X1693Y898D02*
X1701Y898D01*
X1719Y898D02*
X1734Y898D01*
X1751Y898D02*
X1758Y898D01*
X1778Y898D02*
X1787Y898D01*
X7Y897D02*
X14Y897D01*
X708Y897D02*
X727Y897D01*
X802Y897D02*
X821Y897D01*
X1108Y897D02*
X1127Y897D01*
X1202Y897D02*
X1221Y897D01*
X1320Y897D02*
X1327Y897D01*
X1393Y897D02*
X1400Y897D01*
X1436Y897D02*
X1447Y897D01*
X1499Y897D02*
X1506Y897D01*
X1548Y897D02*
X1555Y897D01*
X1580Y897D02*
X1587Y897D01*
X1605Y897D02*
X1616Y897D01*
X1636Y897D02*
X1643Y897D01*
X1662Y897D02*
X1669Y897D01*
X1694Y897D02*
X1701Y897D01*
X1719Y897D02*
X1733Y897D01*
X1751Y897D02*
X1758Y897D01*
X1778Y897D02*
X1789Y897D01*
X7Y896D02*
X14Y896D01*
X709Y896D02*
X729Y896D01*
X799Y896D02*
X820Y896D01*
X1109Y896D02*
X1129Y896D01*
X1199Y896D02*
X1219Y896D01*
X1320Y896D02*
X1327Y896D01*
X1393Y896D02*
X1400Y896D01*
X1436Y896D02*
X1449Y896D01*
X1499Y896D02*
X1506Y896D01*
X1548Y896D02*
X1555Y896D01*
X1580Y896D02*
X1587Y896D01*
X1605Y896D02*
X1615Y896D01*
X1636Y896D02*
X1643Y896D01*
X1662Y896D02*
X1669Y896D01*
X1694Y896D02*
X1701Y896D01*
X1719Y896D02*
X1732Y896D01*
X1751Y896D02*
X1758Y896D01*
X1779Y896D02*
X1791Y896D01*
X7Y895D02*
X14Y895D01*
X711Y895D02*
X732Y895D01*
X797Y895D02*
X818Y895D01*
X1111Y895D02*
X1132Y895D01*
X1197Y895D02*
X1218Y895D01*
X1320Y895D02*
X1327Y895D01*
X1393Y895D02*
X1400Y895D01*
X1437Y895D02*
X1451Y895D01*
X1499Y895D02*
X1506Y895D01*
X1548Y895D02*
X1555Y895D01*
X1580Y895D02*
X1587Y895D01*
X1605Y895D02*
X1613Y895D01*
X1636Y895D02*
X1643Y895D01*
X1662Y895D02*
X1669Y895D01*
X1694Y895D02*
X1701Y895D01*
X1719Y895D02*
X1731Y895D01*
X1751Y895D02*
X1757Y895D01*
X1779Y895D02*
X1794Y895D01*
X7Y894D02*
X14Y894D01*
X713Y894D02*
X735Y894D01*
X794Y894D02*
X816Y894D01*
X1113Y894D02*
X1135Y894D01*
X1194Y894D02*
X1216Y894D01*
X1320Y894D02*
X1327Y894D01*
X1393Y894D02*
X1400Y894D01*
X1437Y894D02*
X1454Y894D01*
X1499Y894D02*
X1506Y894D01*
X1548Y894D02*
X1555Y894D01*
X1580Y894D02*
X1587Y894D01*
X1605Y894D02*
X1612Y894D01*
X1636Y894D02*
X1643Y894D01*
X1662Y894D02*
X1669Y894D01*
X1694Y894D02*
X1701Y894D01*
X1719Y894D02*
X1730Y894D01*
X1752Y894D02*
X1757Y894D01*
X1780Y894D02*
X1796Y894D01*
X7Y893D02*
X14Y893D01*
X714Y893D02*
X739Y893D01*
X790Y893D02*
X815Y893D01*
X1114Y893D02*
X1139Y893D01*
X1190Y893D02*
X1214Y893D01*
X1320Y893D02*
X1327Y893D01*
X1393Y893D02*
X1400Y893D01*
X1438Y893D02*
X1456Y893D01*
X1499Y893D02*
X1506Y893D01*
X1548Y893D02*
X1555Y893D01*
X1580Y893D02*
X1587Y893D01*
X1605Y893D02*
X1612Y893D01*
X1636Y893D02*
X1643Y893D01*
X1662Y893D02*
X1669Y893D01*
X1694Y893D02*
X1701Y893D01*
X1719Y893D02*
X1728Y893D01*
X1753Y893D02*
X1756Y893D01*
X1781Y893D02*
X1798Y893D01*
X7Y892D02*
X14Y892D01*
X716Y892D02*
X743Y892D01*
X786Y892D02*
X813Y892D01*
X1116Y892D02*
X1143Y892D01*
X1186Y892D02*
X1213Y892D01*
X1320Y892D02*
X1327Y892D01*
X1393Y892D02*
X1400Y892D01*
X1440Y892D02*
X1458Y892D01*
X1499Y892D02*
X1506Y892D01*
X1548Y892D02*
X1555Y892D01*
X1580Y892D02*
X1587Y892D01*
X1605Y892D02*
X1612Y892D01*
X1636Y892D02*
X1643Y892D01*
X1662Y892D02*
X1669Y892D01*
X1694Y892D02*
X1701Y892D01*
X1719Y892D02*
X1727Y892D01*
X1782Y892D02*
X1801Y892D01*
X7Y891D02*
X14Y891D01*
X718Y891D02*
X748Y891D01*
X781Y891D02*
X811Y891D01*
X1118Y891D02*
X1148Y891D01*
X1181Y891D02*
X1211Y891D01*
X1320Y891D02*
X1327Y891D01*
X1393Y891D02*
X1400Y891D01*
X1441Y891D02*
X1460Y891D01*
X1499Y891D02*
X1506Y891D01*
X1548Y891D02*
X1555Y891D01*
X1580Y891D02*
X1587Y891D01*
X1605Y891D02*
X1612Y891D01*
X1636Y891D02*
X1643Y891D01*
X1662Y891D02*
X1669Y891D01*
X1694Y891D02*
X1701Y891D01*
X1719Y891D02*
X1726Y891D01*
X1784Y891D02*
X1803Y891D01*
X7Y890D02*
X14Y890D01*
X720Y890D02*
X757Y890D01*
X772Y890D02*
X809Y890D01*
X1120Y890D02*
X1157Y890D01*
X1172Y890D02*
X1209Y890D01*
X1320Y890D02*
X1327Y890D01*
X1393Y890D02*
X1400Y890D01*
X1444Y890D02*
X1463Y890D01*
X1499Y890D02*
X1506Y890D01*
X1548Y890D02*
X1587Y890D01*
X1605Y890D02*
X1612Y890D01*
X1636Y890D02*
X1643Y890D01*
X1662Y890D02*
X1701Y890D01*
X1719Y890D02*
X1726Y890D01*
X1786Y890D02*
X1805Y890D01*
X7Y889D02*
X14Y889D01*
X722Y889D02*
X807Y889D01*
X1122Y889D02*
X1206Y889D01*
X1320Y889D02*
X1327Y889D01*
X1393Y889D02*
X1400Y889D01*
X1446Y889D02*
X1465Y889D01*
X1499Y889D02*
X1506Y889D01*
X1548Y889D02*
X1587Y889D01*
X1605Y889D02*
X1612Y889D01*
X1636Y889D02*
X1643Y889D01*
X1662Y889D02*
X1701Y889D01*
X1719Y889D02*
X1726Y889D01*
X1788Y889D02*
X1808Y889D01*
X7Y888D02*
X14Y888D01*
X725Y888D02*
X804Y888D01*
X1124Y888D02*
X1204Y888D01*
X1320Y888D02*
X1327Y888D01*
X1393Y888D02*
X1400Y888D01*
X1448Y888D02*
X1467Y888D01*
X1499Y888D02*
X1506Y888D01*
X1548Y888D02*
X1587Y888D01*
X1605Y888D02*
X1612Y888D01*
X1636Y888D02*
X1643Y888D01*
X1662Y888D02*
X1701Y888D01*
X1719Y888D02*
X1726Y888D01*
X1791Y888D02*
X1809Y888D01*
X7Y887D02*
X14Y887D01*
X727Y887D02*
X802Y887D01*
X1127Y887D02*
X1202Y887D01*
X1320Y887D02*
X1327Y887D01*
X1393Y887D02*
X1400Y887D01*
X1451Y887D02*
X1468Y887D01*
X1499Y887D02*
X1506Y887D01*
X1548Y887D02*
X1587Y887D01*
X1605Y887D02*
X1612Y887D01*
X1636Y887D02*
X1643Y887D01*
X1662Y887D02*
X1701Y887D01*
X1719Y887D02*
X1726Y887D01*
X1793Y887D02*
X1811Y887D01*
X7Y886D02*
X14Y886D01*
X730Y886D02*
X799Y886D01*
X1130Y886D02*
X1199Y886D01*
X1320Y886D02*
X1327Y886D01*
X1393Y886D02*
X1400Y886D01*
X1453Y886D02*
X1469Y886D01*
X1499Y886D02*
X1506Y886D01*
X1548Y886D02*
X1587Y886D01*
X1605Y886D02*
X1612Y886D01*
X1636Y886D02*
X1643Y886D01*
X1662Y886D02*
X1701Y886D01*
X1719Y886D02*
X1726Y886D01*
X1795Y886D02*
X1812Y886D01*
X7Y885D02*
X14Y885D01*
X733Y885D02*
X796Y885D01*
X1132Y885D02*
X1196Y885D01*
X1320Y885D02*
X1327Y885D01*
X1393Y885D02*
X1400Y885D01*
X1455Y885D02*
X1470Y885D01*
X1499Y885D02*
X1506Y885D01*
X1548Y885D02*
X1586Y885D01*
X1605Y885D02*
X1612Y885D01*
X1636Y885D02*
X1643Y885D01*
X1662Y885D02*
X1700Y885D01*
X1719Y885D02*
X1726Y885D01*
X1798Y885D02*
X1812Y885D01*
X7Y884D02*
X14Y884D01*
X736Y884D02*
X793Y884D01*
X1136Y884D02*
X1193Y884D01*
X1320Y884D02*
X1327Y884D01*
X1393Y884D02*
X1400Y884D01*
X1458Y884D02*
X1471Y884D01*
X1499Y884D02*
X1506Y884D01*
X1548Y884D02*
X1586Y884D01*
X1605Y884D02*
X1612Y884D01*
X1636Y884D02*
X1643Y884D01*
X1662Y884D02*
X1700Y884D01*
X1719Y884D02*
X1726Y884D01*
X1800Y884D02*
X1813Y884D01*
X7Y883D02*
X14Y883D01*
X739Y883D02*
X790Y883D01*
X1139Y883D02*
X1190Y883D01*
X1320Y883D02*
X1327Y883D01*
X1393Y883D02*
X1400Y883D01*
X1460Y883D02*
X1471Y883D01*
X1499Y883D02*
X1506Y883D01*
X1548Y883D02*
X1584Y883D01*
X1605Y883D02*
X1612Y883D01*
X1636Y883D02*
X1643Y883D01*
X1662Y883D02*
X1699Y883D01*
X1719Y883D02*
X1726Y883D01*
X1802Y883D02*
X1814Y883D01*
X7Y882D02*
X14Y882D01*
X744Y882D02*
X785Y882D01*
X1143Y882D02*
X1185Y882D01*
X1320Y882D02*
X1327Y882D01*
X1393Y882D02*
X1400Y882D01*
X1462Y882D02*
X1472Y882D01*
X1499Y882D02*
X1506Y882D01*
X1548Y882D02*
X1555Y882D01*
X1605Y882D02*
X1612Y882D01*
X1636Y882D02*
X1643Y882D01*
X1662Y882D02*
X1669Y882D01*
X1719Y882D02*
X1726Y882D01*
X1805Y882D02*
X1814Y882D01*
X7Y881D02*
X14Y881D01*
X749Y881D02*
X780Y881D01*
X1149Y881D02*
X1180Y881D01*
X1320Y881D02*
X1327Y881D01*
X1393Y881D02*
X1400Y881D01*
X1464Y881D02*
X1472Y881D01*
X1499Y881D02*
X1506Y881D01*
X1548Y881D02*
X1555Y881D01*
X1605Y881D02*
X1612Y881D01*
X1636Y881D02*
X1643Y881D01*
X1662Y881D02*
X1669Y881D01*
X1719Y881D02*
X1726Y881D01*
X1806Y881D02*
X1814Y881D01*
X7Y880D02*
X14Y880D01*
X758Y880D02*
X771Y880D01*
X1158Y880D02*
X1171Y880D01*
X1320Y880D02*
X1327Y880D01*
X1393Y880D02*
X1400Y880D01*
X1465Y880D02*
X1472Y880D01*
X1499Y880D02*
X1506Y880D01*
X1525Y880D02*
X1527Y880D01*
X1548Y880D02*
X1555Y880D01*
X1605Y880D02*
X1612Y880D01*
X1636Y880D02*
X1643Y880D01*
X1662Y880D02*
X1669Y880D01*
X1719Y880D02*
X1726Y880D01*
X1807Y880D02*
X1815Y880D01*
X7Y879D02*
X14Y879D01*
X1320Y879D02*
X1327Y879D01*
X1393Y879D02*
X1400Y879D01*
X1465Y879D02*
X1472Y879D01*
X1499Y879D02*
X1506Y879D01*
X1524Y879D02*
X1529Y879D01*
X1548Y879D02*
X1555Y879D01*
X1605Y879D02*
X1612Y879D01*
X1636Y879D02*
X1643Y879D01*
X1662Y879D02*
X1670Y879D01*
X1719Y879D02*
X1726Y879D01*
X1808Y879D02*
X1815Y879D01*
X7Y878D02*
X14Y878D01*
X1320Y878D02*
X1327Y878D01*
X1393Y878D02*
X1400Y878D01*
X1465Y878D02*
X1472Y878D01*
X1499Y878D02*
X1506Y878D01*
X1523Y878D02*
X1529Y878D01*
X1548Y878D02*
X1556Y878D01*
X1605Y878D02*
X1612Y878D01*
X1636Y878D02*
X1643Y878D01*
X1663Y878D02*
X1670Y878D01*
X1719Y878D02*
X1726Y878D01*
X1808Y878D02*
X1815Y878D01*
X7Y877D02*
X14Y877D01*
X1320Y877D02*
X1327Y877D01*
X1393Y877D02*
X1400Y877D01*
X1437Y877D02*
X1438Y877D01*
X1465Y877D02*
X1472Y877D01*
X1499Y877D02*
X1506Y877D01*
X1523Y877D02*
X1529Y877D01*
X1549Y877D02*
X1557Y877D01*
X1605Y877D02*
X1612Y877D01*
X1636Y877D02*
X1643Y877D01*
X1663Y877D02*
X1671Y877D01*
X1719Y877D02*
X1726Y877D01*
X1780Y877D02*
X1780Y877D01*
X1808Y877D02*
X1815Y877D01*
X7Y876D02*
X14Y876D01*
X1320Y876D02*
X1327Y876D01*
X1393Y876D02*
X1400Y876D01*
X1435Y876D02*
X1440Y876D01*
X1465Y876D02*
X1472Y876D01*
X1499Y876D02*
X1506Y876D01*
X1522Y876D02*
X1530Y876D01*
X1549Y876D02*
X1558Y876D01*
X1605Y876D02*
X1612Y876D01*
X1636Y876D02*
X1643Y876D01*
X1663Y876D02*
X1672Y876D01*
X1719Y876D02*
X1726Y876D01*
X1778Y876D02*
X1782Y876D01*
X1807Y876D02*
X1815Y876D01*
X7Y875D02*
X14Y875D01*
X1320Y875D02*
X1327Y875D01*
X1393Y875D02*
X1400Y875D01*
X1435Y875D02*
X1441Y875D01*
X1464Y875D02*
X1472Y875D01*
X1499Y875D02*
X1507Y875D01*
X1521Y875D02*
X1529Y875D01*
X1549Y875D02*
X1559Y875D01*
X1605Y875D02*
X1612Y875D01*
X1636Y875D02*
X1643Y875D01*
X1663Y875D02*
X1673Y875D01*
X1719Y875D02*
X1726Y875D01*
X1777Y875D02*
X1784Y875D01*
X1807Y875D02*
X1814Y875D01*
X7Y874D02*
X14Y874D01*
X1320Y874D02*
X1327Y874D01*
X1393Y874D02*
X1400Y874D01*
X1434Y874D02*
X1443Y874D01*
X1463Y874D02*
X1472Y874D01*
X1500Y874D02*
X1508Y874D01*
X1520Y874D02*
X1529Y874D01*
X1550Y874D02*
X1561Y874D01*
X1605Y874D02*
X1612Y874D01*
X1637Y874D02*
X1643Y874D01*
X1664Y874D02*
X1675Y874D01*
X1719Y874D02*
X1726Y874D01*
X1777Y874D02*
X1786Y874D01*
X1805Y874D02*
X1814Y874D01*
X7Y873D02*
X14Y873D01*
X1320Y873D02*
X1357Y873D01*
X1383Y873D02*
X1410Y873D01*
X1434Y873D02*
X1471Y873D01*
X1500Y873D02*
X1529Y873D01*
X1550Y873D02*
X1585Y873D01*
X1605Y873D02*
X1612Y873D01*
X1637Y873D02*
X1643Y873D01*
X1665Y873D02*
X1699Y873D01*
X1719Y873D02*
X1726Y873D01*
X1777Y873D02*
X1814Y873D01*
X7Y872D02*
X14Y872D01*
X1320Y872D02*
X1358Y872D01*
X1382Y872D02*
X1411Y872D01*
X1434Y872D02*
X1471Y872D01*
X1500Y872D02*
X1528Y872D01*
X1551Y872D02*
X1586Y872D01*
X1605Y872D02*
X1612Y872D01*
X1637Y872D02*
X1644Y872D01*
X1665Y872D02*
X1700Y872D01*
X1719Y872D02*
X1726Y872D01*
X1777Y872D02*
X1813Y872D01*
X7Y871D02*
X14Y871D01*
X1320Y871D02*
X1358Y871D01*
X1381Y871D02*
X1411Y871D01*
X1435Y871D02*
X1470Y871D01*
X1501Y871D02*
X1527Y871D01*
X1552Y871D02*
X1586Y871D01*
X1605Y871D02*
X1612Y871D01*
X1637Y871D02*
X1644Y871D01*
X1667Y871D02*
X1701Y871D01*
X1719Y871D02*
X1726Y871D01*
X1777Y871D02*
X1813Y871D01*
X7Y870D02*
X14Y870D01*
X1320Y870D02*
X1358Y870D01*
X1381Y870D02*
X1411Y870D01*
X1436Y870D02*
X1469Y870D01*
X1502Y870D02*
X1527Y870D01*
X1554Y870D02*
X1587Y870D01*
X1605Y870D02*
X1612Y870D01*
X1637Y870D02*
X1644Y870D01*
X1668Y870D02*
X1701Y870D01*
X1719Y870D02*
X1726Y870D01*
X1778Y870D02*
X1812Y870D01*
X7Y869D02*
X14Y869D01*
X1320Y869D02*
X1358Y869D01*
X1381Y869D02*
X1411Y869D01*
X1437Y869D02*
X1468Y869D01*
X1503Y869D02*
X1526Y869D01*
X1555Y869D02*
X1587Y869D01*
X1605Y869D02*
X1612Y869D01*
X1637Y869D02*
X1643Y869D01*
X1669Y869D02*
X1701Y869D01*
X1720Y869D02*
X1726Y869D01*
X1779Y869D02*
X1811Y869D01*
X7Y868D02*
X14Y868D01*
X1320Y868D02*
X1358Y868D01*
X1381Y868D02*
X1411Y868D01*
X1438Y868D02*
X1467Y868D01*
X1504Y868D02*
X1524Y868D01*
X1556Y868D02*
X1586Y868D01*
X1606Y868D02*
X1612Y868D01*
X1637Y868D02*
X1643Y868D01*
X1670Y868D02*
X1700Y868D01*
X1720Y868D02*
X1726Y868D01*
X1781Y868D02*
X1810Y868D01*
X7Y867D02*
X14Y867D01*
X1320Y867D02*
X1357Y867D01*
X1382Y867D02*
X1410Y867D01*
X1440Y867D02*
X1466Y867D01*
X1506Y867D02*
X1523Y867D01*
X1558Y867D02*
X1585Y867D01*
X1606Y867D02*
X1611Y867D01*
X1638Y867D02*
X1642Y867D01*
X1672Y867D02*
X1700Y867D01*
X1721Y867D02*
X1725Y867D01*
X1783Y867D02*
X1808Y867D01*
X7Y866D02*
X14Y866D01*
X1320Y866D02*
X1356Y866D01*
X1384Y866D02*
X1409Y866D01*
X1444Y866D02*
X1463Y866D01*
X1508Y866D02*
X1520Y866D01*
X1560Y866D02*
X1584Y866D01*
X1608Y866D02*
X1610Y866D01*
X1639Y866D02*
X1641Y866D01*
X1675Y866D02*
X1698Y866D01*
X1722Y866D02*
X1724Y866D01*
X1786Y866D02*
X1805Y866D01*
X7Y865D02*
X14Y865D01*
X7Y864D02*
X14Y864D01*
X7Y863D02*
X14Y863D01*
X7Y862D02*
X14Y862D01*
X7Y861D02*
X14Y861D01*
X7Y860D02*
X14Y860D01*
X7Y859D02*
X14Y859D01*
X7Y858D02*
X14Y858D01*
X7Y857D02*
X14Y857D01*
X7Y856D02*
X14Y856D01*
X7Y855D02*
X14Y855D01*
X7Y854D02*
X14Y854D01*
X7Y853D02*
X14Y853D01*
X7Y852D02*
X14Y852D01*
X7Y851D02*
X14Y851D01*
X7Y850D02*
X14Y850D01*
X7Y849D02*
X14Y849D01*
X7Y848D02*
X14Y848D01*
X7Y847D02*
X14Y847D01*
X7Y846D02*
X14Y846D01*
X7Y845D02*
X14Y845D01*
X7Y844D02*
X14Y844D01*
X116Y844D02*
X117Y844D01*
X1608Y844D02*
X1612Y844D01*
X7Y843D02*
X14Y843D01*
X115Y843D02*
X118Y843D01*
X1320Y843D02*
X1326Y843D01*
X1491Y843D02*
X1497Y843D01*
X1519Y843D02*
X1526Y843D01*
X1608Y843D02*
X1613Y843D01*
X1647Y843D02*
X1648Y843D01*
X7Y842D02*
X14Y842D01*
X114Y842D02*
X119Y842D01*
X1319Y842D02*
X1327Y842D01*
X1490Y842D02*
X1498Y842D01*
X1518Y842D02*
X1527Y842D01*
X1608Y842D02*
X1613Y842D01*
X1646Y842D02*
X1649Y842D01*
X7Y841D02*
X14Y841D01*
X114Y841D02*
X120Y841D01*
X1318Y841D02*
X1327Y841D01*
X1490Y841D02*
X1498Y841D01*
X1518Y841D02*
X1527Y841D01*
X1608Y841D02*
X1613Y841D01*
X1646Y841D02*
X1649Y841D01*
X7Y840D02*
X14Y840D01*
X115Y840D02*
X120Y840D01*
X1319Y840D02*
X1327Y840D01*
X1490Y840D02*
X1498Y840D01*
X1519Y840D02*
X1527Y840D01*
X1608Y840D02*
X1612Y840D01*
X1646Y840D02*
X1649Y840D01*
X7Y839D02*
X14Y839D01*
X116Y839D02*
X120Y839D01*
X1324Y839D02*
X1327Y839D01*
X1495Y839D02*
X1498Y839D01*
X1524Y839D02*
X1527Y839D01*
X1646Y839D02*
X1649Y839D01*
X7Y838D02*
X14Y838D01*
X117Y838D02*
X120Y838D01*
X1324Y838D02*
X1327Y838D01*
X1495Y838D02*
X1498Y838D01*
X1524Y838D02*
X1527Y838D01*
X1646Y838D02*
X1649Y838D01*
X7Y837D02*
X14Y837D01*
X118Y837D02*
X120Y837D01*
X1324Y837D02*
X1327Y837D01*
X1495Y837D02*
X1498Y837D01*
X1524Y837D02*
X1527Y837D01*
X1646Y837D02*
X1649Y837D01*
X7Y836D02*
X14Y836D01*
X119Y836D02*
X120Y836D01*
X1324Y836D02*
X1327Y836D01*
X1495Y836D02*
X1498Y836D01*
X1524Y836D02*
X1527Y836D01*
X1646Y836D02*
X1649Y836D01*
X7Y835D02*
X14Y835D01*
X120Y835D02*
X120Y835D01*
X1324Y835D02*
X1327Y835D01*
X1495Y835D02*
X1498Y835D01*
X1524Y835D02*
X1527Y835D01*
X1646Y835D02*
X1649Y835D01*
X7Y834D02*
X14Y834D01*
X1324Y834D02*
X1327Y834D01*
X1349Y834D02*
X1359Y834D01*
X1376Y834D02*
X1389Y834D01*
X1405Y834D02*
X1418Y834D01*
X1431Y834D02*
X1433Y834D01*
X1439Y834D02*
X1446Y834D01*
X1460Y834D02*
X1462Y834D01*
X1475Y834D02*
X1477Y834D01*
X1495Y834D02*
X1498Y834D01*
X1524Y834D02*
X1527Y834D01*
X1545Y834D02*
X1547Y834D01*
X1561Y834D02*
X1563Y834D01*
X1578Y834D02*
X1587Y834D01*
X1604Y834D02*
X1612Y834D01*
X1635Y834D02*
X1642Y834D01*
X1646Y834D02*
X1649Y834D01*
X1694Y834D02*
X1706Y834D01*
X1722Y834D02*
X1734Y834D01*
X7Y833D02*
X14Y833D01*
X1324Y833D02*
X1327Y833D01*
X1348Y833D02*
X1361Y833D01*
X1375Y833D02*
X1391Y833D01*
X1404Y833D02*
X1419Y833D01*
X1431Y833D02*
X1434Y833D01*
X1437Y833D02*
X1447Y833D01*
X1459Y833D02*
X1462Y833D01*
X1475Y833D02*
X1478Y833D01*
X1495Y833D02*
X1498Y833D01*
X1524Y833D02*
X1527Y833D01*
X1545Y833D02*
X1548Y833D01*
X1560Y833D02*
X1563Y833D01*
X1576Y833D02*
X1589Y833D01*
X1604Y833D02*
X1613Y833D01*
X1633Y833D02*
X1644Y833D01*
X1646Y833D02*
X1649Y833D01*
X1692Y833D02*
X1706Y833D01*
X1721Y833D02*
X1734Y833D01*
X7Y832D02*
X14Y832D01*
X1324Y832D02*
X1327Y832D01*
X1347Y832D02*
X1362Y832D01*
X1374Y832D02*
X1391Y832D01*
X1403Y832D02*
X1420Y832D01*
X1431Y832D02*
X1448Y832D01*
X1459Y832D02*
X1462Y832D01*
X1475Y832D02*
X1478Y832D01*
X1495Y832D02*
X1498Y832D01*
X1524Y832D02*
X1527Y832D01*
X1545Y832D02*
X1548Y832D01*
X1560Y832D02*
X1563Y832D01*
X1575Y832D02*
X1590Y832D01*
X1604Y832D02*
X1613Y832D01*
X1632Y832D02*
X1649Y832D01*
X1691Y832D02*
X1706Y832D01*
X1720Y832D02*
X1734Y832D01*
X7Y831D02*
X14Y831D01*
X1324Y831D02*
X1327Y831D01*
X1346Y831D02*
X1363Y831D01*
X1374Y831D02*
X1392Y831D01*
X1403Y831D02*
X1420Y831D01*
X1431Y831D02*
X1448Y831D01*
X1459Y831D02*
X1462Y831D01*
X1475Y831D02*
X1478Y831D01*
X1495Y831D02*
X1498Y831D01*
X1524Y831D02*
X1527Y831D01*
X1545Y831D02*
X1548Y831D01*
X1560Y831D02*
X1563Y831D01*
X1574Y831D02*
X1591Y831D01*
X1605Y831D02*
X1613Y831D01*
X1631Y831D02*
X1649Y831D01*
X1690Y831D02*
X1705Y831D01*
X1719Y831D02*
X1733Y831D01*
X7Y830D02*
X14Y830D01*
X1324Y830D02*
X1327Y830D01*
X1345Y830D02*
X1350Y830D01*
X1359Y830D02*
X1363Y830D01*
X1374Y830D02*
X1377Y830D01*
X1389Y830D02*
X1391Y830D01*
X1402Y830D02*
X1406Y830D01*
X1418Y830D02*
X1420Y830D01*
X1431Y830D02*
X1439Y830D01*
X1445Y830D02*
X1449Y830D01*
X1459Y830D02*
X1462Y830D01*
X1475Y830D02*
X1478Y830D01*
X1495Y830D02*
X1498Y830D01*
X1524Y830D02*
X1527Y830D01*
X1545Y830D02*
X1548Y830D01*
X1560Y830D02*
X1563Y830D01*
X1574Y830D02*
X1578Y830D01*
X1587Y830D02*
X1591Y830D01*
X1610Y830D02*
X1613Y830D01*
X1631Y830D02*
X1635Y830D01*
X1642Y830D02*
X1649Y830D01*
X1689Y830D02*
X1694Y830D01*
X1717Y830D02*
X1723Y830D01*
X7Y829D02*
X14Y829D01*
X1324Y829D02*
X1327Y829D01*
X1345Y829D02*
X1349Y829D01*
X1360Y829D02*
X1363Y829D01*
X1374Y829D02*
X1377Y829D01*
X1403Y829D02*
X1406Y829D01*
X1431Y829D02*
X1437Y829D01*
X1446Y829D02*
X1449Y829D01*
X1459Y829D02*
X1462Y829D01*
X1475Y829D02*
X1478Y829D01*
X1495Y829D02*
X1498Y829D01*
X1524Y829D02*
X1527Y829D01*
X1545Y829D02*
X1548Y829D01*
X1560Y829D02*
X1563Y829D01*
X1573Y829D02*
X1577Y829D01*
X1588Y829D02*
X1592Y829D01*
X1610Y829D02*
X1613Y829D01*
X1630Y829D02*
X1634Y829D01*
X1643Y829D02*
X1649Y829D01*
X1688Y829D02*
X1693Y829D01*
X1717Y829D02*
X1721Y829D01*
X7Y828D02*
X14Y828D01*
X1324Y828D02*
X1327Y828D01*
X1345Y828D02*
X1348Y828D01*
X1361Y828D02*
X1364Y828D01*
X1374Y828D02*
X1379Y828D01*
X1403Y828D02*
X1408Y828D01*
X1431Y828D02*
X1436Y828D01*
X1446Y828D02*
X1449Y828D01*
X1459Y828D02*
X1462Y828D01*
X1475Y828D02*
X1478Y828D01*
X1495Y828D02*
X1498Y828D01*
X1524Y828D02*
X1527Y828D01*
X1545Y828D02*
X1548Y828D01*
X1560Y828D02*
X1563Y828D01*
X1573Y828D02*
X1576Y828D01*
X1589Y828D02*
X1592Y828D01*
X1610Y828D02*
X1613Y828D01*
X1630Y828D02*
X1633Y828D01*
X1645Y828D02*
X1649Y828D01*
X1688Y828D02*
X1692Y828D01*
X1716Y828D02*
X1720Y828D01*
X7Y827D02*
X14Y827D01*
X1324Y827D02*
X1327Y827D01*
X1345Y827D02*
X1348Y827D01*
X1361Y827D02*
X1364Y827D01*
X1375Y827D02*
X1382Y827D01*
X1403Y827D02*
X1410Y827D01*
X1431Y827D02*
X1434Y827D01*
X1446Y827D02*
X1449Y827D01*
X1459Y827D02*
X1462Y827D01*
X1475Y827D02*
X1478Y827D01*
X1495Y827D02*
X1498Y827D01*
X1524Y827D02*
X1527Y827D01*
X1546Y827D02*
X1549Y827D01*
X1559Y827D02*
X1562Y827D01*
X1573Y827D02*
X1576Y827D01*
X1589Y827D02*
X1592Y827D01*
X1610Y827D02*
X1613Y827D01*
X1630Y827D02*
X1633Y827D01*
X1646Y827D02*
X1649Y827D01*
X1687Y827D02*
X1691Y827D01*
X1716Y827D02*
X1719Y827D01*
X7Y826D02*
X14Y826D01*
X1324Y826D02*
X1327Y826D01*
X1345Y826D02*
X1348Y826D01*
X1361Y826D02*
X1364Y826D01*
X1376Y826D02*
X1384Y826D01*
X1404Y826D02*
X1412Y826D01*
X1431Y826D02*
X1434Y826D01*
X1446Y826D02*
X1449Y826D01*
X1459Y826D02*
X1462Y826D01*
X1475Y826D02*
X1478Y826D01*
X1495Y826D02*
X1498Y826D01*
X1524Y826D02*
X1527Y826D01*
X1546Y826D02*
X1549Y826D01*
X1559Y826D02*
X1562Y826D01*
X1573Y826D02*
X1576Y826D01*
X1589Y826D02*
X1592Y826D01*
X1610Y826D02*
X1613Y826D01*
X1630Y826D02*
X1633Y826D01*
X1646Y826D02*
X1649Y826D01*
X1687Y826D02*
X1690Y826D01*
X1716Y826D02*
X1719Y826D01*
X7Y825D02*
X14Y825D01*
X1324Y825D02*
X1327Y825D01*
X1345Y825D02*
X1348Y825D01*
X1360Y825D02*
X1364Y825D01*
X1377Y825D02*
X1386Y825D01*
X1406Y825D02*
X1415Y825D01*
X1431Y825D02*
X1434Y825D01*
X1446Y825D02*
X1449Y825D01*
X1459Y825D02*
X1462Y825D01*
X1475Y825D02*
X1478Y825D01*
X1495Y825D02*
X1498Y825D01*
X1524Y825D02*
X1527Y825D01*
X1546Y825D02*
X1550Y825D01*
X1558Y825D02*
X1562Y825D01*
X1573Y825D02*
X1576Y825D01*
X1589Y825D02*
X1592Y825D01*
X1610Y825D02*
X1613Y825D01*
X1630Y825D02*
X1633Y825D01*
X1646Y825D02*
X1649Y825D01*
X1687Y825D02*
X1690Y825D01*
X1716Y825D02*
X1719Y825D01*
X7Y824D02*
X14Y824D01*
X1324Y824D02*
X1327Y824D01*
X1345Y824D02*
X1364Y824D01*
X1379Y824D02*
X1388Y824D01*
X1408Y824D02*
X1417Y824D01*
X1431Y824D02*
X1434Y824D01*
X1446Y824D02*
X1449Y824D01*
X1459Y824D02*
X1462Y824D01*
X1475Y824D02*
X1478Y824D01*
X1495Y824D02*
X1498Y824D01*
X1524Y824D02*
X1527Y824D01*
X1547Y824D02*
X1550Y824D01*
X1558Y824D02*
X1561Y824D01*
X1573Y824D02*
X1576Y824D01*
X1589Y824D02*
X1592Y824D01*
X1610Y824D02*
X1613Y824D01*
X1630Y824D02*
X1633Y824D01*
X1646Y824D02*
X1649Y824D01*
X1665Y824D02*
X1671Y824D01*
X1687Y824D02*
X1690Y824D01*
X1716Y824D02*
X1719Y824D01*
X7Y823D02*
X14Y823D01*
X1324Y823D02*
X1327Y823D01*
X1345Y823D02*
X1364Y823D01*
X1382Y823D02*
X1390Y823D01*
X1410Y823D02*
X1419Y823D01*
X1431Y823D02*
X1434Y823D01*
X1446Y823D02*
X1449Y823D01*
X1459Y823D02*
X1462Y823D01*
X1475Y823D02*
X1478Y823D01*
X1495Y823D02*
X1498Y823D01*
X1524Y823D02*
X1527Y823D01*
X1547Y823D02*
X1551Y823D01*
X1557Y823D02*
X1561Y823D01*
X1573Y823D02*
X1576Y823D01*
X1589Y823D02*
X1592Y823D01*
X1610Y823D02*
X1613Y823D01*
X1630Y823D02*
X1633Y823D01*
X1646Y823D02*
X1649Y823D01*
X1665Y823D02*
X1672Y823D01*
X1687Y823D02*
X1690Y823D01*
X1716Y823D02*
X1719Y823D01*
X7Y822D02*
X14Y822D01*
X1324Y822D02*
X1327Y822D01*
X1345Y822D02*
X1363Y822D01*
X1384Y822D02*
X1391Y822D01*
X1413Y822D02*
X1419Y822D01*
X1431Y822D02*
X1434Y822D01*
X1446Y822D02*
X1449Y822D01*
X1459Y822D02*
X1462Y822D01*
X1475Y822D02*
X1478Y822D01*
X1495Y822D02*
X1498Y822D01*
X1524Y822D02*
X1527Y822D01*
X1548Y822D02*
X1551Y822D01*
X1557Y822D02*
X1560Y822D01*
X1573Y822D02*
X1576Y822D01*
X1589Y822D02*
X1592Y822D01*
X1610Y822D02*
X1613Y822D01*
X1630Y822D02*
X1633Y822D01*
X1646Y822D02*
X1649Y822D01*
X1665Y822D02*
X1672Y822D01*
X1687Y822D02*
X1690Y822D01*
X1716Y822D02*
X1719Y822D01*
X7Y821D02*
X14Y821D01*
X1324Y821D02*
X1327Y821D01*
X1345Y821D02*
X1363Y821D01*
X1386Y821D02*
X1392Y821D01*
X1415Y821D02*
X1420Y821D01*
X1431Y821D02*
X1434Y821D01*
X1446Y821D02*
X1449Y821D01*
X1459Y821D02*
X1462Y821D01*
X1475Y821D02*
X1478Y821D01*
X1495Y821D02*
X1498Y821D01*
X1524Y821D02*
X1527Y821D01*
X1548Y821D02*
X1552Y821D01*
X1556Y821D02*
X1560Y821D01*
X1573Y821D02*
X1576Y821D01*
X1589Y821D02*
X1592Y821D01*
X1610Y821D02*
X1613Y821D01*
X1630Y821D02*
X1633Y821D01*
X1646Y821D02*
X1649Y821D01*
X1665Y821D02*
X1672Y821D01*
X1687Y821D02*
X1690Y821D01*
X1716Y821D02*
X1719Y821D01*
X7Y820D02*
X14Y820D01*
X1324Y820D02*
X1327Y820D01*
X1345Y820D02*
X1348Y820D01*
X1388Y820D02*
X1392Y820D01*
X1417Y820D02*
X1420Y820D01*
X1431Y820D02*
X1434Y820D01*
X1446Y820D02*
X1449Y820D01*
X1459Y820D02*
X1462Y820D01*
X1474Y820D02*
X1478Y820D01*
X1495Y820D02*
X1498Y820D01*
X1524Y820D02*
X1527Y820D01*
X1549Y820D02*
X1552Y820D01*
X1556Y820D02*
X1559Y820D01*
X1573Y820D02*
X1576Y820D01*
X1589Y820D02*
X1592Y820D01*
X1610Y820D02*
X1613Y820D01*
X1630Y820D02*
X1633Y820D01*
X1645Y820D02*
X1649Y820D01*
X1665Y820D02*
X1672Y820D01*
X1687Y820D02*
X1691Y820D01*
X1716Y820D02*
X1719Y820D01*
X7Y819D02*
X14Y819D01*
X1324Y819D02*
X1327Y819D01*
X1345Y819D02*
X1348Y819D01*
X1389Y819D02*
X1392Y819D01*
X1417Y819D02*
X1421Y819D01*
X1431Y819D02*
X1434Y819D01*
X1446Y819D02*
X1449Y819D01*
X1460Y819D02*
X1463Y819D01*
X1472Y819D02*
X1478Y819D01*
X1495Y819D02*
X1498Y819D01*
X1524Y819D02*
X1527Y819D01*
X1549Y819D02*
X1552Y819D01*
X1556Y819D02*
X1559Y819D01*
X1573Y819D02*
X1576Y819D01*
X1589Y819D02*
X1592Y819D01*
X1610Y819D02*
X1613Y819D01*
X1630Y819D02*
X1633Y819D01*
X1644Y819D02*
X1649Y819D01*
X1665Y819D02*
X1672Y819D01*
X1688Y819D02*
X1692Y819D01*
X1716Y819D02*
X1720Y819D01*
X7Y818D02*
X14Y818D01*
X1324Y818D02*
X1327Y818D01*
X1345Y818D02*
X1349Y818D01*
X1375Y818D02*
X1375Y818D01*
X1389Y818D02*
X1392Y818D01*
X1417Y818D02*
X1421Y818D01*
X1431Y818D02*
X1434Y818D01*
X1446Y818D02*
X1449Y818D01*
X1460Y818D02*
X1463Y818D01*
X1471Y818D02*
X1478Y818D01*
X1495Y818D02*
X1498Y818D01*
X1524Y818D02*
X1527Y818D01*
X1549Y818D02*
X1553Y818D01*
X1555Y818D02*
X1558Y818D01*
X1573Y818D02*
X1577Y818D01*
X1588Y818D02*
X1592Y818D01*
X1610Y818D02*
X1613Y818D01*
X1630Y818D02*
X1634Y818D01*
X1643Y818D02*
X1649Y818D01*
X1665Y818D02*
X1671Y818D01*
X1688Y818D02*
X1693Y818D01*
X1717Y818D02*
X1722Y818D01*
X7Y817D02*
X14Y817D01*
X1324Y817D02*
X1327Y817D01*
X1345Y817D02*
X1350Y817D01*
X1374Y817D02*
X1377Y817D01*
X1388Y817D02*
X1392Y817D01*
X1402Y817D02*
X1405Y817D01*
X1417Y817D02*
X1420Y817D01*
X1431Y817D02*
X1434Y817D01*
X1446Y817D02*
X1449Y817D01*
X1460Y817D02*
X1463Y817D01*
X1469Y817D02*
X1478Y817D01*
X1495Y817D02*
X1498Y817D01*
X1524Y817D02*
X1527Y817D01*
X1550Y817D02*
X1558Y817D01*
X1574Y817D02*
X1578Y817D01*
X1587Y817D02*
X1591Y817D01*
X1610Y817D02*
X1613Y817D01*
X1631Y817D02*
X1635Y817D01*
X1642Y817D02*
X1649Y817D01*
X1689Y817D02*
X1694Y817D01*
X1718Y817D02*
X1723Y817D01*
X7Y816D02*
X14Y816D01*
X1319Y816D02*
X1332Y816D01*
X1346Y816D02*
X1363Y816D01*
X1373Y816D02*
X1392Y816D01*
X1402Y816D02*
X1420Y816D01*
X1431Y816D02*
X1434Y816D01*
X1446Y816D02*
X1449Y816D01*
X1460Y816D02*
X1478Y816D01*
X1490Y816D02*
X1503Y816D01*
X1519Y816D02*
X1532Y816D01*
X1550Y816D02*
X1558Y816D01*
X1574Y816D02*
X1591Y816D01*
X1605Y816D02*
X1618Y816D01*
X1631Y816D02*
X1649Y816D01*
X1690Y816D02*
X1705Y816D01*
X1719Y816D02*
X1734Y816D01*
X7Y815D02*
X14Y815D01*
X1318Y815D02*
X1333Y815D01*
X1347Y815D02*
X1363Y815D01*
X1374Y815D02*
X1391Y815D01*
X1402Y815D02*
X1420Y815D01*
X1431Y815D02*
X1434Y815D01*
X1446Y815D02*
X1449Y815D01*
X1461Y815D02*
X1473Y815D01*
X1475Y815D02*
X1478Y815D01*
X1490Y815D02*
X1504Y815D01*
X1518Y815D02*
X1533Y815D01*
X1551Y815D02*
X1557Y815D01*
X1575Y815D02*
X1590Y815D01*
X1604Y815D02*
X1618Y815D01*
X1632Y815D02*
X1649Y815D01*
X1691Y815D02*
X1706Y815D01*
X1720Y815D02*
X1734Y815D01*
X7Y814D02*
X14Y814D01*
X141Y814D02*
X147Y814D01*
X1318Y814D02*
X1333Y814D01*
X1348Y814D02*
X1364Y814D01*
X1375Y814D02*
X1390Y814D01*
X1403Y814D02*
X1419Y814D01*
X1431Y814D02*
X1433Y814D01*
X1446Y814D02*
X1449Y814D01*
X1461Y814D02*
X1471Y814D01*
X1475Y814D02*
X1478Y814D01*
X1490Y814D02*
X1504Y814D01*
X1518Y814D02*
X1533Y814D01*
X1551Y814D02*
X1557Y814D01*
X1576Y814D02*
X1589Y814D01*
X1604Y814D02*
X1618Y814D01*
X1633Y814D02*
X1644Y814D01*
X1646Y814D02*
X1649Y814D01*
X1693Y814D02*
X1706Y814D01*
X1721Y814D02*
X1734Y814D01*
X7Y813D02*
X14Y813D01*
X142Y813D02*
X148Y813D01*
X1319Y813D02*
X1332Y813D01*
X1350Y813D02*
X1363Y813D01*
X1377Y813D02*
X1389Y813D01*
X1405Y813D02*
X1417Y813D01*
X1431Y813D02*
X1433Y813D01*
X1447Y813D02*
X1449Y813D01*
X1463Y813D02*
X1469Y813D01*
X1475Y813D02*
X1477Y813D01*
X1490Y813D02*
X1504Y813D01*
X1519Y813D02*
X1532Y813D01*
X1552Y813D02*
X1556Y813D01*
X1578Y813D02*
X1587Y813D01*
X1604Y813D02*
X1618Y813D01*
X1635Y813D02*
X1642Y813D01*
X1647Y813D02*
X1648Y813D01*
X1694Y813D02*
X1705Y813D01*
X1723Y813D02*
X1734Y813D01*
X7Y812D02*
X14Y812D01*
X143Y812D02*
X149Y812D01*
X7Y811D02*
X14Y811D01*
X144Y811D02*
X150Y811D01*
X7Y810D02*
X14Y810D01*
X145Y810D02*
X151Y810D01*
X7Y809D02*
X14Y809D01*
X146Y809D02*
X150Y809D01*
X7Y808D02*
X14Y808D01*
X147Y808D02*
X149Y808D01*
X7Y807D02*
X14Y807D01*
X7Y806D02*
X14Y806D01*
X7Y805D02*
X14Y805D01*
X7Y804D02*
X14Y804D01*
X7Y803D02*
X14Y803D01*
X7Y802D02*
X14Y802D01*
X7Y801D02*
X14Y801D01*
X7Y800D02*
X14Y800D01*
X7Y799D02*
X14Y799D01*
X7Y798D02*
X14Y798D01*
X7Y797D02*
X14Y797D01*
X7Y796D02*
X14Y796D01*
X7Y795D02*
X14Y795D01*
X7Y794D02*
X14Y794D01*
X7Y793D02*
X14Y793D01*
X7Y792D02*
X14Y792D01*
X7Y791D02*
X14Y791D01*
X7Y790D02*
X14Y790D01*
X7Y789D02*
X14Y789D01*
X7Y788D02*
X14Y788D01*
X7Y787D02*
X14Y787D01*
X7Y786D02*
X14Y786D01*
X7Y785D02*
X14Y785D01*
X7Y784D02*
X14Y784D01*
X7Y783D02*
X14Y783D01*
X7Y782D02*
X14Y782D01*
X7Y781D02*
X14Y781D01*
X7Y780D02*
X14Y780D01*
X7Y779D02*
X14Y779D01*
X7Y778D02*
X14Y778D01*
X7Y777D02*
X14Y777D01*
X7Y776D02*
X14Y776D01*
X7Y775D02*
X14Y775D01*
X7Y774D02*
X14Y774D01*
X7Y773D02*
X14Y773D01*
X7Y772D02*
X14Y772D01*
X7Y771D02*
X14Y771D01*
X7Y770D02*
X14Y770D01*
X7Y769D02*
X14Y769D01*
X7Y768D02*
X14Y768D01*
X7Y767D02*
X14Y767D01*
X7Y766D02*
X14Y766D01*
X7Y765D02*
X14Y765D01*
X7Y764D02*
X14Y764D01*
X7Y763D02*
X14Y763D01*
X7Y762D02*
X14Y762D01*
X7Y761D02*
X14Y761D01*
X7Y760D02*
X14Y760D01*
X7Y759D02*
X14Y759D01*
X7Y758D02*
X14Y758D01*
X7Y757D02*
X14Y757D01*
X7Y756D02*
X14Y756D01*
X7Y755D02*
X14Y755D01*
X7Y754D02*
X14Y754D01*
X7Y753D02*
X14Y753D01*
X7Y752D02*
X14Y752D01*
X7Y751D02*
X14Y751D01*
X7Y750D02*
X14Y750D01*
X7Y749D02*
X14Y749D01*
X7Y748D02*
X14Y748D01*
X7Y747D02*
X14Y747D01*
X7Y746D02*
X14Y746D01*
X7Y745D02*
X14Y745D01*
X7Y744D02*
X14Y744D01*
X7Y743D02*
X14Y743D01*
X7Y742D02*
X14Y742D01*
X710Y742D02*
X719Y742D01*
X7Y741D02*
X14Y741D01*
X710Y741D02*
X719Y741D01*
X1285Y741D02*
X1294Y741D01*
X7Y740D02*
X14Y740D01*
X710Y740D02*
X719Y740D01*
X1285Y740D02*
X1294Y740D01*
X7Y739D02*
X14Y739D01*
X710Y739D02*
X719Y739D01*
X1285Y739D02*
X1294Y739D01*
X7Y738D02*
X14Y738D01*
X710Y738D02*
X719Y738D01*
X1285Y738D02*
X1294Y738D01*
X7Y737D02*
X14Y737D01*
X710Y737D02*
X719Y737D01*
X1285Y737D02*
X1294Y737D01*
X7Y736D02*
X14Y736D01*
X710Y736D02*
X719Y736D01*
X1285Y736D02*
X1294Y736D01*
X7Y735D02*
X14Y735D01*
X710Y735D02*
X719Y735D01*
X1285Y735D02*
X1294Y735D01*
X1472Y735D02*
X1475Y735D01*
X1507Y735D02*
X1509Y735D01*
X1635Y735D02*
X1637Y735D01*
X1669Y735D02*
X1672Y735D01*
X7Y734D02*
X14Y734D01*
X710Y734D02*
X719Y734D01*
X1285Y734D02*
X1294Y734D01*
X1472Y734D02*
X1476Y734D01*
X1506Y734D02*
X1510Y734D01*
X1634Y734D02*
X1638Y734D01*
X1668Y734D02*
X1672Y734D01*
X7Y733D02*
X14Y733D01*
X710Y733D02*
X719Y733D01*
X1285Y733D02*
X1294Y733D01*
X1471Y733D02*
X1476Y733D01*
X1505Y733D02*
X1510Y733D01*
X1634Y733D02*
X1639Y733D01*
X1668Y733D02*
X1673Y733D01*
X7Y732D02*
X14Y732D01*
X710Y732D02*
X719Y732D01*
X1285Y732D02*
X1294Y732D01*
X1470Y732D02*
X1475Y732D01*
X1504Y732D02*
X1509Y732D01*
X1634Y732D02*
X1640Y732D01*
X1669Y732D02*
X1674Y732D01*
X7Y731D02*
X14Y731D01*
X710Y731D02*
X719Y731D01*
X1285Y731D02*
X1294Y731D01*
X1469Y731D02*
X1474Y731D01*
X1504Y731D02*
X1509Y731D01*
X1635Y731D02*
X1640Y731D01*
X1670Y731D02*
X1675Y731D01*
X7Y730D02*
X14Y730D01*
X710Y730D02*
X719Y730D01*
X1285Y730D02*
X1294Y730D01*
X1468Y730D02*
X1474Y730D01*
X1503Y730D02*
X1508Y730D01*
X1636Y730D02*
X1641Y730D01*
X1670Y730D02*
X1675Y730D01*
X7Y729D02*
X14Y729D01*
X710Y729D02*
X719Y729D01*
X1285Y729D02*
X1294Y729D01*
X1468Y729D02*
X1473Y729D01*
X1502Y729D02*
X1507Y729D01*
X1637Y729D02*
X1642Y729D01*
X1671Y729D02*
X1676Y729D01*
X7Y728D02*
X14Y728D01*
X710Y728D02*
X719Y728D01*
X1285Y728D02*
X1294Y728D01*
X1467Y728D02*
X1472Y728D01*
X1501Y728D02*
X1506Y728D01*
X1638Y728D02*
X1643Y728D01*
X1672Y728D02*
X1677Y728D01*
X7Y727D02*
X14Y727D01*
X710Y727D02*
X719Y727D01*
X1285Y727D02*
X1294Y727D01*
X1466Y727D02*
X1471Y727D01*
X1501Y727D02*
X1506Y727D01*
X1638Y727D02*
X1643Y727D01*
X1673Y727D02*
X1678Y727D01*
X7Y726D02*
X14Y726D01*
X710Y726D02*
X719Y726D01*
X1285Y726D02*
X1294Y726D01*
X1466Y726D02*
X1470Y726D01*
X1500Y726D02*
X1505Y726D01*
X1639Y726D02*
X1644Y726D01*
X1673Y726D02*
X1678Y726D01*
X7Y725D02*
X14Y725D01*
X710Y725D02*
X719Y725D01*
X1285Y725D02*
X1294Y725D01*
X1465Y725D02*
X1470Y725D01*
X1500Y725D02*
X1504Y725D01*
X1640Y725D02*
X1644Y725D01*
X1674Y725D02*
X1679Y725D01*
X7Y724D02*
X14Y724D01*
X710Y724D02*
X719Y724D01*
X1285Y724D02*
X1294Y724D01*
X1465Y724D02*
X1469Y724D01*
X1499Y724D02*
X1503Y724D01*
X1641Y724D02*
X1645Y724D01*
X1675Y724D02*
X1679Y724D01*
X7Y723D02*
X14Y723D01*
X710Y723D02*
X719Y723D01*
X1285Y723D02*
X1294Y723D01*
X1465Y723D02*
X1469Y723D01*
X1499Y723D02*
X1503Y723D01*
X1641Y723D02*
X1645Y723D01*
X1675Y723D02*
X1679Y723D01*
X7Y722D02*
X14Y722D01*
X710Y722D02*
X719Y722D01*
X1285Y722D02*
X1294Y722D01*
X1465Y722D02*
X1469Y722D01*
X1499Y722D02*
X1503Y722D01*
X1641Y722D02*
X1645Y722D01*
X1675Y722D02*
X1679Y722D01*
X7Y721D02*
X14Y721D01*
X710Y721D02*
X719Y721D01*
X1285Y721D02*
X1294Y721D01*
X1465Y721D02*
X1469Y721D01*
X1499Y721D02*
X1503Y721D01*
X1641Y721D02*
X1645Y721D01*
X1675Y721D02*
X1679Y721D01*
X7Y720D02*
X14Y720D01*
X710Y720D02*
X719Y720D01*
X1285Y720D02*
X1294Y720D01*
X1465Y720D02*
X1469Y720D01*
X1499Y720D02*
X1503Y720D01*
X1641Y720D02*
X1645Y720D01*
X1675Y720D02*
X1679Y720D01*
X7Y719D02*
X14Y719D01*
X710Y719D02*
X719Y719D01*
X820Y719D02*
X822Y719D01*
X848Y719D02*
X850Y719D01*
X870Y719D02*
X888Y719D01*
X1285Y719D02*
X1294Y719D01*
X1465Y719D02*
X1469Y719D01*
X1499Y719D02*
X1503Y719D01*
X1561Y719D02*
X1583Y719D01*
X1641Y719D02*
X1645Y719D01*
X1675Y719D02*
X1679Y719D01*
X7Y718D02*
X14Y718D01*
X710Y718D02*
X719Y718D01*
X819Y718D02*
X823Y718D01*
X846Y718D02*
X851Y718D01*
X869Y718D02*
X888Y718D01*
X1285Y718D02*
X1294Y718D01*
X1465Y718D02*
X1469Y718D01*
X1499Y718D02*
X1503Y718D01*
X1561Y718D02*
X1583Y718D01*
X1641Y718D02*
X1645Y718D01*
X1675Y718D02*
X1679Y718D01*
X7Y717D02*
X14Y717D01*
X710Y717D02*
X719Y717D01*
X818Y717D02*
X824Y717D01*
X846Y717D02*
X851Y717D01*
X869Y717D02*
X888Y717D01*
X1285Y717D02*
X1294Y717D01*
X1465Y717D02*
X1469Y717D01*
X1499Y717D02*
X1503Y717D01*
X1561Y717D02*
X1583Y717D01*
X1641Y717D02*
X1645Y717D01*
X1675Y717D02*
X1679Y717D01*
X7Y716D02*
X14Y716D01*
X710Y716D02*
X719Y716D01*
X818Y716D02*
X824Y716D01*
X846Y716D02*
X852Y716D01*
X868Y716D02*
X888Y716D01*
X1285Y716D02*
X1294Y716D01*
X1465Y716D02*
X1469Y716D01*
X1499Y716D02*
X1503Y716D01*
X1561Y716D02*
X1583Y716D01*
X1641Y716D02*
X1645Y716D01*
X1675Y716D02*
X1679Y716D01*
X7Y715D02*
X14Y715D01*
X710Y715D02*
X719Y715D01*
X818Y715D02*
X824Y715D01*
X846Y715D02*
X852Y715D01*
X868Y715D02*
X888Y715D01*
X1285Y715D02*
X1294Y715D01*
X1465Y715D02*
X1469Y715D01*
X1499Y715D02*
X1503Y715D01*
X1561Y715D02*
X1583Y715D01*
X1641Y715D02*
X1645Y715D01*
X1675Y715D02*
X1679Y715D01*
X7Y714D02*
X14Y714D01*
X710Y714D02*
X719Y714D01*
X818Y714D02*
X824Y714D01*
X846Y714D02*
X852Y714D01*
X869Y714D02*
X888Y714D01*
X1285Y714D02*
X1294Y714D01*
X1465Y714D02*
X1469Y714D01*
X1499Y714D02*
X1503Y714D01*
X1561Y714D02*
X1583Y714D01*
X1641Y714D02*
X1645Y714D01*
X1675Y714D02*
X1679Y714D01*
X7Y713D02*
X14Y713D01*
X710Y713D02*
X719Y713D01*
X818Y713D02*
X824Y713D01*
X846Y713D02*
X852Y713D01*
X870Y713D02*
X888Y713D01*
X1285Y713D02*
X1294Y713D01*
X1465Y713D02*
X1469Y713D01*
X1499Y713D02*
X1503Y713D01*
X1563Y713D02*
X1581Y713D01*
X1641Y713D02*
X1645Y713D01*
X1675Y713D02*
X1679Y713D01*
X7Y712D02*
X14Y712D01*
X710Y712D02*
X719Y712D01*
X818Y712D02*
X824Y712D01*
X846Y712D02*
X852Y712D01*
X882Y712D02*
X888Y712D01*
X1285Y712D02*
X1294Y712D01*
X1465Y712D02*
X1469Y712D01*
X1499Y712D02*
X1503Y712D01*
X1641Y712D02*
X1645Y712D01*
X1675Y712D02*
X1679Y712D01*
X7Y711D02*
X14Y711D01*
X710Y711D02*
X719Y711D01*
X818Y711D02*
X824Y711D01*
X846Y711D02*
X852Y711D01*
X882Y711D02*
X888Y711D01*
X1285Y711D02*
X1294Y711D01*
X1465Y711D02*
X1469Y711D01*
X1499Y711D02*
X1503Y711D01*
X1641Y711D02*
X1645Y711D01*
X1675Y711D02*
X1679Y711D01*
X7Y710D02*
X14Y710D01*
X710Y710D02*
X719Y710D01*
X818Y710D02*
X824Y710D01*
X846Y710D02*
X852Y710D01*
X882Y710D02*
X888Y710D01*
X1285Y710D02*
X1294Y710D01*
X1465Y710D02*
X1470Y710D01*
X1500Y710D02*
X1504Y710D01*
X1640Y710D02*
X1644Y710D01*
X1674Y710D02*
X1679Y710D01*
X7Y709D02*
X14Y709D01*
X710Y709D02*
X719Y709D01*
X818Y709D02*
X824Y709D01*
X846Y709D02*
X852Y709D01*
X882Y709D02*
X888Y709D01*
X1285Y709D02*
X1294Y709D01*
X1466Y709D02*
X1470Y709D01*
X1500Y709D02*
X1505Y709D01*
X1639Y709D02*
X1644Y709D01*
X1674Y709D02*
X1678Y709D01*
X7Y708D02*
X14Y708D01*
X710Y708D02*
X719Y708D01*
X818Y708D02*
X824Y708D01*
X846Y708D02*
X852Y708D01*
X882Y708D02*
X888Y708D01*
X1285Y708D02*
X1294Y708D01*
X1466Y708D02*
X1471Y708D01*
X1500Y708D02*
X1505Y708D01*
X1639Y708D02*
X1644Y708D01*
X1673Y708D02*
X1678Y708D01*
X7Y707D02*
X14Y707D01*
X710Y707D02*
X719Y707D01*
X818Y707D02*
X824Y707D01*
X846Y707D02*
X852Y707D01*
X882Y707D02*
X888Y707D01*
X1285Y707D02*
X1294Y707D01*
X1467Y707D02*
X1472Y707D01*
X1501Y707D02*
X1506Y707D01*
X1638Y707D02*
X1643Y707D01*
X1672Y707D02*
X1677Y707D01*
X7Y706D02*
X14Y706D01*
X710Y706D02*
X719Y706D01*
X818Y706D02*
X824Y706D01*
X846Y706D02*
X852Y706D01*
X882Y706D02*
X888Y706D01*
X1285Y706D02*
X1294Y706D01*
X1468Y706D02*
X1473Y706D01*
X1502Y706D02*
X1507Y706D01*
X1637Y706D02*
X1642Y706D01*
X1671Y706D02*
X1676Y706D01*
X7Y705D02*
X14Y705D01*
X710Y705D02*
X719Y705D01*
X818Y705D02*
X824Y705D01*
X846Y705D02*
X852Y705D01*
X882Y705D02*
X888Y705D01*
X1285Y705D02*
X1294Y705D01*
X1468Y705D02*
X1473Y705D01*
X1503Y705D02*
X1508Y705D01*
X1636Y705D02*
X1641Y705D01*
X1671Y705D02*
X1676Y705D01*
X7Y704D02*
X14Y704D01*
X710Y704D02*
X719Y704D01*
X818Y704D02*
X824Y704D01*
X846Y704D02*
X852Y704D01*
X882Y704D02*
X888Y704D01*
X1285Y704D02*
X1294Y704D01*
X1469Y704D02*
X1474Y704D01*
X1503Y704D02*
X1509Y704D01*
X1635Y704D02*
X1641Y704D01*
X1670Y704D02*
X1675Y704D01*
X7Y703D02*
X14Y703D01*
X710Y703D02*
X719Y703D01*
X818Y703D02*
X824Y703D01*
X846Y703D02*
X852Y703D01*
X882Y703D02*
X888Y703D01*
X1285Y703D02*
X1294Y703D01*
X1470Y703D02*
X1475Y703D01*
X1504Y703D02*
X1509Y703D01*
X1635Y703D02*
X1640Y703D01*
X1669Y703D02*
X1674Y703D01*
X7Y702D02*
X14Y702D01*
X710Y702D02*
X719Y702D01*
X818Y702D02*
X824Y702D01*
X846Y702D02*
X852Y702D01*
X882Y702D02*
X888Y702D01*
X1285Y702D02*
X1294Y702D01*
X1471Y702D02*
X1476Y702D01*
X1505Y702D02*
X1510Y702D01*
X1634Y702D02*
X1639Y702D01*
X1668Y702D02*
X1673Y702D01*
X7Y701D02*
X14Y701D01*
X710Y701D02*
X719Y701D01*
X818Y701D02*
X824Y701D01*
X846Y701D02*
X852Y701D01*
X882Y701D02*
X888Y701D01*
X1285Y701D02*
X1294Y701D01*
X1471Y701D02*
X1476Y701D01*
X1506Y701D02*
X1510Y701D01*
X1634Y701D02*
X1638Y701D01*
X1668Y701D02*
X1672Y701D01*
X7Y700D02*
X14Y700D01*
X710Y700D02*
X719Y700D01*
X818Y700D02*
X824Y700D01*
X846Y700D02*
X852Y700D01*
X882Y700D02*
X888Y700D01*
X1285Y700D02*
X1294Y700D01*
X1472Y700D02*
X1475Y700D01*
X1507Y700D02*
X1510Y700D01*
X1634Y700D02*
X1637Y700D01*
X1669Y700D02*
X1672Y700D01*
X7Y699D02*
X14Y699D01*
X710Y699D02*
X719Y699D01*
X818Y699D02*
X824Y699D01*
X846Y699D02*
X852Y699D01*
X882Y699D02*
X888Y699D01*
X1285Y699D02*
X1294Y699D01*
X1474Y699D02*
X1474Y699D01*
X1508Y699D02*
X1508Y699D01*
X1636Y699D02*
X1636Y699D01*
X1670Y699D02*
X1670Y699D01*
X7Y698D02*
X14Y698D01*
X710Y698D02*
X719Y698D01*
X818Y698D02*
X824Y698D01*
X846Y698D02*
X852Y698D01*
X882Y698D02*
X888Y698D01*
X1285Y698D02*
X1294Y698D01*
X7Y697D02*
X14Y697D01*
X710Y697D02*
X719Y697D01*
X818Y697D02*
X824Y697D01*
X846Y697D02*
X852Y697D01*
X882Y697D02*
X888Y697D01*
X1285Y697D02*
X1294Y697D01*
X7Y696D02*
X14Y696D01*
X710Y696D02*
X719Y696D01*
X818Y696D02*
X824Y696D01*
X846Y696D02*
X852Y696D01*
X882Y696D02*
X888Y696D01*
X1285Y696D02*
X1294Y696D01*
X7Y695D02*
X14Y695D01*
X710Y695D02*
X719Y695D01*
X818Y695D02*
X824Y695D01*
X846Y695D02*
X852Y695D01*
X882Y695D02*
X888Y695D01*
X1285Y695D02*
X1294Y695D01*
X7Y694D02*
X14Y694D01*
X818Y694D02*
X824Y694D01*
X846Y694D02*
X852Y694D01*
X882Y694D02*
X888Y694D01*
X1285Y694D02*
X1294Y694D01*
X7Y693D02*
X14Y693D01*
X818Y693D02*
X824Y693D01*
X846Y693D02*
X852Y693D01*
X882Y693D02*
X888Y693D01*
X7Y692D02*
X14Y692D01*
X818Y692D02*
X824Y692D01*
X846Y692D02*
X852Y692D01*
X882Y692D02*
X888Y692D01*
X7Y691D02*
X14Y691D01*
X580Y691D02*
X607Y691D01*
X631Y691D02*
X660Y691D01*
X818Y691D02*
X824Y691D01*
X846Y691D02*
X852Y691D01*
X882Y691D02*
X888Y691D01*
X7Y690D02*
X14Y690D01*
X580Y690D02*
X608Y690D01*
X630Y690D02*
X661Y690D01*
X818Y690D02*
X824Y690D01*
X846Y690D02*
X852Y690D01*
X882Y690D02*
X888Y690D01*
X7Y689D02*
X14Y689D01*
X580Y689D02*
X610Y689D01*
X630Y689D02*
X662Y689D01*
X818Y689D02*
X824Y689D01*
X846Y689D02*
X852Y689D01*
X882Y689D02*
X888Y689D01*
X897Y689D02*
X901Y689D01*
X7Y688D02*
X14Y688D01*
X580Y688D02*
X611Y688D01*
X630Y688D02*
X663Y688D01*
X818Y688D02*
X824Y688D01*
X846Y688D02*
X852Y688D01*
X882Y688D02*
X888Y688D01*
X896Y688D02*
X901Y688D01*
X7Y687D02*
X14Y687D01*
X580Y687D02*
X611Y687D01*
X630Y687D02*
X663Y687D01*
X818Y687D02*
X824Y687D01*
X846Y687D02*
X852Y687D01*
X882Y687D02*
X888Y687D01*
X896Y687D02*
X902Y687D01*
X7Y686D02*
X14Y686D01*
X580Y686D02*
X612Y686D01*
X631Y686D02*
X663Y686D01*
X818Y686D02*
X824Y686D01*
X846Y686D02*
X852Y686D01*
X882Y686D02*
X888Y686D01*
X896Y686D02*
X902Y686D01*
X7Y685D02*
X14Y685D01*
X580Y685D02*
X612Y685D01*
X632Y685D02*
X663Y685D01*
X818Y685D02*
X824Y685D01*
X846Y685D02*
X852Y685D01*
X882Y685D02*
X888Y685D01*
X896Y685D02*
X902Y685D01*
X7Y684D02*
X14Y684D01*
X580Y684D02*
X586Y684D01*
X606Y684D02*
X613Y684D01*
X657Y684D02*
X663Y684D01*
X818Y684D02*
X824Y684D01*
X846Y684D02*
X852Y684D01*
X882Y684D02*
X888Y684D01*
X896Y684D02*
X902Y684D01*
X7Y683D02*
X14Y683D01*
X580Y683D02*
X586Y683D01*
X607Y683D02*
X613Y683D01*
X657Y683D02*
X663Y683D01*
X818Y683D02*
X824Y683D01*
X846Y683D02*
X852Y683D01*
X882Y683D02*
X888Y683D01*
X896Y683D02*
X902Y683D01*
X7Y682D02*
X14Y682D01*
X580Y682D02*
X586Y682D01*
X607Y682D02*
X613Y682D01*
X657Y682D02*
X663Y682D01*
X818Y682D02*
X824Y682D01*
X846Y682D02*
X852Y682D01*
X882Y682D02*
X888Y682D01*
X896Y682D02*
X902Y682D01*
X7Y681D02*
X14Y681D01*
X580Y681D02*
X586Y681D01*
X607Y681D02*
X613Y681D01*
X657Y681D02*
X663Y681D01*
X818Y681D02*
X824Y681D01*
X846Y681D02*
X852Y681D01*
X882Y681D02*
X888Y681D01*
X896Y681D02*
X902Y681D01*
X7Y680D02*
X14Y680D01*
X580Y680D02*
X586Y680D01*
X607Y680D02*
X613Y680D01*
X657Y680D02*
X663Y680D01*
X818Y680D02*
X824Y680D01*
X846Y680D02*
X852Y680D01*
X882Y680D02*
X888Y680D01*
X896Y680D02*
X902Y680D01*
X7Y679D02*
X14Y679D01*
X580Y679D02*
X586Y679D01*
X607Y679D02*
X613Y679D01*
X657Y679D02*
X663Y679D01*
X818Y679D02*
X824Y679D01*
X846Y679D02*
X852Y679D01*
X882Y679D02*
X888Y679D01*
X896Y679D02*
X902Y679D01*
X7Y678D02*
X14Y678D01*
X580Y678D02*
X586Y678D01*
X607Y678D02*
X613Y678D01*
X657Y678D02*
X663Y678D01*
X818Y678D02*
X824Y678D01*
X846Y678D02*
X852Y678D01*
X882Y678D02*
X888Y678D01*
X896Y678D02*
X902Y678D01*
X7Y677D02*
X14Y677D01*
X580Y677D02*
X586Y677D01*
X607Y677D02*
X613Y677D01*
X657Y677D02*
X663Y677D01*
X818Y677D02*
X824Y677D01*
X846Y677D02*
X852Y677D01*
X882Y677D02*
X888Y677D01*
X896Y677D02*
X902Y677D01*
X7Y676D02*
X14Y676D01*
X580Y676D02*
X586Y676D01*
X607Y676D02*
X613Y676D01*
X657Y676D02*
X663Y676D01*
X818Y676D02*
X824Y676D01*
X846Y676D02*
X852Y676D01*
X882Y676D02*
X888Y676D01*
X896Y676D02*
X902Y676D01*
X7Y675D02*
X14Y675D01*
X580Y675D02*
X586Y675D01*
X606Y675D02*
X613Y675D01*
X657Y675D02*
X663Y675D01*
X818Y675D02*
X824Y675D01*
X846Y675D02*
X852Y675D01*
X882Y675D02*
X888Y675D01*
X896Y675D02*
X902Y675D01*
X7Y674D02*
X14Y674D01*
X580Y674D02*
X612Y674D01*
X657Y674D02*
X663Y674D01*
X818Y674D02*
X825Y674D01*
X845Y674D02*
X852Y674D01*
X882Y674D02*
X888Y674D01*
X896Y674D02*
X902Y674D01*
X7Y673D02*
X14Y673D01*
X580Y673D02*
X612Y673D01*
X657Y673D02*
X663Y673D01*
X818Y673D02*
X825Y673D01*
X844Y673D02*
X851Y673D01*
X882Y673D02*
X888Y673D01*
X896Y673D02*
X902Y673D01*
X7Y672D02*
X14Y672D01*
X580Y672D02*
X611Y672D01*
X657Y672D02*
X663Y672D01*
X819Y672D02*
X851Y672D01*
X871Y672D02*
X902Y672D01*
X7Y671D02*
X14Y671D01*
X580Y671D02*
X611Y671D01*
X657Y671D02*
X663Y671D01*
X819Y671D02*
X851Y671D01*
X869Y671D02*
X902Y671D01*
X7Y670D02*
X14Y670D01*
X580Y670D02*
X610Y670D01*
X657Y670D02*
X663Y670D01*
X820Y670D02*
X850Y670D01*
X869Y670D02*
X902Y670D01*
X7Y669D02*
X14Y669D01*
X580Y669D02*
X608Y669D01*
X656Y669D02*
X663Y669D01*
X821Y669D02*
X849Y669D01*
X868Y669D02*
X902Y669D01*
X7Y668D02*
X14Y668D01*
X580Y668D02*
X607Y668D01*
X639Y668D02*
X663Y668D01*
X822Y668D02*
X848Y668D01*
X868Y668D02*
X902Y668D01*
X7Y667D02*
X14Y667D01*
X580Y667D02*
X586Y667D01*
X591Y667D02*
X599Y667D01*
X637Y667D02*
X662Y667D01*
X823Y667D02*
X847Y667D01*
X869Y667D02*
X901Y667D01*
X7Y666D02*
X14Y666D01*
X580Y666D02*
X586Y666D01*
X592Y666D02*
X599Y666D01*
X637Y666D02*
X662Y666D01*
X825Y666D02*
X845Y666D01*
X870Y666D02*
X901Y666D01*
X7Y665D02*
X14Y665D01*
X580Y665D02*
X586Y665D01*
X593Y665D02*
X600Y665D01*
X637Y665D02*
X661Y665D01*
X7Y664D02*
X14Y664D01*
X580Y664D02*
X586Y664D01*
X593Y664D02*
X600Y664D01*
X637Y664D02*
X661Y664D01*
X7Y663D02*
X14Y663D01*
X580Y663D02*
X586Y663D01*
X594Y663D02*
X601Y663D01*
X637Y663D02*
X662Y663D01*
X7Y662D02*
X14Y662D01*
X580Y662D02*
X586Y662D01*
X594Y662D02*
X602Y662D01*
X638Y662D02*
X662Y662D01*
X7Y661D02*
X14Y661D01*
X580Y661D02*
X586Y661D01*
X595Y661D02*
X602Y661D01*
X655Y661D02*
X663Y661D01*
X7Y660D02*
X14Y660D01*
X580Y660D02*
X586Y660D01*
X596Y660D02*
X603Y660D01*
X656Y660D02*
X663Y660D01*
X7Y659D02*
X14Y659D01*
X580Y659D02*
X586Y659D01*
X596Y659D02*
X603Y659D01*
X657Y659D02*
X663Y659D01*
X7Y658D02*
X14Y658D01*
X580Y658D02*
X586Y658D01*
X597Y658D02*
X604Y658D01*
X657Y658D02*
X663Y658D01*
X7Y657D02*
X14Y657D01*
X580Y657D02*
X586Y657D01*
X597Y657D02*
X604Y657D01*
X657Y657D02*
X663Y657D01*
X7Y656D02*
X14Y656D01*
X580Y656D02*
X586Y656D01*
X598Y656D02*
X605Y656D01*
X657Y656D02*
X663Y656D01*
X7Y655D02*
X14Y655D01*
X580Y655D02*
X586Y655D01*
X598Y655D02*
X606Y655D01*
X657Y655D02*
X663Y655D01*
X7Y654D02*
X14Y654D01*
X580Y654D02*
X586Y654D01*
X599Y654D02*
X606Y654D01*
X657Y654D02*
X663Y654D01*
X7Y653D02*
X14Y653D01*
X580Y653D02*
X586Y653D01*
X600Y653D02*
X607Y653D01*
X657Y653D02*
X663Y653D01*
X7Y652D02*
X14Y652D01*
X580Y652D02*
X586Y652D01*
X600Y652D02*
X607Y652D01*
X657Y652D02*
X663Y652D01*
X7Y651D02*
X14Y651D01*
X580Y651D02*
X586Y651D01*
X601Y651D02*
X608Y651D01*
X657Y651D02*
X663Y651D01*
X7Y650D02*
X14Y650D01*
X580Y650D02*
X586Y650D01*
X601Y650D02*
X609Y650D01*
X657Y650D02*
X663Y650D01*
X7Y649D02*
X14Y649D01*
X580Y649D02*
X586Y649D01*
X602Y649D02*
X609Y649D01*
X657Y649D02*
X663Y649D01*
X7Y648D02*
X14Y648D01*
X580Y648D02*
X586Y648D01*
X603Y648D02*
X610Y648D01*
X657Y648D02*
X663Y648D01*
X7Y647D02*
X14Y647D01*
X580Y647D02*
X586Y647D01*
X603Y647D02*
X610Y647D01*
X657Y647D02*
X663Y647D01*
X7Y646D02*
X14Y646D01*
X580Y646D02*
X586Y646D01*
X604Y646D02*
X611Y646D01*
X657Y646D02*
X663Y646D01*
X7Y645D02*
X14Y645D01*
X580Y645D02*
X586Y645D01*
X604Y645D02*
X611Y645D01*
X657Y645D02*
X663Y645D01*
X7Y644D02*
X14Y644D01*
X580Y644D02*
X586Y644D01*
X605Y644D02*
X612Y644D01*
X631Y644D02*
X663Y644D01*
X7Y643D02*
X14Y643D01*
X580Y643D02*
X586Y643D01*
X605Y643D02*
X613Y643D01*
X630Y643D02*
X663Y643D01*
X7Y642D02*
X14Y642D01*
X580Y642D02*
X586Y642D01*
X606Y642D02*
X613Y642D01*
X630Y642D02*
X663Y642D01*
X7Y641D02*
X14Y641D01*
X580Y641D02*
X586Y641D01*
X607Y641D02*
X613Y641D01*
X630Y641D02*
X662Y641D01*
X7Y640D02*
X14Y640D01*
X580Y640D02*
X585Y640D01*
X607Y640D02*
X613Y640D01*
X630Y640D02*
X661Y640D01*
X7Y639D02*
X14Y639D01*
X580Y639D02*
X585Y639D01*
X608Y639D02*
X612Y639D01*
X631Y639D02*
X660Y639D01*
X7Y638D02*
X14Y638D01*
X582Y638D02*
X583Y638D01*
X609Y638D02*
X611Y638D01*
X632Y638D02*
X658Y638D01*
X7Y637D02*
X14Y637D01*
X7Y636D02*
X14Y636D01*
X7Y635D02*
X14Y635D01*
X7Y634D02*
X14Y634D01*
X7Y633D02*
X14Y633D01*
X7Y632D02*
X14Y632D01*
X7Y631D02*
X14Y631D01*
X7Y630D02*
X14Y630D01*
X7Y629D02*
X14Y629D01*
X7Y628D02*
X14Y628D01*
X7Y627D02*
X14Y627D01*
X7Y626D02*
X14Y626D01*
X7Y625D02*
X14Y625D01*
X7Y624D02*
X14Y624D01*
X7Y623D02*
X14Y623D01*
X7Y622D02*
X14Y622D01*
X7Y621D02*
X14Y621D01*
X7Y620D02*
X14Y620D01*
X7Y619D02*
X14Y619D01*
X7Y618D02*
X14Y618D01*
X7Y617D02*
X14Y617D01*
X1335Y617D02*
X1359Y617D01*
X1388Y617D02*
X1404Y617D01*
X7Y616D02*
X14Y616D01*
X1335Y616D02*
X1362Y616D01*
X1386Y616D02*
X1405Y616D01*
X7Y615D02*
X14Y615D01*
X1335Y615D02*
X1364Y615D01*
X1385Y615D02*
X1405Y615D01*
X7Y614D02*
X14Y614D01*
X1335Y614D02*
X1365Y614D01*
X1385Y614D02*
X1405Y614D01*
X7Y613D02*
X14Y613D01*
X1335Y613D02*
X1366Y613D01*
X1385Y613D02*
X1405Y613D01*
X7Y612D02*
X14Y612D01*
X1335Y612D02*
X1367Y612D01*
X1385Y612D02*
X1405Y612D01*
X7Y611D02*
X14Y611D01*
X1335Y611D02*
X1367Y611D01*
X1386Y611D02*
X1405Y611D01*
X7Y610D02*
X14Y610D01*
X1335Y610D02*
X1341Y610D01*
X1359Y610D02*
X1368Y610D01*
X1398Y610D02*
X1405Y610D01*
X7Y609D02*
X14Y609D01*
X1335Y609D02*
X1341Y609D01*
X1361Y609D02*
X1368Y609D01*
X1399Y609D02*
X1405Y609D01*
X7Y608D02*
X14Y608D01*
X1335Y608D02*
X1341Y608D01*
X1362Y608D02*
X1368Y608D01*
X1399Y608D02*
X1405Y608D01*
X7Y607D02*
X14Y607D01*
X1335Y607D02*
X1341Y607D01*
X1362Y607D02*
X1368Y607D01*
X1399Y607D02*
X1405Y607D01*
X7Y606D02*
X14Y606D01*
X1335Y606D02*
X1341Y606D01*
X1362Y606D02*
X1368Y606D01*
X1399Y606D02*
X1405Y606D01*
X7Y605D02*
X14Y605D01*
X1335Y605D02*
X1341Y605D01*
X1362Y605D02*
X1368Y605D01*
X1399Y605D02*
X1405Y605D01*
X7Y604D02*
X14Y604D01*
X1335Y604D02*
X1341Y604D01*
X1362Y604D02*
X1368Y604D01*
X1399Y604D02*
X1405Y604D01*
X7Y603D02*
X14Y603D01*
X1335Y603D02*
X1341Y603D01*
X1362Y603D02*
X1368Y603D01*
X1399Y603D02*
X1405Y603D01*
X7Y602D02*
X14Y602D01*
X1335Y602D02*
X1341Y602D01*
X1362Y602D02*
X1368Y602D01*
X1399Y602D02*
X1405Y602D01*
X7Y601D02*
X14Y601D01*
X1335Y601D02*
X1341Y601D01*
X1362Y601D02*
X1368Y601D01*
X1399Y601D02*
X1405Y601D01*
X7Y600D02*
X14Y600D01*
X1335Y600D02*
X1341Y600D01*
X1361Y600D02*
X1368Y600D01*
X1399Y600D02*
X1405Y600D01*
X7Y599D02*
X14Y599D01*
X1335Y599D02*
X1367Y599D01*
X1399Y599D02*
X1405Y599D01*
X7Y598D02*
X14Y598D01*
X1335Y598D02*
X1367Y598D01*
X1399Y598D02*
X1405Y598D01*
X7Y597D02*
X14Y597D01*
X1335Y597D02*
X1366Y597D01*
X1399Y597D02*
X1405Y597D01*
X7Y596D02*
X14Y596D01*
X1335Y596D02*
X1366Y596D01*
X1399Y596D02*
X1405Y596D01*
X7Y595D02*
X14Y595D01*
X1335Y595D02*
X1365Y595D01*
X1399Y595D02*
X1405Y595D01*
X7Y594D02*
X14Y594D01*
X1335Y594D02*
X1363Y594D01*
X1399Y594D02*
X1405Y594D01*
X7Y593D02*
X14Y593D01*
X1335Y593D02*
X1361Y593D01*
X1399Y593D02*
X1405Y593D01*
X7Y592D02*
X14Y592D01*
X1335Y592D02*
X1341Y592D01*
X1347Y592D02*
X1354Y592D01*
X1399Y592D02*
X1405Y592D01*
X7Y591D02*
X14Y591D01*
X1335Y591D02*
X1341Y591D01*
X1347Y591D02*
X1354Y591D01*
X1399Y591D02*
X1405Y591D01*
X7Y590D02*
X14Y590D01*
X1335Y590D02*
X1341Y590D01*
X1348Y590D02*
X1355Y590D01*
X1399Y590D02*
X1405Y590D01*
X7Y589D02*
X14Y589D01*
X1335Y589D02*
X1341Y589D01*
X1348Y589D02*
X1356Y589D01*
X1399Y589D02*
X1405Y589D01*
X7Y588D02*
X14Y588D01*
X1335Y588D02*
X1341Y588D01*
X1349Y588D02*
X1356Y588D01*
X1399Y588D02*
X1405Y588D01*
X7Y587D02*
X14Y587D01*
X1335Y587D02*
X1341Y587D01*
X1350Y587D02*
X1357Y587D01*
X1399Y587D02*
X1405Y587D01*
X1414Y587D02*
X1417Y587D01*
X7Y586D02*
X14Y586D01*
X1335Y586D02*
X1341Y586D01*
X1350Y586D02*
X1357Y586D01*
X1399Y586D02*
X1405Y586D01*
X1413Y586D02*
X1418Y586D01*
X7Y585D02*
X14Y585D01*
X1335Y585D02*
X1341Y585D01*
X1351Y585D02*
X1358Y585D01*
X1399Y585D02*
X1405Y585D01*
X1413Y585D02*
X1418Y585D01*
X7Y584D02*
X14Y584D01*
X1335Y584D02*
X1341Y584D01*
X1351Y584D02*
X1359Y584D01*
X1399Y584D02*
X1405Y584D01*
X1412Y584D02*
X1418Y584D01*
X7Y583D02*
X14Y583D01*
X1335Y583D02*
X1341Y583D01*
X1352Y583D02*
X1359Y583D01*
X1399Y583D02*
X1405Y583D01*
X1412Y583D02*
X1418Y583D01*
X7Y582D02*
X14Y582D01*
X1335Y582D02*
X1341Y582D01*
X1353Y582D02*
X1360Y582D01*
X1399Y582D02*
X1405Y582D01*
X1412Y582D02*
X1418Y582D01*
X7Y581D02*
X14Y581D01*
X1335Y581D02*
X1341Y581D01*
X1353Y581D02*
X1360Y581D01*
X1399Y581D02*
X1405Y581D01*
X1412Y581D02*
X1418Y581D01*
X7Y580D02*
X14Y580D01*
X1335Y580D02*
X1341Y580D01*
X1354Y580D02*
X1361Y580D01*
X1399Y580D02*
X1405Y580D01*
X1412Y580D02*
X1418Y580D01*
X7Y579D02*
X14Y579D01*
X1335Y579D02*
X1341Y579D01*
X1354Y579D02*
X1361Y579D01*
X1399Y579D02*
X1405Y579D01*
X1412Y579D02*
X1418Y579D01*
X7Y578D02*
X14Y578D01*
X1335Y578D02*
X1341Y578D01*
X1355Y578D02*
X1362Y578D01*
X1399Y578D02*
X1405Y578D01*
X1412Y578D02*
X1418Y578D01*
X7Y577D02*
X14Y577D01*
X1335Y577D02*
X1341Y577D01*
X1355Y577D02*
X1363Y577D01*
X1399Y577D02*
X1405Y577D01*
X1412Y577D02*
X1418Y577D01*
X7Y576D02*
X14Y576D01*
X1335Y576D02*
X1341Y576D01*
X1356Y576D02*
X1363Y576D01*
X1399Y576D02*
X1405Y576D01*
X1412Y576D02*
X1418Y576D01*
X7Y575D02*
X14Y575D01*
X1335Y575D02*
X1341Y575D01*
X1357Y575D02*
X1364Y575D01*
X1399Y575D02*
X1405Y575D01*
X1412Y575D02*
X1418Y575D01*
X7Y574D02*
X14Y574D01*
X1335Y574D02*
X1341Y574D01*
X1357Y574D02*
X1364Y574D01*
X1399Y574D02*
X1405Y574D01*
X1412Y574D02*
X1418Y574D01*
X7Y573D02*
X14Y573D01*
X1335Y573D02*
X1341Y573D01*
X1358Y573D02*
X1365Y573D01*
X1399Y573D02*
X1405Y573D01*
X1412Y573D02*
X1418Y573D01*
X7Y572D02*
X14Y572D01*
X1335Y572D02*
X1341Y572D01*
X1358Y572D02*
X1366Y572D01*
X1399Y572D02*
X1405Y572D01*
X1412Y572D02*
X1418Y572D01*
X7Y571D02*
X14Y571D01*
X1335Y571D02*
X1341Y571D01*
X1359Y571D02*
X1366Y571D01*
X1399Y571D02*
X1405Y571D01*
X1412Y571D02*
X1418Y571D01*
X7Y570D02*
X14Y570D01*
X1335Y570D02*
X1341Y570D01*
X1360Y570D02*
X1367Y570D01*
X1398Y570D02*
X1405Y570D01*
X1412Y570D02*
X1418Y570D01*
X7Y569D02*
X14Y569D01*
X1335Y569D02*
X1341Y569D01*
X1360Y569D02*
X1367Y569D01*
X1386Y569D02*
X1418Y569D01*
X7Y568D02*
X14Y568D01*
X1335Y568D02*
X1341Y568D01*
X1361Y568D02*
X1368Y568D01*
X1385Y568D02*
X1418Y568D01*
X7Y567D02*
X14Y567D01*
X1335Y567D02*
X1341Y567D01*
X1361Y567D02*
X1368Y567D01*
X1385Y567D02*
X1418Y567D01*
X7Y566D02*
X14Y566D01*
X1335Y566D02*
X1341Y566D01*
X1362Y566D02*
X1368Y566D01*
X1385Y566D02*
X1418Y566D01*
X7Y565D02*
X14Y565D01*
X1335Y565D02*
X1340Y565D01*
X1362Y565D02*
X1368Y565D01*
X1385Y565D02*
X1418Y565D01*
X7Y564D02*
X14Y564D01*
X1336Y564D02*
X1340Y564D01*
X1363Y564D02*
X1367Y564D01*
X1386Y564D02*
X1417Y564D01*
X7Y563D02*
X14Y563D01*
X1337Y563D02*
X1338Y563D01*
X1365Y563D02*
X1365Y563D01*
X1388Y563D02*
X1416Y563D01*
X7Y562D02*
X14Y562D01*
X7Y561D02*
X14Y561D01*
X7Y560D02*
X14Y560D01*
X7Y559D02*
X14Y559D01*
X7Y558D02*
X14Y558D01*
X7Y557D02*
X14Y557D01*
X7Y556D02*
X14Y556D01*
X7Y555D02*
X14Y555D01*
X7Y554D02*
X14Y554D01*
X7Y553D02*
X14Y553D01*
X7Y552D02*
X14Y552D01*
X7Y551D02*
X14Y551D01*
X7Y550D02*
X14Y550D01*
X7Y549D02*
X14Y549D01*
X7Y548D02*
X14Y548D01*
X7Y547D02*
X14Y547D01*
X7Y546D02*
X14Y546D01*
X7Y545D02*
X14Y545D01*
X7Y544D02*
X14Y544D01*
X7Y543D02*
X14Y543D01*
X7Y542D02*
X14Y542D01*
X7Y541D02*
X14Y541D01*
X7Y540D02*
X14Y540D01*
X7Y539D02*
X14Y539D01*
X7Y538D02*
X14Y538D01*
X7Y537D02*
X14Y537D01*
X7Y536D02*
X14Y536D01*
X7Y535D02*
X14Y535D01*
X7Y534D02*
X14Y534D01*
X7Y533D02*
X14Y533D01*
X7Y532D02*
X14Y532D01*
X7Y531D02*
X14Y531D01*
X7Y530D02*
X14Y530D01*
X7Y529D02*
X14Y529D01*
X7Y528D02*
X14Y528D01*
X7Y527D02*
X14Y527D01*
X7Y526D02*
X14Y526D01*
X7Y525D02*
X14Y525D01*
X7Y524D02*
X14Y524D01*
X7Y523D02*
X14Y523D01*
X7Y522D02*
X14Y522D01*
X7Y521D02*
X14Y521D01*
X7Y520D02*
X14Y520D01*
X7Y519D02*
X14Y519D01*
X7Y518D02*
X14Y518D01*
X7Y517D02*
X14Y517D01*
X7Y516D02*
X14Y516D01*
X7Y515D02*
X14Y515D01*
X7Y514D02*
X14Y514D01*
X7Y513D02*
X14Y513D01*
X7Y512D02*
X14Y512D01*
X7Y511D02*
X14Y511D01*
X7Y510D02*
X14Y510D01*
X7Y509D02*
X14Y509D01*
X7Y508D02*
X14Y508D01*
X7Y507D02*
X14Y507D01*
X7Y506D02*
X14Y506D01*
X7Y505D02*
X14Y505D01*
X1863Y505D02*
X1941Y505D01*
X7Y504D02*
X14Y504D01*
X1863Y504D02*
X1941Y504D01*
X7Y503D02*
X14Y503D01*
X1863Y503D02*
X1941Y503D01*
X7Y502D02*
X14Y502D01*
X1863Y502D02*
X1941Y502D01*
X7Y501D02*
X14Y501D01*
X7Y500D02*
X14Y500D01*
X7Y499D02*
X14Y499D01*
X7Y498D02*
X14Y498D01*
X7Y497D02*
X14Y497D01*
X7Y496D02*
X14Y496D01*
X7Y495D02*
X14Y495D01*
X7Y494D02*
X14Y494D01*
X710Y494D02*
X719Y494D01*
X7Y493D02*
X14Y493D01*
X710Y493D02*
X719Y493D01*
X1285Y493D02*
X1294Y493D01*
X7Y492D02*
X14Y492D01*
X710Y492D02*
X719Y492D01*
X1285Y492D02*
X1294Y492D01*
X7Y491D02*
X14Y491D01*
X710Y491D02*
X719Y491D01*
X1285Y491D02*
X1294Y491D01*
X7Y490D02*
X14Y490D01*
X710Y490D02*
X719Y490D01*
X1285Y490D02*
X1294Y490D01*
X7Y489D02*
X14Y489D01*
X710Y489D02*
X719Y489D01*
X1285Y489D02*
X1294Y489D01*
X7Y488D02*
X14Y488D01*
X710Y488D02*
X719Y488D01*
X1285Y488D02*
X1294Y488D01*
X7Y487D02*
X14Y487D01*
X710Y487D02*
X719Y487D01*
X1285Y487D02*
X1294Y487D01*
X7Y486D02*
X14Y486D01*
X710Y486D02*
X719Y486D01*
X1285Y486D02*
X1294Y486D01*
X7Y485D02*
X14Y485D01*
X710Y485D02*
X719Y485D01*
X1285Y485D02*
X1294Y485D01*
X7Y484D02*
X14Y484D01*
X710Y484D02*
X719Y484D01*
X1285Y484D02*
X1294Y484D01*
X7Y483D02*
X14Y483D01*
X710Y483D02*
X719Y483D01*
X1285Y483D02*
X1294Y483D01*
X7Y482D02*
X14Y482D01*
X710Y482D02*
X719Y482D01*
X1285Y482D02*
X1294Y482D01*
X7Y481D02*
X14Y481D01*
X710Y481D02*
X719Y481D01*
X1285Y481D02*
X1294Y481D01*
X7Y480D02*
X14Y480D01*
X710Y480D02*
X719Y480D01*
X1285Y480D02*
X1294Y480D01*
X7Y479D02*
X14Y479D01*
X710Y479D02*
X719Y479D01*
X1285Y479D02*
X1294Y479D01*
X7Y478D02*
X14Y478D01*
X710Y478D02*
X719Y478D01*
X1285Y478D02*
X1294Y478D01*
X7Y477D02*
X14Y477D01*
X710Y477D02*
X719Y477D01*
X1285Y477D02*
X1294Y477D01*
X7Y476D02*
X14Y476D01*
X710Y476D02*
X719Y476D01*
X1285Y476D02*
X1294Y476D01*
X7Y475D02*
X14Y475D01*
X710Y475D02*
X719Y475D01*
X1285Y475D02*
X1294Y475D01*
X7Y474D02*
X14Y474D01*
X710Y474D02*
X719Y474D01*
X1285Y474D02*
X1294Y474D01*
X7Y473D02*
X14Y473D01*
X710Y473D02*
X719Y473D01*
X1285Y473D02*
X1294Y473D01*
X7Y472D02*
X14Y472D01*
X710Y472D02*
X719Y472D01*
X1285Y472D02*
X1294Y472D01*
X7Y471D02*
X14Y471D01*
X710Y471D02*
X719Y471D01*
X1285Y471D02*
X1294Y471D01*
X7Y470D02*
X14Y470D01*
X710Y470D02*
X719Y470D01*
X1285Y470D02*
X1294Y470D01*
X7Y469D02*
X14Y469D01*
X710Y469D02*
X719Y469D01*
X1285Y469D02*
X1294Y469D01*
X7Y468D02*
X14Y468D01*
X710Y468D02*
X719Y468D01*
X1285Y468D02*
X1294Y468D01*
X7Y467D02*
X14Y467D01*
X710Y467D02*
X719Y467D01*
X1285Y467D02*
X1294Y467D01*
X7Y466D02*
X14Y466D01*
X710Y466D02*
X719Y466D01*
X1285Y466D02*
X1294Y466D01*
X7Y465D02*
X14Y465D01*
X710Y465D02*
X719Y465D01*
X1285Y465D02*
X1294Y465D01*
X7Y464D02*
X14Y464D01*
X710Y464D02*
X719Y464D01*
X1285Y464D02*
X1294Y464D01*
X7Y463D02*
X14Y463D01*
X710Y463D02*
X719Y463D01*
X1285Y463D02*
X1294Y463D01*
X7Y462D02*
X14Y462D01*
X710Y462D02*
X719Y462D01*
X1285Y462D02*
X1294Y462D01*
X7Y461D02*
X14Y461D01*
X710Y461D02*
X719Y461D01*
X1285Y461D02*
X1294Y461D01*
X7Y460D02*
X14Y460D01*
X710Y460D02*
X719Y460D01*
X1285Y460D02*
X1294Y460D01*
X7Y459D02*
X14Y459D01*
X710Y459D02*
X719Y459D01*
X1285Y459D02*
X1294Y459D01*
X7Y458D02*
X14Y458D01*
X710Y458D02*
X719Y458D01*
X1285Y458D02*
X1294Y458D01*
X7Y457D02*
X14Y457D01*
X710Y457D02*
X719Y457D01*
X1285Y457D02*
X1294Y457D01*
X7Y456D02*
X14Y456D01*
X710Y456D02*
X719Y456D01*
X1285Y456D02*
X1294Y456D01*
X7Y455D02*
X14Y455D01*
X710Y455D02*
X719Y455D01*
X1285Y455D02*
X1294Y455D01*
X7Y454D02*
X14Y454D01*
X710Y454D02*
X719Y454D01*
X1285Y454D02*
X1294Y454D01*
X7Y453D02*
X14Y453D01*
X710Y453D02*
X719Y453D01*
X1285Y453D02*
X1294Y453D01*
X7Y452D02*
X14Y452D01*
X710Y452D02*
X719Y452D01*
X1285Y452D02*
X1294Y452D01*
X7Y451D02*
X14Y451D01*
X710Y451D02*
X719Y451D01*
X1285Y451D02*
X1294Y451D01*
X7Y450D02*
X14Y450D01*
X710Y450D02*
X719Y450D01*
X1285Y450D02*
X1294Y450D01*
X7Y449D02*
X14Y449D01*
X710Y449D02*
X719Y449D01*
X1285Y449D02*
X1294Y449D01*
X7Y448D02*
X14Y448D01*
X710Y448D02*
X719Y448D01*
X1285Y448D02*
X1294Y448D01*
X7Y447D02*
X14Y447D01*
X710Y447D02*
X719Y447D01*
X1285Y447D02*
X1294Y447D01*
X7Y446D02*
X14Y446D01*
X710Y446D02*
X719Y446D01*
X1285Y446D02*
X1294Y446D01*
X7Y445D02*
X14Y445D01*
X710Y445D02*
X719Y445D01*
X1285Y445D02*
X1294Y445D01*
X7Y444D02*
X14Y444D01*
X710Y444D02*
X719Y444D01*
X1285Y444D02*
X1294Y444D01*
X7Y443D02*
X14Y443D01*
X710Y443D02*
X719Y443D01*
X1285Y443D02*
X1294Y443D01*
X7Y442D02*
X14Y442D01*
X710Y442D02*
X719Y442D01*
X1285Y442D02*
X1294Y442D01*
X7Y441D02*
X14Y441D01*
X710Y441D02*
X719Y441D01*
X1285Y441D02*
X1294Y441D01*
X7Y440D02*
X14Y440D01*
X710Y440D02*
X719Y440D01*
X1285Y440D02*
X1294Y440D01*
X7Y439D02*
X14Y439D01*
X710Y439D02*
X719Y439D01*
X1285Y439D02*
X1294Y439D01*
X7Y438D02*
X14Y438D01*
X710Y438D02*
X719Y438D01*
X1285Y438D02*
X1294Y438D01*
X7Y437D02*
X14Y437D01*
X710Y437D02*
X719Y437D01*
X1285Y437D02*
X1294Y437D01*
X7Y436D02*
X14Y436D01*
X710Y436D02*
X719Y436D01*
X1285Y436D02*
X1294Y436D01*
X7Y435D02*
X14Y435D01*
X710Y435D02*
X719Y435D01*
X1285Y435D02*
X1294Y435D01*
X7Y434D02*
X14Y434D01*
X710Y434D02*
X719Y434D01*
X1285Y434D02*
X1294Y434D01*
X7Y433D02*
X14Y433D01*
X710Y433D02*
X719Y433D01*
X1285Y433D02*
X1294Y433D01*
X7Y432D02*
X14Y432D01*
X710Y432D02*
X719Y432D01*
X1285Y432D02*
X1294Y432D01*
X7Y431D02*
X14Y431D01*
X710Y431D02*
X719Y431D01*
X1285Y431D02*
X1294Y431D01*
X7Y430D02*
X14Y430D01*
X710Y430D02*
X719Y430D01*
X1285Y430D02*
X1294Y430D01*
X7Y429D02*
X14Y429D01*
X710Y429D02*
X719Y429D01*
X1285Y429D02*
X1294Y429D01*
X7Y428D02*
X14Y428D01*
X710Y428D02*
X719Y428D01*
X1285Y428D02*
X1294Y428D01*
X7Y427D02*
X14Y427D01*
X1285Y427D02*
X1294Y427D01*
X7Y426D02*
X14Y426D01*
X7Y425D02*
X14Y425D01*
X7Y424D02*
X14Y424D01*
X7Y423D02*
X14Y423D01*
X7Y422D02*
X14Y422D01*
X7Y421D02*
X14Y421D01*
X7Y420D02*
X14Y420D01*
X7Y419D02*
X14Y419D01*
X7Y418D02*
X14Y418D01*
X7Y417D02*
X14Y417D01*
X7Y416D02*
X14Y416D01*
X7Y415D02*
X14Y415D01*
X7Y414D02*
X14Y414D01*
X7Y413D02*
X14Y413D01*
X7Y412D02*
X14Y412D01*
X7Y411D02*
X14Y411D01*
X7Y410D02*
X14Y410D01*
X7Y409D02*
X14Y409D01*
X7Y408D02*
X14Y408D01*
X7Y407D02*
X14Y407D01*
X7Y406D02*
X14Y406D01*
X7Y405D02*
X14Y405D01*
X7Y404D02*
X14Y404D01*
X7Y403D02*
X14Y403D01*
X7Y402D02*
X14Y402D01*
X7Y401D02*
X14Y401D01*
X7Y400D02*
X14Y400D01*
X7Y399D02*
X14Y399D01*
X7Y398D02*
X14Y398D01*
X7Y397D02*
X14Y397D01*
X7Y396D02*
X14Y396D01*
X7Y395D02*
X14Y395D01*
X7Y394D02*
X14Y394D01*
X7Y393D02*
X14Y393D01*
X7Y392D02*
X14Y392D01*
X7Y391D02*
X14Y391D01*
X7Y390D02*
X14Y390D01*
X7Y389D02*
X14Y389D01*
X7Y388D02*
X14Y388D01*
X7Y387D02*
X14Y387D01*
X7Y386D02*
X14Y386D01*
X7Y385D02*
X14Y385D01*
X7Y384D02*
X14Y384D01*
X7Y383D02*
X14Y383D01*
X7Y382D02*
X14Y382D01*
X7Y381D02*
X14Y381D01*
X7Y380D02*
X14Y380D01*
X7Y379D02*
X14Y379D01*
X7Y378D02*
X14Y378D01*
X7Y377D02*
X14Y377D01*
X7Y376D02*
X14Y376D01*
X7Y375D02*
X14Y375D01*
X7Y374D02*
X14Y374D01*
X7Y373D02*
X14Y373D01*
X7Y372D02*
X14Y372D01*
X7Y371D02*
X14Y371D01*
X7Y370D02*
X14Y370D01*
X7Y369D02*
X14Y369D01*
X7Y368D02*
X14Y368D01*
X7Y367D02*
X14Y367D01*
X7Y366D02*
X14Y366D01*
X7Y365D02*
X14Y365D01*
X7Y364D02*
X14Y364D01*
X7Y363D02*
X14Y363D01*
X7Y362D02*
X14Y362D01*
X7Y361D02*
X14Y361D01*
X7Y360D02*
X14Y360D01*
X7Y359D02*
X14Y359D01*
X7Y358D02*
X14Y358D01*
X7Y357D02*
X14Y357D01*
X7Y356D02*
X14Y356D01*
X7Y355D02*
X14Y355D01*
X7Y354D02*
X14Y354D01*
X7Y353D02*
X14Y353D01*
X7Y352D02*
X14Y352D01*
X7Y351D02*
X14Y351D01*
X7Y350D02*
X14Y350D01*
X7Y349D02*
X14Y349D01*
X7Y348D02*
X14Y348D01*
X7Y347D02*
X14Y347D01*
X7Y346D02*
X14Y346D01*
X7Y345D02*
X14Y345D01*
X7Y344D02*
X14Y344D01*
X7Y343D02*
X14Y343D01*
X7Y342D02*
X14Y342D01*
X7Y341D02*
X14Y341D01*
X7Y340D02*
X14Y340D01*
X7Y339D02*
X14Y339D01*
X1287Y339D02*
X1291Y339D01*
X7Y338D02*
X14Y338D01*
X1275Y338D02*
X1303Y338D01*
X7Y337D02*
X14Y337D01*
X1269Y337D02*
X1309Y337D01*
X7Y336D02*
X14Y336D01*
X1265Y336D02*
X1314Y336D01*
X7Y335D02*
X14Y335D01*
X1261Y335D02*
X1317Y335D01*
X7Y334D02*
X14Y334D01*
X1258Y334D02*
X1321Y334D01*
X7Y333D02*
X14Y333D01*
X1255Y333D02*
X1324Y333D01*
X7Y332D02*
X14Y332D01*
X1252Y332D02*
X1326Y332D01*
X7Y331D02*
X14Y331D01*
X1250Y331D02*
X1329Y331D01*
X7Y330D02*
X14Y330D01*
X1248Y330D02*
X1331Y330D01*
X7Y329D02*
X14Y329D01*
X1245Y329D02*
X1286Y329D01*
X1292Y329D02*
X1333Y329D01*
X7Y328D02*
X14Y328D01*
X1243Y328D02*
X1274Y328D01*
X1304Y328D02*
X1335Y328D01*
X7Y327D02*
X14Y327D01*
X1241Y327D02*
X1269Y327D01*
X1310Y327D02*
X1337Y327D01*
X7Y326D02*
X14Y326D01*
X1240Y326D02*
X1264Y326D01*
X1314Y326D02*
X1339Y326D01*
X7Y325D02*
X14Y325D01*
X1238Y325D02*
X1261Y325D01*
X1318Y325D02*
X1341Y325D01*
X7Y324D02*
X14Y324D01*
X1236Y324D02*
X1258Y324D01*
X1321Y324D02*
X1342Y324D01*
X7Y323D02*
X14Y323D01*
X1235Y323D02*
X1255Y323D01*
X1324Y323D02*
X1344Y323D01*
X7Y322D02*
X14Y322D01*
X1233Y322D02*
X1252Y322D01*
X1326Y322D02*
X1346Y322D01*
X7Y321D02*
X14Y321D01*
X1231Y321D02*
X1250Y321D01*
X1329Y321D02*
X1347Y321D01*
X7Y320D02*
X14Y320D01*
X1230Y320D02*
X1248Y320D01*
X1331Y320D02*
X1349Y320D01*
X7Y319D02*
X14Y319D01*
X1229Y319D02*
X1246Y319D01*
X1333Y319D02*
X1350Y319D01*
X7Y318D02*
X14Y318D01*
X1227Y318D02*
X1244Y318D01*
X1335Y318D02*
X1351Y318D01*
X7Y317D02*
X14Y317D01*
X1226Y317D02*
X1242Y317D01*
X1337Y317D02*
X1353Y317D01*
X7Y316D02*
X14Y316D01*
X1225Y316D02*
X1240Y316D01*
X1338Y316D02*
X1354Y316D01*
X7Y315D02*
X14Y315D01*
X1223Y315D02*
X1238Y315D01*
X1340Y315D02*
X1355Y315D01*
X7Y314D02*
X14Y314D01*
X1222Y314D02*
X1237Y314D01*
X1342Y314D02*
X1356Y314D01*
X7Y313D02*
X14Y313D01*
X1221Y313D02*
X1235Y313D01*
X1343Y313D02*
X1357Y313D01*
X7Y312D02*
X14Y312D01*
X1220Y312D02*
X1234Y312D01*
X1345Y312D02*
X1359Y312D01*
X7Y311D02*
X14Y311D01*
X1219Y311D02*
X1233Y311D01*
X1346Y311D02*
X1360Y311D01*
X7Y310D02*
X14Y310D01*
X1218Y310D02*
X1231Y310D01*
X1347Y310D02*
X1361Y310D01*
X7Y309D02*
X14Y309D01*
X1217Y309D02*
X1230Y309D01*
X1349Y309D02*
X1362Y309D01*
X7Y308D02*
X14Y308D01*
X1216Y308D02*
X1229Y308D01*
X1350Y308D02*
X1363Y308D01*
X7Y307D02*
X14Y307D01*
X1215Y307D02*
X1227Y307D01*
X1351Y307D02*
X1364Y307D01*
X7Y306D02*
X14Y306D01*
X1214Y306D02*
X1226Y306D01*
X1352Y306D02*
X1365Y306D01*
X7Y305D02*
X14Y305D01*
X1213Y305D02*
X1225Y305D01*
X1354Y305D02*
X1366Y305D01*
X7Y304D02*
X14Y304D01*
X1212Y304D02*
X1224Y304D01*
X1355Y304D02*
X1367Y304D01*
X7Y303D02*
X14Y303D01*
X1211Y303D02*
X1223Y303D01*
X1356Y303D02*
X1367Y303D01*
X7Y302D02*
X14Y302D01*
X1210Y302D02*
X1222Y302D01*
X1357Y302D02*
X1368Y302D01*
X7Y301D02*
X14Y301D01*
X1209Y301D02*
X1221Y301D01*
X1358Y301D02*
X1369Y301D01*
X7Y300D02*
X14Y300D01*
X1209Y300D02*
X1220Y300D01*
X1359Y300D02*
X1370Y300D01*
X7Y299D02*
X14Y299D01*
X1208Y299D02*
X1219Y299D01*
X1360Y299D02*
X1371Y299D01*
X7Y298D02*
X14Y298D01*
X1207Y298D02*
X1218Y298D01*
X1361Y298D02*
X1372Y298D01*
X7Y297D02*
X14Y297D01*
X1206Y297D02*
X1217Y297D01*
X1361Y297D02*
X1372Y297D01*
X7Y296D02*
X14Y296D01*
X1205Y296D02*
X1216Y296D01*
X1362Y296D02*
X1373Y296D01*
X7Y295D02*
X14Y295D01*
X1205Y295D02*
X1215Y295D01*
X1363Y295D02*
X1374Y295D01*
X7Y294D02*
X14Y294D01*
X1204Y294D02*
X1215Y294D01*
X1364Y294D02*
X1375Y294D01*
X7Y293D02*
X14Y293D01*
X1203Y293D02*
X1214Y293D01*
X1365Y293D02*
X1375Y293D01*
X7Y292D02*
X14Y292D01*
X1203Y292D02*
X1213Y292D01*
X1365Y292D02*
X1376Y292D01*
X7Y291D02*
X14Y291D01*
X1202Y291D02*
X1212Y291D01*
X1366Y291D02*
X1377Y291D01*
X7Y290D02*
X14Y290D01*
X1201Y290D02*
X1212Y290D01*
X1367Y290D02*
X1377Y290D01*
X7Y289D02*
X14Y289D01*
X1201Y289D02*
X1211Y289D01*
X1368Y289D02*
X1378Y289D01*
X7Y288D02*
X14Y288D01*
X1200Y288D02*
X1210Y288D01*
X1368Y288D02*
X1379Y288D01*
X7Y287D02*
X14Y287D01*
X1199Y287D02*
X1210Y287D01*
X1369Y287D02*
X1379Y287D01*
X7Y286D02*
X14Y286D01*
X1199Y286D02*
X1209Y286D01*
X1370Y286D02*
X1380Y286D01*
X7Y285D02*
X14Y285D01*
X1198Y285D02*
X1208Y285D01*
X1370Y285D02*
X1380Y285D01*
X7Y284D02*
X14Y284D01*
X1198Y284D02*
X1208Y284D01*
X1371Y284D02*
X1381Y284D01*
X7Y283D02*
X14Y283D01*
X1197Y283D02*
X1207Y283D01*
X1372Y283D02*
X1381Y283D01*
X7Y282D02*
X14Y282D01*
X1197Y282D02*
X1206Y282D01*
X1372Y282D02*
X1382Y282D01*
X7Y281D02*
X14Y281D01*
X1196Y281D02*
X1206Y281D01*
X1373Y281D02*
X1382Y281D01*
X7Y280D02*
X14Y280D01*
X1196Y280D02*
X1205Y280D01*
X1373Y280D02*
X1383Y280D01*
X7Y279D02*
X14Y279D01*
X1195Y279D02*
X1205Y279D01*
X1374Y279D02*
X1383Y279D01*
X7Y278D02*
X14Y278D01*
X1195Y278D02*
X1204Y278D01*
X1374Y278D02*
X1384Y278D01*
X7Y277D02*
X14Y277D01*
X1194Y277D02*
X1204Y277D01*
X1375Y277D02*
X1384Y277D01*
X7Y276D02*
X14Y276D01*
X1194Y276D02*
X1203Y276D01*
X1375Y276D02*
X1385Y276D01*
X7Y275D02*
X14Y275D01*
X1193Y275D02*
X1203Y275D01*
X1376Y275D02*
X1385Y275D01*
X7Y274D02*
X14Y274D01*
X1193Y274D02*
X1202Y274D01*
X1376Y274D02*
X1386Y274D01*
X7Y273D02*
X14Y273D01*
X1192Y273D02*
X1202Y273D01*
X1377Y273D02*
X1386Y273D01*
X7Y272D02*
X14Y272D01*
X1192Y272D02*
X1201Y272D01*
X1377Y272D02*
X1386Y272D01*
X7Y271D02*
X14Y271D01*
X1192Y271D02*
X1201Y271D01*
X1378Y271D02*
X1387Y271D01*
X7Y270D02*
X14Y270D01*
X1191Y270D02*
X1201Y270D01*
X1378Y270D02*
X1387Y270D01*
X7Y269D02*
X14Y269D01*
X1191Y269D02*
X1200Y269D01*
X1378Y269D02*
X1388Y269D01*
X7Y268D02*
X14Y268D01*
X1191Y268D02*
X1200Y268D01*
X1379Y268D02*
X1388Y268D01*
X7Y267D02*
X14Y267D01*
X1190Y267D02*
X1199Y267D01*
X1379Y267D02*
X1388Y267D01*
X7Y266D02*
X14Y266D01*
X1190Y266D02*
X1199Y266D01*
X1379Y266D02*
X1389Y266D01*
X7Y265D02*
X14Y265D01*
X1190Y265D02*
X1199Y265D01*
X1380Y265D02*
X1389Y265D01*
X1863Y265D02*
X1941Y265D01*
X7Y264D02*
X14Y264D01*
X1189Y264D02*
X1198Y264D01*
X1380Y264D02*
X1389Y264D01*
X1863Y264D02*
X1941Y264D01*
X7Y263D02*
X14Y263D01*
X1189Y263D02*
X1198Y263D01*
X1380Y263D02*
X1390Y263D01*
X1863Y263D02*
X1941Y263D01*
X7Y262D02*
X14Y262D01*
X1189Y262D02*
X1198Y262D01*
X1381Y262D02*
X1390Y262D01*
X1863Y262D02*
X1941Y262D01*
X7Y261D02*
X14Y261D01*
X1188Y261D02*
X1198Y261D01*
X1381Y261D02*
X1390Y261D01*
X7Y260D02*
X14Y260D01*
X1188Y260D02*
X1197Y260D01*
X1381Y260D02*
X1390Y260D01*
X7Y259D02*
X14Y259D01*
X1188Y259D02*
X1197Y259D01*
X1256Y259D02*
X1256Y259D01*
X1382Y259D02*
X1391Y259D01*
X7Y258D02*
X14Y258D01*
X1188Y258D02*
X1197Y258D01*
X1255Y258D02*
X1257Y258D01*
X1322Y258D02*
X1322Y258D01*
X1382Y258D02*
X1391Y258D01*
X7Y257D02*
X14Y257D01*
X1187Y257D02*
X1197Y257D01*
X1255Y257D02*
X1257Y257D01*
X1321Y257D02*
X1322Y257D01*
X1382Y257D02*
X1391Y257D01*
X7Y256D02*
X14Y256D01*
X1187Y256D02*
X1196Y256D01*
X1254Y256D02*
X1258Y256D01*
X1320Y256D02*
X1322Y256D01*
X1382Y256D02*
X1391Y256D01*
X7Y255D02*
X14Y255D01*
X1187Y255D02*
X1196Y255D01*
X1254Y255D02*
X1259Y255D01*
X1319Y255D02*
X1322Y255D01*
X1383Y255D02*
X1392Y255D01*
X7Y254D02*
X14Y254D01*
X1187Y254D02*
X1196Y254D01*
X1253Y254D02*
X1260Y254D01*
X1318Y254D02*
X1322Y254D01*
X1383Y254D02*
X1392Y254D01*
X7Y253D02*
X14Y253D01*
X1187Y253D02*
X1196Y253D01*
X1253Y253D02*
X1259Y253D01*
X1317Y253D02*
X1322Y253D01*
X1383Y253D02*
X1392Y253D01*
X7Y252D02*
X14Y252D01*
X1186Y252D02*
X1195Y252D01*
X1252Y252D02*
X1259Y252D01*
X1316Y252D02*
X1322Y252D01*
X1383Y252D02*
X1392Y252D01*
X7Y251D02*
X14Y251D01*
X1186Y251D02*
X1195Y251D01*
X1252Y251D02*
X1258Y251D01*
X1316Y251D02*
X1322Y251D01*
X1383Y251D02*
X1392Y251D01*
X7Y250D02*
X14Y250D01*
X1186Y250D02*
X1195Y250D01*
X1252Y250D02*
X1258Y250D01*
X1316Y250D02*
X1322Y250D01*
X1383Y250D02*
X1393Y250D01*
X7Y249D02*
X14Y249D01*
X1186Y249D02*
X1195Y249D01*
X1252Y249D02*
X1258Y249D01*
X1316Y249D02*
X1322Y249D01*
X1384Y249D02*
X1393Y249D01*
X7Y248D02*
X14Y248D01*
X1186Y248D02*
X1195Y248D01*
X1252Y248D02*
X1258Y248D01*
X1316Y248D02*
X1322Y248D01*
X1384Y248D02*
X1393Y248D01*
X7Y247D02*
X14Y247D01*
X1186Y247D02*
X1195Y247D01*
X1252Y247D02*
X1258Y247D01*
X1316Y247D02*
X1322Y247D01*
X1384Y247D02*
X1393Y247D01*
X7Y246D02*
X14Y246D01*
X1186Y246D02*
X1195Y246D01*
X1252Y246D02*
X1258Y246D01*
X1316Y246D02*
X1322Y246D01*
X1384Y246D02*
X1393Y246D01*
X7Y245D02*
X14Y245D01*
X1185Y245D02*
X1194Y245D01*
X1252Y245D02*
X1258Y245D01*
X1316Y245D02*
X1322Y245D01*
X1384Y245D02*
X1393Y245D01*
X7Y244D02*
X14Y244D01*
X1185Y244D02*
X1194Y244D01*
X1252Y244D02*
X1258Y244D01*
X1316Y244D02*
X1322Y244D01*
X1331Y244D02*
X1334Y244D01*
X1384Y244D02*
X1393Y244D01*
X7Y243D02*
X14Y243D01*
X1185Y243D02*
X1194Y243D01*
X1252Y243D02*
X1259Y243D01*
X1316Y243D02*
X1322Y243D01*
X1330Y243D02*
X1335Y243D01*
X1384Y243D02*
X1393Y243D01*
X7Y242D02*
X14Y242D01*
X1185Y242D02*
X1194Y242D01*
X1252Y242D02*
X1259Y242D01*
X1316Y242D02*
X1322Y242D01*
X1329Y242D02*
X1335Y242D01*
X1384Y242D02*
X1393Y242D01*
X7Y241D02*
X14Y241D01*
X1185Y241D02*
X1194Y241D01*
X1253Y241D02*
X1260Y241D01*
X1316Y241D02*
X1322Y241D01*
X1329Y241D02*
X1335Y241D01*
X1384Y241D02*
X1393Y241D01*
X7Y240D02*
X14Y240D01*
X1185Y240D02*
X1194Y240D01*
X1253Y240D02*
X1260Y240D01*
X1316Y240D02*
X1322Y240D01*
X1329Y240D02*
X1335Y240D01*
X1385Y240D02*
X1394Y240D01*
X7Y239D02*
X14Y239D01*
X1185Y239D02*
X1194Y239D01*
X1254Y239D02*
X1261Y239D01*
X1316Y239D02*
X1322Y239D01*
X1329Y239D02*
X1335Y239D01*
X1385Y239D02*
X1394Y239D01*
X7Y238D02*
X14Y238D01*
X1185Y238D02*
X1194Y238D01*
X1254Y238D02*
X1261Y238D01*
X1316Y238D02*
X1322Y238D01*
X1329Y238D02*
X1335Y238D01*
X1385Y238D02*
X1394Y238D01*
X7Y237D02*
X14Y237D01*
X1185Y237D02*
X1194Y237D01*
X1255Y237D02*
X1262Y237D01*
X1316Y237D02*
X1322Y237D01*
X1329Y237D02*
X1335Y237D01*
X1385Y237D02*
X1394Y237D01*
X7Y236D02*
X14Y236D01*
X1185Y236D02*
X1194Y236D01*
X1255Y236D02*
X1262Y236D01*
X1316Y236D02*
X1322Y236D01*
X1329Y236D02*
X1335Y236D01*
X1385Y236D02*
X1394Y236D01*
X7Y235D02*
X14Y235D01*
X1185Y235D02*
X1194Y235D01*
X1256Y235D02*
X1263Y235D01*
X1316Y235D02*
X1322Y235D01*
X1329Y235D02*
X1335Y235D01*
X1385Y235D02*
X1394Y235D01*
X7Y234D02*
X14Y234D01*
X1185Y234D02*
X1194Y234D01*
X1256Y234D02*
X1263Y234D01*
X1316Y234D02*
X1322Y234D01*
X1329Y234D02*
X1335Y234D01*
X1385Y234D02*
X1394Y234D01*
X7Y233D02*
X14Y233D01*
X1185Y233D02*
X1194Y233D01*
X1257Y233D02*
X1264Y233D01*
X1316Y233D02*
X1322Y233D01*
X1329Y233D02*
X1335Y233D01*
X1385Y233D02*
X1394Y233D01*
X7Y232D02*
X14Y232D01*
X1185Y232D02*
X1194Y232D01*
X1257Y232D02*
X1264Y232D01*
X1316Y232D02*
X1322Y232D01*
X1329Y232D02*
X1335Y232D01*
X1385Y232D02*
X1394Y232D01*
X7Y231D02*
X14Y231D01*
X1185Y231D02*
X1194Y231D01*
X1258Y231D02*
X1265Y231D01*
X1316Y231D02*
X1322Y231D01*
X1329Y231D02*
X1335Y231D01*
X1385Y231D02*
X1394Y231D01*
X7Y230D02*
X14Y230D01*
X1185Y230D02*
X1194Y230D01*
X1258Y230D02*
X1265Y230D01*
X1316Y230D02*
X1322Y230D01*
X1329Y230D02*
X1335Y230D01*
X1385Y230D02*
X1394Y230D01*
X7Y229D02*
X14Y229D01*
X1185Y229D02*
X1194Y229D01*
X1259Y229D02*
X1266Y229D01*
X1316Y229D02*
X1322Y229D01*
X1329Y229D02*
X1335Y229D01*
X1385Y229D02*
X1394Y229D01*
X7Y228D02*
X14Y228D01*
X1185Y228D02*
X1194Y228D01*
X1259Y228D02*
X1266Y228D01*
X1316Y228D02*
X1322Y228D01*
X1329Y228D02*
X1335Y228D01*
X1385Y228D02*
X1394Y228D01*
X7Y227D02*
X14Y227D01*
X1185Y227D02*
X1194Y227D01*
X1260Y227D02*
X1283Y227D01*
X1304Y227D02*
X1335Y227D01*
X1384Y227D02*
X1393Y227D01*
X7Y226D02*
X14Y226D01*
X1185Y226D02*
X1194Y226D01*
X1332Y226D02*
X1335Y226D01*
X1384Y226D02*
X1393Y226D01*
X7Y225D02*
X14Y225D01*
X1185Y225D02*
X1194Y225D01*
X1332Y225D02*
X1335Y225D01*
X1384Y225D02*
X1393Y225D01*
X7Y224D02*
X14Y224D01*
X1185Y224D02*
X1194Y224D01*
X1332Y224D02*
X1335Y224D01*
X1384Y224D02*
X1393Y224D01*
X7Y223D02*
X14Y223D01*
X1185Y223D02*
X1194Y223D01*
X1332Y223D02*
X1335Y223D01*
X1384Y223D02*
X1393Y223D01*
X7Y222D02*
X14Y222D01*
X1186Y222D02*
X1195Y222D01*
X1332Y222D02*
X1335Y222D01*
X1384Y222D02*
X1393Y222D01*
X7Y221D02*
X14Y221D01*
X1186Y221D02*
X1195Y221D01*
X1332Y221D02*
X1334Y221D01*
X1384Y221D02*
X1393Y221D01*
X7Y220D02*
X14Y220D01*
X1186Y220D02*
X1195Y220D01*
X1384Y220D02*
X1393Y220D01*
X7Y219D02*
X14Y219D01*
X1186Y219D02*
X1195Y219D01*
X1384Y219D02*
X1393Y219D01*
X7Y218D02*
X14Y218D01*
X1186Y218D02*
X1195Y218D01*
X1383Y218D02*
X1392Y218D01*
X7Y217D02*
X14Y217D01*
X1186Y217D02*
X1195Y217D01*
X1383Y217D02*
X1392Y217D01*
X7Y216D02*
X14Y216D01*
X1186Y216D02*
X1196Y216D01*
X1383Y216D02*
X1392Y216D01*
X7Y215D02*
X14Y215D01*
X1187Y215D02*
X1196Y215D01*
X1383Y215D02*
X1392Y215D01*
X7Y214D02*
X14Y214D01*
X1187Y214D02*
X1196Y214D01*
X1383Y214D02*
X1392Y214D01*
X7Y213D02*
X14Y213D01*
X1187Y213D02*
X1196Y213D01*
X1382Y213D02*
X1392Y213D01*
X7Y212D02*
X14Y212D01*
X1187Y212D02*
X1196Y212D01*
X1382Y212D02*
X1391Y212D01*
X7Y211D02*
X14Y211D01*
X1187Y211D02*
X1197Y211D01*
X1382Y211D02*
X1391Y211D01*
X7Y210D02*
X14Y210D01*
X1188Y210D02*
X1197Y210D01*
X1382Y210D02*
X1391Y210D01*
X7Y209D02*
X14Y209D01*
X760Y209D02*
X771Y209D01*
X1188Y209D02*
X1197Y209D01*
X1381Y209D02*
X1391Y209D01*
X7Y208D02*
X14Y208D01*
X760Y208D02*
X772Y208D01*
X1188Y208D02*
X1197Y208D01*
X1381Y208D02*
X1390Y208D01*
X7Y207D02*
X14Y207D01*
X760Y207D02*
X772Y207D01*
X1188Y207D02*
X1198Y207D01*
X1381Y207D02*
X1390Y207D01*
X7Y206D02*
X14Y206D01*
X760Y206D02*
X772Y206D01*
X1189Y206D02*
X1198Y206D01*
X1381Y206D02*
X1390Y206D01*
X7Y205D02*
X14Y205D01*
X760Y205D02*
X772Y205D01*
X1189Y205D02*
X1198Y205D01*
X1380Y205D02*
X1389Y205D01*
X7Y204D02*
X14Y204D01*
X760Y204D02*
X772Y204D01*
X1189Y204D02*
X1199Y204D01*
X1232Y204D02*
X1236Y204D01*
X1342Y204D02*
X1346Y204D01*
X1380Y204D02*
X1389Y204D01*
X7Y203D02*
X14Y203D01*
X760Y203D02*
X772Y203D01*
X1190Y203D02*
X1199Y203D01*
X1231Y203D02*
X1238Y203D01*
X1341Y203D02*
X1348Y203D01*
X1380Y203D02*
X1389Y203D01*
X7Y202D02*
X14Y202D01*
X765Y202D02*
X772Y202D01*
X1190Y202D02*
X1199Y202D01*
X1230Y202D02*
X1239Y202D01*
X1340Y202D02*
X1348Y202D01*
X1379Y202D02*
X1389Y202D01*
X7Y201D02*
X14Y201D01*
X766Y201D02*
X772Y201D01*
X1190Y201D02*
X1200Y201D01*
X1230Y201D02*
X1239Y201D01*
X1340Y201D02*
X1349Y201D01*
X1379Y201D02*
X1388Y201D01*
X7Y200D02*
X14Y200D01*
X766Y200D02*
X772Y200D01*
X1191Y200D02*
X1200Y200D01*
X1229Y200D02*
X1239Y200D01*
X1339Y200D02*
X1349Y200D01*
X1379Y200D02*
X1388Y200D01*
X7Y199D02*
X14Y199D01*
X766Y199D02*
X772Y199D01*
X1191Y199D02*
X1200Y199D01*
X1229Y199D02*
X1239Y199D01*
X1339Y199D02*
X1349Y199D01*
X1378Y199D02*
X1388Y199D01*
X7Y198D02*
X14Y198D01*
X766Y198D02*
X772Y198D01*
X1191Y198D02*
X1201Y198D01*
X1229Y198D02*
X1239Y198D01*
X1339Y198D02*
X1349Y198D01*
X1378Y198D02*
X1387Y198D01*
X7Y197D02*
X14Y197D01*
X766Y197D02*
X772Y197D01*
X1192Y197D02*
X1201Y197D01*
X1229Y197D02*
X1239Y197D01*
X1339Y197D02*
X1349Y197D01*
X1377Y197D02*
X1387Y197D01*
X7Y196D02*
X14Y196D01*
X766Y196D02*
X772Y196D01*
X1192Y196D02*
X1202Y196D01*
X1229Y196D02*
X1239Y196D01*
X1339Y196D02*
X1349Y196D01*
X1377Y196D02*
X1386Y196D01*
X7Y195D02*
X14Y195D01*
X766Y195D02*
X772Y195D01*
X1193Y195D02*
X1202Y195D01*
X1229Y195D02*
X1239Y195D01*
X1339Y195D02*
X1349Y195D01*
X1377Y195D02*
X1386Y195D01*
X7Y194D02*
X14Y194D01*
X766Y194D02*
X772Y194D01*
X1193Y194D02*
X1202Y194D01*
X1229Y194D02*
X1239Y194D01*
X1339Y194D02*
X1349Y194D01*
X1376Y194D02*
X1386Y194D01*
X7Y193D02*
X14Y193D01*
X766Y193D02*
X772Y193D01*
X1193Y193D02*
X1203Y193D01*
X1229Y193D02*
X1239Y193D01*
X1339Y193D02*
X1349Y193D01*
X1376Y193D02*
X1385Y193D01*
X7Y192D02*
X14Y192D01*
X766Y192D02*
X772Y192D01*
X1194Y192D02*
X1203Y192D01*
X1229Y192D02*
X1239Y192D01*
X1339Y192D02*
X1349Y192D01*
X1375Y192D02*
X1385Y192D01*
X7Y191D02*
X14Y191D01*
X766Y191D02*
X772Y191D01*
X1194Y191D02*
X1204Y191D01*
X1229Y191D02*
X1239Y191D01*
X1339Y191D02*
X1349Y191D01*
X1375Y191D02*
X1384Y191D01*
X7Y190D02*
X14Y190D01*
X766Y190D02*
X772Y190D01*
X1195Y190D02*
X1204Y190D01*
X1229Y190D02*
X1239Y190D01*
X1339Y190D02*
X1349Y190D01*
X1374Y190D02*
X1384Y190D01*
X7Y189D02*
X14Y189D01*
X766Y189D02*
X772Y189D01*
X1195Y189D02*
X1205Y189D01*
X1229Y189D02*
X1239Y189D01*
X1339Y189D02*
X1349Y189D01*
X1374Y189D02*
X1383Y189D01*
X7Y188D02*
X14Y188D01*
X766Y188D02*
X772Y188D01*
X1196Y188D02*
X1205Y188D01*
X1229Y188D02*
X1239Y188D01*
X1339Y188D02*
X1349Y188D01*
X1373Y188D02*
X1383Y188D01*
X7Y187D02*
X14Y187D01*
X766Y187D02*
X772Y187D01*
X1196Y187D02*
X1206Y187D01*
X1229Y187D02*
X1239Y187D01*
X1339Y187D02*
X1349Y187D01*
X1373Y187D02*
X1382Y187D01*
X7Y186D02*
X14Y186D01*
X766Y186D02*
X772Y186D01*
X1197Y186D02*
X1207Y186D01*
X1229Y186D02*
X1239Y186D01*
X1339Y186D02*
X1349Y186D01*
X1372Y186D02*
X1382Y186D01*
X7Y185D02*
X14Y185D01*
X766Y185D02*
X772Y185D01*
X1197Y185D02*
X1207Y185D01*
X1229Y185D02*
X1239Y185D01*
X1339Y185D02*
X1349Y185D01*
X1371Y185D02*
X1381Y185D01*
X7Y184D02*
X14Y184D01*
X766Y184D02*
X772Y184D01*
X1198Y184D02*
X1208Y184D01*
X1229Y184D02*
X1239Y184D01*
X1339Y184D02*
X1349Y184D01*
X1371Y184D02*
X1381Y184D01*
X7Y183D02*
X14Y183D01*
X766Y183D02*
X772Y183D01*
X1198Y183D02*
X1208Y183D01*
X1229Y183D02*
X1239Y183D01*
X1339Y183D02*
X1349Y183D01*
X1370Y183D02*
X1380Y183D01*
X7Y182D02*
X14Y182D01*
X766Y182D02*
X772Y182D01*
X1199Y182D02*
X1209Y182D01*
X1229Y182D02*
X1239Y182D01*
X1339Y182D02*
X1349Y182D01*
X1370Y182D02*
X1380Y182D01*
X7Y181D02*
X14Y181D01*
X766Y181D02*
X772Y181D01*
X1200Y181D02*
X1210Y181D01*
X1229Y181D02*
X1239Y181D01*
X1339Y181D02*
X1349Y181D01*
X1369Y181D02*
X1379Y181D01*
X7Y180D02*
X14Y180D01*
X766Y180D02*
X772Y180D01*
X1200Y180D02*
X1210Y180D01*
X1229Y180D02*
X1239Y180D01*
X1339Y180D02*
X1349Y180D01*
X1368Y180D02*
X1378Y180D01*
X7Y179D02*
X14Y179D01*
X766Y179D02*
X772Y179D01*
X781Y179D02*
X784Y179D01*
X1201Y179D02*
X1211Y179D01*
X1229Y179D02*
X1239Y179D01*
X1339Y179D02*
X1349Y179D01*
X1367Y179D02*
X1378Y179D01*
X7Y178D02*
X14Y178D01*
X766Y178D02*
X772Y178D01*
X780Y178D02*
X785Y178D01*
X1201Y178D02*
X1212Y178D01*
X1229Y178D02*
X1239Y178D01*
X1339Y178D02*
X1349Y178D01*
X1367Y178D02*
X1377Y178D01*
X7Y177D02*
X14Y177D01*
X766Y177D02*
X772Y177D01*
X779Y177D02*
X785Y177D01*
X1202Y177D02*
X1213Y177D01*
X1229Y177D02*
X1239Y177D01*
X1339Y177D02*
X1349Y177D01*
X1366Y177D02*
X1376Y177D01*
X7Y176D02*
X14Y176D01*
X766Y176D02*
X772Y176D01*
X779Y176D02*
X785Y176D01*
X1203Y176D02*
X1213Y176D01*
X1229Y176D02*
X1239Y176D01*
X1339Y176D02*
X1349Y176D01*
X1365Y176D02*
X1376Y176D01*
X7Y175D02*
X14Y175D01*
X766Y175D02*
X772Y175D01*
X779Y175D02*
X785Y175D01*
X1203Y175D02*
X1214Y175D01*
X1229Y175D02*
X1239Y175D01*
X1339Y175D02*
X1349Y175D01*
X1364Y175D02*
X1375Y175D01*
X7Y174D02*
X14Y174D01*
X766Y174D02*
X772Y174D01*
X779Y174D02*
X785Y174D01*
X1204Y174D02*
X1215Y174D01*
X1229Y174D02*
X1239Y174D01*
X1339Y174D02*
X1349Y174D01*
X1364Y174D02*
X1374Y174D01*
X7Y173D02*
X14Y173D01*
X766Y173D02*
X772Y173D01*
X779Y173D02*
X785Y173D01*
X1205Y173D02*
X1216Y173D01*
X1229Y173D02*
X1239Y173D01*
X1339Y173D02*
X1349Y173D01*
X1363Y173D02*
X1374Y173D01*
X7Y172D02*
X14Y172D01*
X766Y172D02*
X772Y172D01*
X779Y172D02*
X785Y172D01*
X1206Y172D02*
X1217Y172D01*
X1229Y172D02*
X1239Y172D01*
X1339Y172D02*
X1349Y172D01*
X1362Y172D02*
X1373Y172D01*
X7Y171D02*
X14Y171D01*
X766Y171D02*
X772Y171D01*
X779Y171D02*
X785Y171D01*
X1206Y171D02*
X1217Y171D01*
X1229Y171D02*
X1239Y171D01*
X1339Y171D02*
X1349Y171D01*
X1361Y171D02*
X1372Y171D01*
X7Y170D02*
X14Y170D01*
X766Y170D02*
X772Y170D01*
X779Y170D02*
X785Y170D01*
X1207Y170D02*
X1218Y170D01*
X1229Y170D02*
X1239Y170D01*
X1339Y170D02*
X1349Y170D01*
X1360Y170D02*
X1371Y170D01*
X7Y169D02*
X14Y169D01*
X766Y169D02*
X772Y169D01*
X779Y169D02*
X785Y169D01*
X1208Y169D02*
X1219Y169D01*
X1229Y169D02*
X1239Y169D01*
X1339Y169D02*
X1349Y169D01*
X1359Y169D02*
X1371Y169D01*
X7Y168D02*
X14Y168D01*
X766Y168D02*
X772Y168D01*
X779Y168D02*
X785Y168D01*
X1209Y168D02*
X1220Y168D01*
X1229Y168D02*
X1239Y168D01*
X1339Y168D02*
X1349Y168D01*
X1358Y168D02*
X1370Y168D01*
X7Y167D02*
X14Y167D01*
X766Y167D02*
X772Y167D01*
X779Y167D02*
X785Y167D01*
X1210Y167D02*
X1221Y167D01*
X1230Y167D02*
X1239Y167D01*
X1340Y167D02*
X1349Y167D01*
X1357Y167D02*
X1369Y167D01*
X7Y166D02*
X14Y166D01*
X766Y166D02*
X772Y166D01*
X779Y166D02*
X785Y166D01*
X1210Y166D02*
X1222Y166D01*
X1230Y166D02*
X1238Y166D01*
X1340Y166D02*
X1348Y166D01*
X1356Y166D02*
X1368Y166D01*
X7Y165D02*
X14Y165D01*
X766Y165D02*
X772Y165D01*
X779Y165D02*
X785Y165D01*
X1211Y165D02*
X1223Y165D01*
X1231Y165D02*
X1237Y165D01*
X1341Y165D02*
X1347Y165D01*
X1355Y165D02*
X1367Y165D01*
X7Y164D02*
X14Y164D01*
X766Y164D02*
X772Y164D01*
X779Y164D02*
X785Y164D01*
X1212Y164D02*
X1224Y164D01*
X1233Y164D02*
X1236Y164D01*
X1343Y164D02*
X1346Y164D01*
X1354Y164D02*
X1366Y164D01*
X7Y163D02*
X14Y163D01*
X766Y163D02*
X772Y163D01*
X779Y163D02*
X785Y163D01*
X1213Y163D02*
X1225Y163D01*
X1353Y163D02*
X1365Y163D01*
X7Y162D02*
X14Y162D01*
X760Y162D02*
X785Y162D01*
X1214Y162D02*
X1227Y162D01*
X1352Y162D02*
X1364Y162D01*
X7Y161D02*
X14Y161D01*
X760Y161D02*
X785Y161D01*
X1215Y161D02*
X1228Y161D01*
X1351Y161D02*
X1364Y161D01*
X7Y160D02*
X14Y160D01*
X760Y160D02*
X785Y160D01*
X1216Y160D02*
X1229Y160D01*
X1350Y160D02*
X1363Y160D01*
X7Y159D02*
X14Y159D01*
X760Y159D02*
X785Y159D01*
X1217Y159D02*
X1230Y159D01*
X1348Y159D02*
X1361Y159D01*
X7Y158D02*
X14Y158D01*
X760Y158D02*
X785Y158D01*
X1218Y158D02*
X1232Y158D01*
X1347Y158D02*
X1360Y158D01*
X7Y157D02*
X14Y157D01*
X760Y157D02*
X785Y157D01*
X1219Y157D02*
X1233Y157D01*
X1346Y157D02*
X1359Y157D01*
X7Y156D02*
X14Y156D01*
X760Y156D02*
X784Y156D01*
X1220Y156D02*
X1234Y156D01*
X1344Y156D02*
X1358Y156D01*
X7Y155D02*
X14Y155D01*
X1221Y155D02*
X1236Y155D01*
X1343Y155D02*
X1357Y155D01*
X7Y154D02*
X14Y154D01*
X1223Y154D02*
X1237Y154D01*
X1341Y154D02*
X1356Y154D01*
X7Y153D02*
X14Y153D01*
X1224Y153D02*
X1239Y153D01*
X1340Y153D02*
X1355Y153D01*
X7Y152D02*
X14Y152D01*
X1225Y152D02*
X1241Y152D01*
X1338Y152D02*
X1353Y152D01*
X7Y151D02*
X14Y151D01*
X1226Y151D02*
X1242Y151D01*
X1336Y151D02*
X1352Y151D01*
X7Y150D02*
X14Y150D01*
X1228Y150D02*
X1244Y150D01*
X1334Y150D02*
X1351Y150D01*
X7Y149D02*
X14Y149D01*
X1229Y149D02*
X1246Y149D01*
X1332Y149D02*
X1350Y149D01*
X7Y148D02*
X14Y148D01*
X1230Y148D02*
X1246Y148D01*
X1332Y148D02*
X1348Y148D01*
X7Y147D02*
X14Y147D01*
X1232Y147D02*
X1246Y147D01*
X1332Y147D02*
X1347Y147D01*
X7Y146D02*
X14Y146D01*
X1233Y146D02*
X1246Y146D01*
X1332Y146D02*
X1345Y146D01*
X7Y145D02*
X14Y145D01*
X1235Y145D02*
X1246Y145D01*
X1332Y145D02*
X1344Y145D01*
X7Y144D02*
X14Y144D01*
X1237Y144D02*
X1246Y144D01*
X1332Y144D02*
X1342Y144D01*
X7Y143D02*
X14Y143D01*
X1238Y143D02*
X1246Y143D01*
X1332Y143D02*
X1340Y143D01*
X7Y142D02*
X14Y142D01*
X1240Y142D02*
X1246Y142D01*
X1332Y142D02*
X1338Y142D01*
X7Y141D02*
X14Y141D01*
X1242Y141D02*
X1270Y141D01*
X1308Y141D02*
X1337Y141D01*
X7Y140D02*
X14Y140D01*
X1244Y140D02*
X1276Y140D01*
X1302Y140D02*
X1335Y140D01*
X7Y139D02*
X14Y139D01*
X1246Y139D02*
X1333Y139D01*
X7Y138D02*
X14Y138D01*
X1248Y138D02*
X1330Y138D01*
X7Y137D02*
X14Y137D01*
X1251Y137D02*
X1328Y137D01*
X7Y136D02*
X14Y136D01*
X1253Y136D02*
X1325Y136D01*
X7Y135D02*
X14Y135D01*
X1256Y135D02*
X1323Y135D01*
X7Y134D02*
X14Y134D01*
X1259Y134D02*
X1320Y134D01*
X7Y133D02*
X14Y133D01*
X1262Y133D02*
X1316Y133D01*
X7Y132D02*
X14Y132D01*
X1266Y132D02*
X1312Y132D01*
X7Y131D02*
X14Y131D01*
X1271Y131D02*
X1308Y131D01*
X7Y130D02*
X14Y130D01*
X1277Y130D02*
X1301Y130D01*
X7Y129D02*
X14Y129D01*
X7Y128D02*
X14Y128D01*
X7Y127D02*
X14Y127D01*
X7Y126D02*
X14Y126D01*
X7Y125D02*
X14Y125D01*
X7Y124D02*
X14Y124D01*
X7Y123D02*
X14Y123D01*
X1527Y123D02*
X1532Y123D01*
X7Y122D02*
X14Y122D01*
X1525Y122D02*
X1533Y122D01*
X7Y121D02*
X14Y121D01*
X196Y121D02*
X227Y121D01*
X476Y121D02*
X478Y121D01*
X1525Y121D02*
X1534Y121D01*
X7Y120D02*
X14Y120D01*
X196Y120D02*
X229Y120D01*
X475Y120D02*
X479Y120D01*
X1494Y120D02*
X1495Y120D01*
X1524Y120D02*
X1534Y120D01*
X1582Y120D02*
X1594Y120D01*
X7Y119D02*
X14Y119D01*
X196Y119D02*
X229Y119D01*
X474Y119D02*
X480Y119D01*
X1492Y119D02*
X1497Y119D01*
X1524Y119D02*
X1534Y119D01*
X1580Y119D02*
X1595Y119D01*
X7Y118D02*
X14Y118D01*
X196Y118D02*
X229Y118D01*
X304Y118D02*
X307Y118D01*
X474Y118D02*
X480Y118D01*
X1492Y118D02*
X1497Y118D01*
X1524Y118D02*
X1534Y118D01*
X1578Y118D02*
X1596Y118D01*
X7Y117D02*
X14Y117D01*
X196Y117D02*
X229Y117D01*
X303Y117D02*
X308Y117D01*
X474Y117D02*
X480Y117D01*
X1492Y117D02*
X1498Y117D01*
X1524Y117D02*
X1534Y117D01*
X1577Y117D02*
X1596Y117D01*
X7Y116D02*
X14Y116D01*
X196Y116D02*
X229Y116D01*
X303Y116D02*
X309Y116D01*
X474Y116D02*
X480Y116D01*
X1492Y116D02*
X1498Y116D01*
X1525Y116D02*
X1534Y116D01*
X1576Y116D02*
X1596Y116D01*
X7Y115D02*
X14Y115D01*
X196Y115D02*
X228Y115D01*
X303Y115D02*
X309Y115D01*
X474Y115D02*
X480Y115D01*
X1492Y115D02*
X1498Y115D01*
X1525Y115D02*
X1533Y115D01*
X1575Y115D02*
X1596Y115D01*
X7Y114D02*
X14Y114D01*
X196Y114D02*
X202Y114D01*
X303Y114D02*
X309Y114D01*
X474Y114D02*
X480Y114D01*
X1492Y114D02*
X1498Y114D01*
X1526Y114D02*
X1532Y114D01*
X1574Y114D02*
X1595Y114D01*
X7Y113D02*
X14Y113D01*
X196Y113D02*
X202Y113D01*
X303Y113D02*
X309Y113D01*
X474Y113D02*
X480Y113D01*
X1492Y113D02*
X1498Y113D01*
X1574Y113D02*
X1582Y113D01*
X7Y112D02*
X14Y112D01*
X196Y112D02*
X202Y112D01*
X303Y112D02*
X309Y112D01*
X474Y112D02*
X480Y112D01*
X1492Y112D02*
X1498Y112D01*
X1574Y112D02*
X1581Y112D01*
X7Y111D02*
X14Y111D01*
X196Y111D02*
X202Y111D01*
X303Y111D02*
X309Y111D01*
X474Y111D02*
X480Y111D01*
X1492Y111D02*
X1498Y111D01*
X1573Y111D02*
X1580Y111D01*
X7Y110D02*
X14Y110D01*
X196Y110D02*
X202Y110D01*
X303Y110D02*
X309Y110D01*
X474Y110D02*
X480Y110D01*
X1492Y110D02*
X1498Y110D01*
X1573Y110D02*
X1579Y110D01*
X7Y109D02*
X14Y109D01*
X196Y109D02*
X202Y109D01*
X303Y109D02*
X309Y109D01*
X474Y109D02*
X480Y109D01*
X1492Y109D02*
X1498Y109D01*
X1573Y109D02*
X1579Y109D01*
X7Y108D02*
X14Y108D01*
X196Y108D02*
X202Y108D01*
X303Y108D02*
X309Y108D01*
X474Y108D02*
X480Y108D01*
X1492Y108D02*
X1498Y108D01*
X1573Y108D02*
X1579Y108D01*
X7Y107D02*
X14Y107D01*
X196Y107D02*
X202Y107D01*
X303Y107D02*
X309Y107D01*
X474Y107D02*
X480Y107D01*
X1492Y107D02*
X1498Y107D01*
X1573Y107D02*
X1579Y107D01*
X7Y106D02*
X14Y106D01*
X196Y106D02*
X202Y106D01*
X247Y106D02*
X250Y106D01*
X261Y106D02*
X272Y106D01*
X297Y106D02*
X325Y106D01*
X348Y106D02*
X351Y106D01*
X361Y106D02*
X373Y106D01*
X405Y106D02*
X423Y106D01*
X456Y106D02*
X468Y106D01*
X474Y106D02*
X480Y106D01*
X505Y106D02*
X523Y106D01*
X1492Y106D02*
X1498Y106D01*
X1573Y106D02*
X1579Y106D01*
X7Y105D02*
X14Y105D01*
X196Y105D02*
X202Y105D01*
X246Y105D02*
X251Y105D01*
X259Y105D02*
X274Y105D01*
X296Y105D02*
X326Y105D01*
X347Y105D02*
X352Y105D01*
X360Y105D02*
X375Y105D01*
X404Y105D02*
X425Y105D01*
X454Y105D02*
X469Y105D01*
X474Y105D02*
X480Y105D01*
X504Y105D02*
X525Y105D01*
X1372Y105D02*
X1389Y105D01*
X1415Y105D02*
X1418Y105D01*
X1443Y105D02*
X1446Y105D01*
X1473Y105D02*
X1485Y105D01*
X1492Y105D02*
X1498Y105D01*
X1519Y105D02*
X1532Y105D01*
X1568Y105D02*
X1588Y105D01*
X1624Y105D02*
X1639Y105D01*
X1666Y105D02*
X1669Y105D01*
X1681Y105D02*
X1691Y105D01*
X1724Y105D02*
X1739Y105D01*
X1772Y105D02*
X1792Y105D01*
X7Y104D02*
X14Y104D01*
X196Y104D02*
X202Y104D01*
X246Y104D02*
X252Y104D01*
X258Y104D02*
X275Y104D01*
X296Y104D02*
X326Y104D01*
X346Y104D02*
X352Y104D01*
X359Y104D02*
X376Y104D01*
X403Y104D02*
X426Y104D01*
X452Y104D02*
X471Y104D01*
X474Y104D02*
X480Y104D01*
X504Y104D02*
X526Y104D01*
X1371Y104D02*
X1391Y104D01*
X1414Y104D02*
X1419Y104D01*
X1442Y104D02*
X1447Y104D01*
X1471Y104D02*
X1487Y104D01*
X1492Y104D02*
X1498Y104D01*
X1518Y104D02*
X1533Y104D01*
X1567Y104D02*
X1589Y104D01*
X1622Y104D02*
X1641Y104D01*
X1665Y104D02*
X1670Y104D01*
X1679Y104D02*
X1693Y104D01*
X1722Y104D02*
X1741Y104D01*
X1770Y104D02*
X1794Y104D01*
X7Y103D02*
X14Y103D01*
X196Y103D02*
X202Y103D01*
X246Y103D02*
X252Y103D01*
X256Y103D02*
X276Y103D01*
X296Y103D02*
X326Y103D01*
X346Y103D02*
X352Y103D01*
X358Y103D02*
X377Y103D01*
X403Y103D02*
X427Y103D01*
X451Y103D02*
X472Y103D01*
X474Y103D02*
X480Y103D01*
X504Y103D02*
X527Y103D01*
X1371Y103D02*
X1393Y103D01*
X1414Y103D02*
X1420Y103D01*
X1441Y103D02*
X1447Y103D01*
X1470Y103D02*
X1488Y103D01*
X1492Y103D02*
X1498Y103D01*
X1518Y103D02*
X1534Y103D01*
X1566Y103D02*
X1589Y103D01*
X1621Y103D02*
X1642Y103D01*
X1665Y103D02*
X1671Y103D01*
X1677Y103D02*
X1694Y103D01*
X1721Y103D02*
X1742Y103D01*
X1769Y103D02*
X1796Y103D01*
X7Y102D02*
X14Y102D01*
X196Y102D02*
X202Y102D01*
X246Y102D02*
X252Y102D01*
X255Y102D02*
X277Y102D01*
X296Y102D02*
X326Y102D01*
X346Y102D02*
X352Y102D01*
X357Y102D02*
X378Y102D01*
X403Y102D02*
X427Y102D01*
X450Y102D02*
X480Y102D01*
X504Y102D02*
X528Y102D01*
X1370Y102D02*
X1394Y102D01*
X1414Y102D02*
X1420Y102D01*
X1441Y102D02*
X1447Y102D01*
X1469Y102D02*
X1489Y102D01*
X1492Y102D02*
X1498Y102D01*
X1518Y102D02*
X1534Y102D01*
X1566Y102D02*
X1589Y102D01*
X1619Y102D02*
X1643Y102D01*
X1665Y102D02*
X1671Y102D01*
X1675Y102D02*
X1695Y102D01*
X1720Y102D02*
X1744Y102D01*
X1768Y102D02*
X1797Y102D01*
X7Y101D02*
X14Y101D01*
X196Y101D02*
X202Y101D01*
X246Y101D02*
X277Y101D01*
X297Y101D02*
X325Y101D01*
X346Y101D02*
X352Y101D01*
X355Y101D02*
X379Y101D01*
X404Y101D02*
X428Y101D01*
X449Y101D02*
X480Y101D01*
X504Y101D02*
X528Y101D01*
X1371Y101D02*
X1394Y101D01*
X1414Y101D02*
X1420Y101D01*
X1441Y101D02*
X1447Y101D01*
X1468Y101D02*
X1498Y101D01*
X1518Y101D02*
X1534Y101D01*
X1566Y101D02*
X1589Y101D01*
X1618Y101D02*
X1644Y101D01*
X1665Y101D02*
X1671Y101D01*
X1674Y101D02*
X1696Y101D01*
X1719Y101D02*
X1745Y101D01*
X1767Y101D02*
X1797Y101D01*
X7Y100D02*
X14Y100D01*
X196Y100D02*
X202Y100D01*
X246Y100D02*
X278Y100D01*
X298Y100D02*
X324Y100D01*
X346Y100D02*
X352Y100D01*
X354Y100D02*
X379Y100D01*
X405Y100D02*
X428Y100D01*
X448Y100D02*
X480Y100D01*
X506Y100D02*
X529Y100D01*
X1371Y100D02*
X1395Y100D01*
X1414Y100D02*
X1420Y100D01*
X1441Y100D02*
X1447Y100D01*
X1467Y100D02*
X1498Y100D01*
X1518Y100D02*
X1534Y100D01*
X1567Y100D02*
X1589Y100D01*
X1617Y100D02*
X1645Y100D01*
X1665Y100D02*
X1696Y100D01*
X1718Y100D02*
X1746Y100D01*
X1766Y100D02*
X1798Y100D01*
X7Y99D02*
X14Y99D01*
X196Y99D02*
X202Y99D01*
X246Y99D02*
X262Y99D01*
X271Y99D02*
X278Y99D01*
X303Y99D02*
X309Y99D01*
X346Y99D02*
X363Y99D01*
X372Y99D02*
X379Y99D01*
X422Y99D02*
X429Y99D01*
X448Y99D02*
X456Y99D01*
X467Y99D02*
X480Y99D01*
X522Y99D02*
X529Y99D01*
X1372Y99D02*
X1396Y99D01*
X1414Y99D02*
X1420Y99D01*
X1441Y99D02*
X1447Y99D01*
X1466Y99D02*
X1498Y99D01*
X1519Y99D02*
X1534Y99D01*
X1568Y99D02*
X1587Y99D01*
X1616Y99D02*
X1646Y99D01*
X1665Y99D02*
X1697Y99D01*
X1717Y99D02*
X1747Y99D01*
X1766Y99D02*
X1798Y99D01*
X7Y98D02*
X14Y98D01*
X196Y98D02*
X202Y98D01*
X246Y98D02*
X260Y98D01*
X272Y98D02*
X278Y98D01*
X303Y98D02*
X309Y98D01*
X346Y98D02*
X362Y98D01*
X373Y98D02*
X380Y98D01*
X423Y98D02*
X429Y98D01*
X447Y98D02*
X455Y98D01*
X468Y98D02*
X480Y98D01*
X523Y98D02*
X529Y98D01*
X1389Y98D02*
X1396Y98D01*
X1414Y98D02*
X1420Y98D01*
X1441Y98D02*
X1447Y98D01*
X1465Y98D02*
X1474Y98D01*
X1484Y98D02*
X1498Y98D01*
X1528Y98D02*
X1534Y98D01*
X1573Y98D02*
X1579Y98D01*
X1616Y98D02*
X1624Y98D01*
X1638Y98D02*
X1647Y98D01*
X1665Y98D02*
X1681Y98D01*
X1690Y98D02*
X1697Y98D01*
X1716Y98D02*
X1725Y98D01*
X1739Y98D02*
X1747Y98D01*
X1766Y98D02*
X1772Y98D01*
X1791Y98D02*
X1798Y98D01*
X7Y97D02*
X14Y97D01*
X196Y97D02*
X214Y97D01*
X246Y97D02*
X259Y97D01*
X272Y97D02*
X278Y97D01*
X303Y97D02*
X309Y97D01*
X346Y97D02*
X361Y97D01*
X374Y97D02*
X380Y97D01*
X423Y97D02*
X429Y97D01*
X447Y97D02*
X454Y97D01*
X469Y97D02*
X480Y97D01*
X523Y97D02*
X529Y97D01*
X1390Y97D02*
X1396Y97D01*
X1414Y97D02*
X1420Y97D01*
X1441Y97D02*
X1447Y97D01*
X1465Y97D02*
X1473Y97D01*
X1485Y97D02*
X1498Y97D01*
X1528Y97D02*
X1534Y97D01*
X1573Y97D02*
X1579Y97D01*
X1615Y97D02*
X1623Y97D01*
X1640Y97D02*
X1647Y97D01*
X1665Y97D02*
X1680Y97D01*
X1691Y97D02*
X1697Y97D01*
X1716Y97D02*
X1724Y97D01*
X1740Y97D02*
X1748Y97D01*
X1766Y97D02*
X1772Y97D01*
X1793Y97D02*
X1797Y97D01*
X7Y96D02*
X14Y96D01*
X196Y96D02*
X215Y96D01*
X246Y96D02*
X257Y96D01*
X273Y96D02*
X279Y96D01*
X303Y96D02*
X309Y96D01*
X346Y96D02*
X359Y96D01*
X374Y96D02*
X380Y96D01*
X423Y96D02*
X429Y96D01*
X447Y96D02*
X453Y96D01*
X470Y96D02*
X480Y96D01*
X523Y96D02*
X529Y96D01*
X1390Y96D02*
X1396Y96D01*
X1414Y96D02*
X1420Y96D01*
X1441Y96D02*
X1447Y96D01*
X1464Y96D02*
X1472Y96D01*
X1486Y96D02*
X1498Y96D01*
X1528Y96D02*
X1534Y96D01*
X1573Y96D02*
X1579Y96D01*
X1615Y96D02*
X1622Y96D01*
X1641Y96D02*
X1648Y96D01*
X1665Y96D02*
X1678Y96D01*
X1691Y96D02*
X1697Y96D01*
X1715Y96D02*
X1723Y96D01*
X1741Y96D02*
X1748Y96D01*
X1766Y96D02*
X1772Y96D01*
X1794Y96D02*
X1796Y96D01*
X7Y95D02*
X14Y95D01*
X196Y95D02*
X215Y95D01*
X246Y95D02*
X256Y95D01*
X273Y95D02*
X279Y95D01*
X303Y95D02*
X309Y95D01*
X346Y95D02*
X358Y95D01*
X374Y95D02*
X380Y95D01*
X423Y95D02*
X429Y95D01*
X447Y95D02*
X453Y95D01*
X472Y95D02*
X480Y95D01*
X523Y95D02*
X530Y95D01*
X1390Y95D02*
X1396Y95D01*
X1414Y95D02*
X1420Y95D01*
X1441Y95D02*
X1447Y95D01*
X1464Y95D02*
X1471Y95D01*
X1488Y95D02*
X1498Y95D01*
X1528Y95D02*
X1534Y95D01*
X1573Y95D02*
X1579Y95D01*
X1615Y95D02*
X1621Y95D01*
X1641Y95D02*
X1648Y95D01*
X1665Y95D02*
X1676Y95D01*
X1691Y95D02*
X1697Y95D01*
X1715Y95D02*
X1722Y95D01*
X1742Y95D02*
X1748Y95D01*
X1766Y95D02*
X1773Y95D01*
X7Y94D02*
X14Y94D01*
X196Y94D02*
X215Y94D01*
X246Y94D02*
X254Y94D01*
X273Y94D02*
X279Y94D01*
X303Y94D02*
X309Y94D01*
X346Y94D02*
X357Y94D01*
X374Y94D02*
X380Y94D01*
X423Y94D02*
X429Y94D01*
X447Y94D02*
X453Y94D01*
X473Y94D02*
X480Y94D01*
X524Y94D02*
X530Y94D01*
X1390Y94D02*
X1396Y94D01*
X1414Y94D02*
X1420Y94D01*
X1441Y94D02*
X1447Y94D01*
X1464Y94D02*
X1470Y94D01*
X1489Y94D02*
X1498Y94D01*
X1528Y94D02*
X1534Y94D01*
X1573Y94D02*
X1579Y94D01*
X1615Y94D02*
X1621Y94D01*
X1642Y94D02*
X1648Y94D01*
X1665Y94D02*
X1675Y94D01*
X1691Y94D02*
X1697Y94D01*
X1715Y94D02*
X1721Y94D01*
X1742Y94D02*
X1748Y94D01*
X1766Y94D02*
X1775Y94D01*
X7Y93D02*
X14Y93D01*
X196Y93D02*
X215Y93D01*
X246Y93D02*
X253Y93D01*
X273Y93D02*
X279Y93D01*
X303Y93D02*
X309Y93D01*
X346Y93D02*
X356Y93D01*
X374Y93D02*
X379Y93D01*
X423Y93D02*
X429Y93D01*
X447Y93D02*
X453Y93D01*
X474Y93D02*
X480Y93D01*
X524Y93D02*
X530Y93D01*
X1390Y93D02*
X1396Y93D01*
X1414Y93D02*
X1420Y93D01*
X1441Y93D02*
X1447Y93D01*
X1464Y93D02*
X1470Y93D01*
X1490Y93D02*
X1498Y93D01*
X1528Y93D02*
X1534Y93D01*
X1573Y93D02*
X1579Y93D01*
X1615Y93D02*
X1621Y93D01*
X1642Y93D02*
X1648Y93D01*
X1665Y93D02*
X1673Y93D01*
X1691Y93D02*
X1697Y93D01*
X1715Y93D02*
X1721Y93D01*
X1742Y93D02*
X1748Y93D01*
X1767Y93D02*
X1777Y93D01*
X7Y92D02*
X14Y92D01*
X196Y92D02*
X214Y92D01*
X246Y92D02*
X252Y92D01*
X273Y92D02*
X279Y92D01*
X303Y92D02*
X309Y92D01*
X346Y92D02*
X355Y92D01*
X375Y92D02*
X379Y92D01*
X406Y92D02*
X420Y92D01*
X423Y92D02*
X429Y92D01*
X447Y92D02*
X453Y92D01*
X474Y92D02*
X480Y92D01*
X506Y92D02*
X521Y92D01*
X523Y92D02*
X530Y92D01*
X1390Y92D02*
X1396Y92D01*
X1414Y92D02*
X1420Y92D01*
X1441Y92D02*
X1447Y92D01*
X1464Y92D02*
X1470Y92D01*
X1491Y92D02*
X1498Y92D01*
X1528Y92D02*
X1534Y92D01*
X1573Y92D02*
X1579Y92D01*
X1615Y92D02*
X1621Y92D01*
X1642Y92D02*
X1648Y92D01*
X1665Y92D02*
X1672Y92D01*
X1692Y92D02*
X1698Y92D01*
X1715Y92D02*
X1721Y92D01*
X1742Y92D02*
X1748Y92D01*
X1767Y92D02*
X1780Y92D01*
X7Y91D02*
X14Y91D01*
X196Y91D02*
X212Y91D01*
X246Y91D02*
X252Y91D01*
X273Y91D02*
X279Y91D01*
X303Y91D02*
X309Y91D01*
X346Y91D02*
X354Y91D01*
X377Y91D02*
X377Y91D01*
X402Y91D02*
X429Y91D01*
X447Y91D02*
X453Y91D01*
X474Y91D02*
X480Y91D01*
X503Y91D02*
X530Y91D01*
X1390Y91D02*
X1396Y91D01*
X1414Y91D02*
X1420Y91D01*
X1441Y91D02*
X1447Y91D01*
X1464Y91D02*
X1470Y91D01*
X1491Y91D02*
X1498Y91D01*
X1528Y91D02*
X1534Y91D01*
X1573Y91D02*
X1579Y91D01*
X1615Y91D02*
X1621Y91D01*
X1642Y91D02*
X1648Y91D01*
X1665Y91D02*
X1671Y91D01*
X1692Y91D02*
X1698Y91D01*
X1715Y91D02*
X1721Y91D01*
X1742Y91D02*
X1748Y91D01*
X1768Y91D02*
X1782Y91D01*
X7Y90D02*
X14Y90D01*
X196Y90D02*
X202Y90D01*
X246Y90D02*
X252Y90D01*
X273Y90D02*
X279Y90D01*
X303Y90D02*
X309Y90D01*
X346Y90D02*
X352Y90D01*
X401Y90D02*
X429Y90D01*
X447Y90D02*
X453Y90D01*
X474Y90D02*
X480Y90D01*
X501Y90D02*
X530Y90D01*
X1370Y90D02*
X1396Y90D01*
X1414Y90D02*
X1420Y90D01*
X1441Y90D02*
X1447Y90D01*
X1464Y90D02*
X1470Y90D01*
X1492Y90D02*
X1498Y90D01*
X1528Y90D02*
X1534Y90D01*
X1573Y90D02*
X1579Y90D01*
X1615Y90D02*
X1621Y90D01*
X1642Y90D02*
X1648Y90D01*
X1665Y90D02*
X1671Y90D01*
X1692Y90D02*
X1698Y90D01*
X1715Y90D02*
X1721Y90D01*
X1742Y90D02*
X1748Y90D01*
X1769Y90D02*
X1784Y90D01*
X7Y89D02*
X14Y89D01*
X196Y89D02*
X202Y89D01*
X246Y89D02*
X252Y89D01*
X273Y89D02*
X279Y89D01*
X303Y89D02*
X309Y89D01*
X346Y89D02*
X352Y89D01*
X399Y89D02*
X429Y89D01*
X447Y89D02*
X453Y89D01*
X474Y89D02*
X480Y89D01*
X500Y89D02*
X530Y89D01*
X1368Y89D02*
X1396Y89D01*
X1414Y89D02*
X1420Y89D01*
X1441Y89D02*
X1447Y89D01*
X1464Y89D02*
X1470Y89D01*
X1492Y89D02*
X1498Y89D01*
X1528Y89D02*
X1534Y89D01*
X1573Y89D02*
X1579Y89D01*
X1615Y89D02*
X1621Y89D01*
X1642Y89D02*
X1648Y89D01*
X1665Y89D02*
X1671Y89D01*
X1692Y89D02*
X1698Y89D01*
X1715Y89D02*
X1721Y89D01*
X1742Y89D02*
X1748Y89D01*
X1770Y89D02*
X1787Y89D01*
X7Y88D02*
X14Y88D01*
X196Y88D02*
X202Y88D01*
X246Y88D02*
X252Y88D01*
X273Y88D02*
X279Y88D01*
X303Y88D02*
X309Y88D01*
X346Y88D02*
X352Y88D01*
X399Y88D02*
X429Y88D01*
X447Y88D02*
X453Y88D01*
X474Y88D02*
X480Y88D01*
X499Y88D02*
X530Y88D01*
X1367Y88D02*
X1397Y88D01*
X1414Y88D02*
X1420Y88D01*
X1441Y88D02*
X1447Y88D01*
X1464Y88D02*
X1470Y88D01*
X1492Y88D02*
X1498Y88D01*
X1528Y88D02*
X1534Y88D01*
X1573Y88D02*
X1579Y88D01*
X1615Y88D02*
X1621Y88D01*
X1642Y88D02*
X1648Y88D01*
X1665Y88D02*
X1671Y88D01*
X1692Y88D02*
X1698Y88D01*
X1715Y88D02*
X1721Y88D01*
X1742Y88D02*
X1748Y88D01*
X1772Y88D02*
X1789Y88D01*
X7Y87D02*
X14Y87D01*
X196Y87D02*
X202Y87D01*
X246Y87D02*
X252Y87D01*
X273Y87D02*
X279Y87D01*
X303Y87D02*
X309Y87D01*
X346Y87D02*
X352Y87D01*
X398Y87D02*
X429Y87D01*
X447Y87D02*
X453Y87D01*
X474Y87D02*
X480Y87D01*
X498Y87D02*
X530Y87D01*
X1366Y87D02*
X1397Y87D01*
X1414Y87D02*
X1420Y87D01*
X1441Y87D02*
X1447Y87D01*
X1464Y87D02*
X1470Y87D01*
X1492Y87D02*
X1498Y87D01*
X1528Y87D02*
X1534Y87D01*
X1573Y87D02*
X1579Y87D01*
X1615Y87D02*
X1621Y87D01*
X1642Y87D02*
X1648Y87D01*
X1665Y87D02*
X1671Y87D01*
X1692Y87D02*
X1698Y87D01*
X1715Y87D02*
X1721Y87D01*
X1742Y87D02*
X1748Y87D01*
X1775Y87D02*
X1791Y87D01*
X7Y86D02*
X14Y86D01*
X196Y86D02*
X202Y86D01*
X246Y86D02*
X252Y86D01*
X273Y86D02*
X279Y86D01*
X303Y86D02*
X309Y86D01*
X346Y86D02*
X352Y86D01*
X397Y86D02*
X429Y86D01*
X447Y86D02*
X453Y86D01*
X474Y86D02*
X480Y86D01*
X498Y86D02*
X530Y86D01*
X1365Y86D02*
X1397Y86D01*
X1414Y86D02*
X1420Y86D01*
X1441Y86D02*
X1447Y86D01*
X1464Y86D02*
X1470Y86D01*
X1492Y86D02*
X1498Y86D01*
X1528Y86D02*
X1534Y86D01*
X1573Y86D02*
X1579Y86D01*
X1615Y86D02*
X1621Y86D01*
X1642Y86D02*
X1648Y86D01*
X1665Y86D02*
X1671Y86D01*
X1692Y86D02*
X1698Y86D01*
X1715Y86D02*
X1721Y86D01*
X1742Y86D02*
X1748Y86D01*
X1777Y86D02*
X1793Y86D01*
X7Y85D02*
X14Y85D01*
X196Y85D02*
X202Y85D01*
X246Y85D02*
X252Y85D01*
X273Y85D02*
X279Y85D01*
X303Y85D02*
X309Y85D01*
X346Y85D02*
X352Y85D01*
X397Y85D02*
X405Y85D01*
X421Y85D02*
X429Y85D01*
X447Y85D02*
X453Y85D01*
X474Y85D02*
X480Y85D01*
X497Y85D02*
X506Y85D01*
X521Y85D02*
X530Y85D01*
X1365Y85D02*
X1397Y85D01*
X1414Y85D02*
X1420Y85D01*
X1441Y85D02*
X1447Y85D01*
X1464Y85D02*
X1470Y85D01*
X1492Y85D02*
X1498Y85D01*
X1528Y85D02*
X1534Y85D01*
X1573Y85D02*
X1579Y85D01*
X1615Y85D02*
X1621Y85D01*
X1642Y85D02*
X1648Y85D01*
X1665Y85D02*
X1671Y85D01*
X1692Y85D02*
X1698Y85D01*
X1715Y85D02*
X1721Y85D01*
X1742Y85D02*
X1748Y85D01*
X1779Y85D02*
X1795Y85D01*
X7Y84D02*
X14Y84D01*
X196Y84D02*
X202Y84D01*
X246Y84D02*
X252Y84D01*
X273Y84D02*
X279Y84D01*
X303Y84D02*
X309Y84D01*
X346Y84D02*
X352Y84D01*
X397Y84D02*
X403Y84D01*
X422Y84D02*
X430Y84D01*
X447Y84D02*
X453Y84D01*
X474Y84D02*
X480Y84D01*
X497Y84D02*
X504Y84D01*
X523Y84D02*
X530Y84D01*
X1364Y84D02*
X1397Y84D01*
X1414Y84D02*
X1420Y84D01*
X1441Y84D02*
X1447Y84D01*
X1464Y84D02*
X1470Y84D01*
X1492Y84D02*
X1498Y84D01*
X1528Y84D02*
X1534Y84D01*
X1573Y84D02*
X1579Y84D01*
X1615Y84D02*
X1621Y84D01*
X1642Y84D02*
X1648Y84D01*
X1665Y84D02*
X1671Y84D01*
X1692Y84D02*
X1698Y84D01*
X1715Y84D02*
X1721Y84D01*
X1742Y84D02*
X1748Y84D01*
X1782Y84D02*
X1796Y84D01*
X7Y83D02*
X14Y83D01*
X196Y83D02*
X202Y83D01*
X246Y83D02*
X252Y83D01*
X273Y83D02*
X279Y83D01*
X303Y83D02*
X309Y83D01*
X346Y83D02*
X352Y83D01*
X396Y83D02*
X403Y83D01*
X423Y83D02*
X430Y83D01*
X447Y83D02*
X453Y83D01*
X474Y83D02*
X480Y83D01*
X497Y83D02*
X503Y83D01*
X524Y83D02*
X530Y83D01*
X1364Y83D02*
X1371Y83D01*
X1389Y83D02*
X1397Y83D01*
X1414Y83D02*
X1420Y83D01*
X1441Y83D02*
X1447Y83D01*
X1464Y83D02*
X1470Y83D01*
X1492Y83D02*
X1498Y83D01*
X1528Y83D02*
X1534Y83D01*
X1573Y83D02*
X1579Y83D01*
X1615Y83D02*
X1621Y83D01*
X1642Y83D02*
X1648Y83D01*
X1665Y83D02*
X1671Y83D01*
X1692Y83D02*
X1698Y83D01*
X1715Y83D02*
X1721Y83D01*
X1742Y83D02*
X1748Y83D01*
X1784Y83D02*
X1797Y83D01*
X7Y82D02*
X14Y82D01*
X196Y82D02*
X202Y82D01*
X246Y82D02*
X252Y82D01*
X273Y82D02*
X279Y82D01*
X303Y82D02*
X309Y82D01*
X346Y82D02*
X352Y82D01*
X396Y82D02*
X402Y82D01*
X424Y82D02*
X430Y82D01*
X447Y82D02*
X453Y82D01*
X474Y82D02*
X480Y82D01*
X497Y82D02*
X503Y82D01*
X524Y82D02*
X530Y82D01*
X1364Y82D02*
X1370Y82D01*
X1390Y82D02*
X1397Y82D01*
X1414Y82D02*
X1420Y82D01*
X1441Y82D02*
X1447Y82D01*
X1464Y82D02*
X1470Y82D01*
X1492Y82D02*
X1498Y82D01*
X1528Y82D02*
X1534Y82D01*
X1573Y82D02*
X1579Y82D01*
X1615Y82D02*
X1621Y82D01*
X1642Y82D02*
X1648Y82D01*
X1665Y82D02*
X1671Y82D01*
X1692Y82D02*
X1698Y82D01*
X1715Y82D02*
X1721Y82D01*
X1742Y82D02*
X1748Y82D01*
X1786Y82D02*
X1797Y82D01*
X7Y81D02*
X14Y81D01*
X196Y81D02*
X202Y81D01*
X246Y81D02*
X252Y81D01*
X273Y81D02*
X279Y81D01*
X303Y81D02*
X309Y81D01*
X346Y81D02*
X352Y81D01*
X396Y81D02*
X402Y81D01*
X424Y81D02*
X430Y81D01*
X447Y81D02*
X453Y81D01*
X474Y81D02*
X480Y81D01*
X497Y81D02*
X503Y81D01*
X524Y81D02*
X530Y81D01*
X1364Y81D02*
X1370Y81D01*
X1391Y81D02*
X1397Y81D01*
X1414Y81D02*
X1420Y81D01*
X1441Y81D02*
X1447Y81D01*
X1464Y81D02*
X1470Y81D01*
X1491Y81D02*
X1498Y81D01*
X1528Y81D02*
X1534Y81D01*
X1573Y81D02*
X1579Y81D01*
X1615Y81D02*
X1621Y81D01*
X1642Y81D02*
X1648Y81D01*
X1665Y81D02*
X1671Y81D01*
X1692Y81D02*
X1698Y81D01*
X1715Y81D02*
X1721Y81D01*
X1742Y81D02*
X1748Y81D01*
X1789Y81D02*
X1798Y81D01*
X7Y80D02*
X14Y80D01*
X196Y80D02*
X202Y80D01*
X246Y80D02*
X252Y80D01*
X273Y80D02*
X279Y80D01*
X303Y80D02*
X309Y80D01*
X326Y80D02*
X327Y80D01*
X346Y80D02*
X352Y80D01*
X396Y80D02*
X402Y80D01*
X424Y80D02*
X430Y80D01*
X447Y80D02*
X453Y80D01*
X473Y80D02*
X480Y80D01*
X497Y80D02*
X503Y80D01*
X524Y80D02*
X530Y80D01*
X1364Y80D02*
X1370Y80D01*
X1391Y80D02*
X1397Y80D01*
X1414Y80D02*
X1421Y80D01*
X1441Y80D02*
X1447Y80D01*
X1464Y80D02*
X1470Y80D01*
X1491Y80D02*
X1498Y80D01*
X1528Y80D02*
X1534Y80D01*
X1573Y80D02*
X1579Y80D01*
X1615Y80D02*
X1621Y80D01*
X1642Y80D02*
X1648Y80D01*
X1665Y80D02*
X1671Y80D01*
X1692Y80D02*
X1698Y80D01*
X1715Y80D02*
X1721Y80D01*
X1742Y80D02*
X1748Y80D01*
X1791Y80D02*
X1798Y80D01*
X7Y79D02*
X14Y79D01*
X196Y79D02*
X202Y79D01*
X246Y79D02*
X252Y79D01*
X273Y79D02*
X279Y79D01*
X303Y79D02*
X309Y79D01*
X325Y79D02*
X329Y79D01*
X346Y79D02*
X352Y79D01*
X396Y79D02*
X402Y79D01*
X423Y79D02*
X430Y79D01*
X447Y79D02*
X453Y79D01*
X471Y79D02*
X480Y79D01*
X497Y79D02*
X503Y79D01*
X524Y79D02*
X530Y79D01*
X1364Y79D02*
X1370Y79D01*
X1391Y79D02*
X1397Y79D01*
X1415Y79D02*
X1421Y79D01*
X1439Y79D02*
X1447Y79D01*
X1464Y79D02*
X1470Y79D01*
X1490Y79D02*
X1498Y79D01*
X1528Y79D02*
X1534Y79D01*
X1573Y79D02*
X1579Y79D01*
X1615Y79D02*
X1621Y79D01*
X1642Y79D02*
X1648Y79D01*
X1665Y79D02*
X1671Y79D01*
X1692Y79D02*
X1698Y79D01*
X1715Y79D02*
X1721Y79D01*
X1742Y79D02*
X1748Y79D01*
X1792Y79D02*
X1798Y79D01*
X7Y78D02*
X14Y78D01*
X196Y78D02*
X202Y78D01*
X246Y78D02*
X252Y78D01*
X273Y78D02*
X279Y78D01*
X303Y78D02*
X309Y78D01*
X324Y78D02*
X329Y78D01*
X346Y78D02*
X352Y78D01*
X396Y78D02*
X402Y78D01*
X422Y78D02*
X430Y78D01*
X447Y78D02*
X453Y78D01*
X470Y78D02*
X480Y78D01*
X497Y78D02*
X503Y78D01*
X523Y78D02*
X530Y78D01*
X1364Y78D02*
X1370Y78D01*
X1391Y78D02*
X1397Y78D01*
X1415Y78D02*
X1421Y78D01*
X1438Y78D02*
X1447Y78D01*
X1464Y78D02*
X1470Y78D01*
X1489Y78D02*
X1498Y78D01*
X1528Y78D02*
X1534Y78D01*
X1573Y78D02*
X1579Y78D01*
X1615Y78D02*
X1621Y78D01*
X1642Y78D02*
X1648Y78D01*
X1665Y78D02*
X1671Y78D01*
X1692Y78D02*
X1698Y78D01*
X1715Y78D02*
X1721Y78D01*
X1742Y78D02*
X1748Y78D01*
X1792Y78D02*
X1799Y78D01*
X7Y77D02*
X14Y77D01*
X196Y77D02*
X202Y77D01*
X246Y77D02*
X252Y77D01*
X273Y77D02*
X279Y77D01*
X303Y77D02*
X309Y77D01*
X324Y77D02*
X330Y77D01*
X346Y77D02*
X352Y77D01*
X396Y77D02*
X403Y77D01*
X421Y77D02*
X430Y77D01*
X447Y77D02*
X454Y77D01*
X469Y77D02*
X480Y77D01*
X497Y77D02*
X503Y77D01*
X521Y77D02*
X530Y77D01*
X1364Y77D02*
X1370Y77D01*
X1390Y77D02*
X1397Y77D01*
X1415Y77D02*
X1421Y77D01*
X1436Y77D02*
X1447Y77D01*
X1464Y77D02*
X1471Y77D01*
X1488Y77D02*
X1498Y77D01*
X1528Y77D02*
X1534Y77D01*
X1573Y77D02*
X1579Y77D01*
X1615Y77D02*
X1621Y77D01*
X1642Y77D02*
X1648Y77D01*
X1665Y77D02*
X1671Y77D01*
X1692Y77D02*
X1698Y77D01*
X1715Y77D02*
X1721Y77D01*
X1742Y77D02*
X1748Y77D01*
X1792Y77D02*
X1799Y77D01*
X7Y76D02*
X14Y76D01*
X196Y76D02*
X202Y76D01*
X246Y76D02*
X252Y76D01*
X273Y76D02*
X279Y76D01*
X303Y76D02*
X309Y76D01*
X323Y76D02*
X330Y76D01*
X346Y76D02*
X352Y76D01*
X397Y76D02*
X403Y76D01*
X419Y76D02*
X430Y76D01*
X447Y76D02*
X455Y76D01*
X468Y76D02*
X480Y76D01*
X497Y76D02*
X503Y76D01*
X519Y76D02*
X530Y76D01*
X1364Y76D02*
X1370Y76D01*
X1388Y76D02*
X1397Y76D01*
X1415Y76D02*
X1421Y76D01*
X1434Y76D02*
X1447Y76D01*
X1464Y76D02*
X1471Y76D01*
X1487Y76D02*
X1498Y76D01*
X1528Y76D02*
X1534Y76D01*
X1573Y76D02*
X1579Y76D01*
X1615Y76D02*
X1622Y76D01*
X1641Y76D02*
X1648Y76D01*
X1665Y76D02*
X1671Y76D01*
X1692Y76D02*
X1698Y76D01*
X1715Y76D02*
X1722Y76D01*
X1741Y76D02*
X1748Y76D01*
X1768Y76D02*
X1768Y76D01*
X1792Y76D02*
X1799Y76D01*
X7Y75D02*
X14Y75D01*
X196Y75D02*
X202Y75D01*
X246Y75D02*
X252Y75D01*
X273Y75D02*
X279Y75D01*
X303Y75D02*
X310Y75D01*
X322Y75D02*
X329Y75D01*
X346Y75D02*
X352Y75D01*
X397Y75D02*
X404Y75D01*
X417Y75D02*
X430Y75D01*
X448Y75D02*
X457Y75D01*
X467Y75D02*
X480Y75D01*
X497Y75D02*
X504Y75D01*
X518Y75D02*
X530Y75D01*
X1364Y75D02*
X1370Y75D01*
X1386Y75D02*
X1397Y75D01*
X1415Y75D02*
X1421Y75D01*
X1433Y75D02*
X1447Y75D01*
X1465Y75D02*
X1472Y75D01*
X1485Y75D02*
X1498Y75D01*
X1528Y75D02*
X1534Y75D01*
X1573Y75D02*
X1579Y75D01*
X1615Y75D02*
X1623Y75D01*
X1640Y75D02*
X1647Y75D01*
X1665Y75D02*
X1671Y75D01*
X1692Y75D02*
X1698Y75D01*
X1716Y75D02*
X1723Y75D01*
X1740Y75D02*
X1748Y75D01*
X1766Y75D02*
X1770Y75D01*
X1792Y75D02*
X1798Y75D01*
X7Y74D02*
X14Y74D01*
X196Y74D02*
X227Y74D01*
X246Y74D02*
X252Y74D01*
X273Y74D02*
X279Y74D01*
X304Y74D02*
X329Y74D01*
X346Y74D02*
X352Y74D01*
X397Y74D02*
X430Y74D01*
X448Y74D02*
X480Y74D01*
X497Y74D02*
X530Y74D01*
X1364Y74D02*
X1371Y74D01*
X1385Y74D02*
X1397Y74D01*
X1415Y74D02*
X1422Y74D01*
X1431Y74D02*
X1447Y74D01*
X1465Y74D02*
X1474Y74D01*
X1484Y74D02*
X1498Y74D01*
X1528Y74D02*
X1534Y74D01*
X1573Y74D02*
X1579Y74D01*
X1616Y74D02*
X1624Y74D01*
X1638Y74D02*
X1647Y74D01*
X1665Y74D02*
X1671Y74D01*
X1692Y74D02*
X1698Y74D01*
X1716Y74D02*
X1725Y74D01*
X1739Y74D02*
X1747Y74D01*
X1765Y74D02*
X1772Y74D01*
X1791Y74D02*
X1798Y74D01*
X7Y73D02*
X14Y73D01*
X196Y73D02*
X228Y73D01*
X246Y73D02*
X252Y73D01*
X273Y73D02*
X279Y73D01*
X304Y73D02*
X328Y73D01*
X346Y73D02*
X352Y73D01*
X398Y73D02*
X430Y73D01*
X449Y73D02*
X480Y73D01*
X498Y73D02*
X530Y73D01*
X1364Y73D02*
X1397Y73D01*
X1415Y73D02*
X1447Y73D01*
X1466Y73D02*
X1498Y73D01*
X1520Y73D02*
X1542Y73D01*
X1573Y73D02*
X1579Y73D01*
X1616Y73D02*
X1646Y73D01*
X1665Y73D02*
X1671Y73D01*
X1692Y73D02*
X1698Y73D01*
X1717Y73D02*
X1747Y73D01*
X1765Y73D02*
X1798Y73D01*
X7Y72D02*
X14Y72D01*
X196Y72D02*
X229Y72D01*
X246Y72D02*
X252Y72D01*
X273Y72D02*
X279Y72D01*
X305Y72D02*
X328Y72D01*
X346Y72D02*
X352Y72D01*
X398Y72D02*
X430Y72D01*
X450Y72D02*
X480Y72D01*
X499Y72D02*
X530Y72D01*
X1365Y72D02*
X1397Y72D01*
X1416Y72D02*
X1447Y72D01*
X1466Y72D02*
X1498Y72D01*
X1518Y72D02*
X1543Y72D01*
X1573Y72D02*
X1579Y72D01*
X1617Y72D02*
X1645Y72D01*
X1665Y72D02*
X1671Y72D01*
X1692Y72D02*
X1698Y72D01*
X1717Y72D02*
X1746Y72D01*
X1765Y72D02*
X1797Y72D01*
X7Y71D02*
X14Y71D01*
X196Y71D02*
X229Y71D01*
X246Y71D02*
X252Y71D01*
X273Y71D02*
X279Y71D01*
X305Y71D02*
X327Y71D01*
X346Y71D02*
X352Y71D01*
X399Y71D02*
X430Y71D01*
X451Y71D02*
X472Y71D01*
X474Y71D02*
X480Y71D01*
X499Y71D02*
X530Y71D01*
X1365Y71D02*
X1397Y71D01*
X1416Y71D02*
X1439Y71D01*
X1441Y71D02*
X1447Y71D01*
X1467Y71D02*
X1498Y71D01*
X1518Y71D02*
X1544Y71D01*
X1573Y71D02*
X1579Y71D01*
X1618Y71D02*
X1644Y71D01*
X1665Y71D02*
X1671Y71D01*
X1692Y71D02*
X1698Y71D01*
X1718Y71D02*
X1745Y71D01*
X1766Y71D02*
X1797Y71D01*
X7Y70D02*
X14Y70D01*
X196Y70D02*
X229Y70D01*
X246Y70D02*
X252Y70D01*
X273Y70D02*
X279Y70D01*
X306Y70D02*
X326Y70D01*
X346Y70D02*
X352Y70D01*
X400Y70D02*
X422Y70D01*
X424Y70D02*
X430Y70D01*
X452Y70D02*
X471Y70D01*
X474Y70D02*
X480Y70D01*
X500Y70D02*
X522Y70D01*
X524Y70D02*
X530Y70D01*
X1366Y70D02*
X1397Y70D01*
X1417Y70D02*
X1437Y70D01*
X1441Y70D02*
X1447Y70D01*
X1468Y70D02*
X1490Y70D01*
X1492Y70D02*
X1498Y70D01*
X1518Y70D02*
X1544Y70D01*
X1573Y70D02*
X1579Y70D01*
X1619Y70D02*
X1643Y70D01*
X1665Y70D02*
X1671Y70D01*
X1692Y70D02*
X1698Y70D01*
X1719Y70D02*
X1744Y70D01*
X1766Y70D02*
X1796Y70D01*
X7Y69D02*
X14Y69D01*
X196Y69D02*
X229Y69D01*
X246Y69D02*
X251Y69D01*
X274Y69D02*
X279Y69D01*
X308Y69D02*
X325Y69D01*
X347Y69D02*
X352Y69D01*
X401Y69D02*
X420Y69D01*
X425Y69D02*
X429Y69D01*
X454Y69D02*
X469Y69D01*
X475Y69D02*
X480Y69D01*
X502Y69D02*
X520Y69D01*
X525Y69D02*
X530Y69D01*
X1367Y69D02*
X1389Y69D01*
X1391Y69D02*
X1397Y69D01*
X1418Y69D02*
X1435Y69D01*
X1441Y69D02*
X1447Y69D01*
X1470Y69D02*
X1489Y69D01*
X1492Y69D02*
X1497Y69D01*
X1518Y69D02*
X1544Y69D01*
X1573Y69D02*
X1579Y69D01*
X1620Y69D02*
X1642Y69D01*
X1665Y69D02*
X1671Y69D01*
X1692Y69D02*
X1698Y69D01*
X1721Y69D02*
X1743Y69D01*
X1768Y69D02*
X1795Y69D01*
X7Y68D02*
X14Y68D01*
X196Y68D02*
X228Y68D01*
X247Y68D02*
X250Y68D01*
X275Y68D02*
X278Y68D01*
X310Y68D02*
X323Y68D01*
X348Y68D02*
X351Y68D01*
X403Y68D02*
X418Y68D01*
X425Y68D02*
X428Y68D01*
X456Y68D02*
X467Y68D01*
X476Y68D02*
X479Y68D01*
X503Y68D02*
X518Y68D01*
X526Y68D02*
X529Y68D01*
X854Y68D02*
X858Y68D01*
X1368Y68D02*
X1387Y68D01*
X1392Y68D02*
X1397Y68D01*
X1419Y68D02*
X1434Y68D01*
X1442Y68D02*
X1447Y68D01*
X1471Y68D02*
X1487Y68D01*
X1492Y68D02*
X1497Y68D01*
X1518Y68D02*
X1544Y68D01*
X1573Y68D02*
X1578Y68D01*
X1622Y68D02*
X1641Y68D01*
X1665Y68D02*
X1670Y68D01*
X1693Y68D02*
X1698Y68D01*
X1722Y68D02*
X1741Y68D01*
X1769Y68D02*
X1794Y68D01*
X7Y67D02*
X14Y67D01*
X853Y67D02*
X859Y67D01*
X1370Y67D02*
X1386Y67D01*
X1392Y67D02*
X1396Y67D01*
X1421Y67D02*
X1432Y67D01*
X1443Y67D02*
X1446Y67D01*
X1473Y67D02*
X1485Y67D01*
X1493Y67D02*
X1496Y67D01*
X1519Y67D02*
X1543Y67D01*
X1574Y67D02*
X1578Y67D01*
X1623Y67D02*
X1639Y67D01*
X1666Y67D02*
X1669Y67D01*
X1694Y67D02*
X1697Y67D01*
X1724Y67D02*
X1740Y67D01*
X1771Y67D02*
X1792Y67D01*
X7Y66D02*
X14Y66D01*
X852Y66D02*
X860Y66D01*
X7Y65D02*
X14Y65D01*
X852Y65D02*
X861Y65D01*
X7Y64D02*
X14Y64D01*
X852Y64D02*
X861Y64D01*
X7Y63D02*
X14Y63D01*
X852Y63D02*
X861Y63D01*
X7Y62D02*
X14Y62D01*
X852Y62D02*
X861Y62D01*
X7Y61D02*
X14Y61D01*
X852Y61D02*
X861Y61D01*
X7Y60D02*
X14Y60D01*
X852Y60D02*
X861Y60D01*
X7Y59D02*
X14Y59D01*
X852Y59D02*
X861Y59D01*
X7Y58D02*
X14Y58D01*
X852Y58D02*
X861Y58D01*
X7Y57D02*
X14Y57D01*
X852Y57D02*
X861Y57D01*
X7Y56D02*
X14Y56D01*
X852Y56D02*
X861Y56D01*
X7Y55D02*
X14Y55D01*
X852Y55D02*
X861Y55D01*
X7Y54D02*
X14Y54D01*
X852Y54D02*
X861Y54D01*
X7Y53D02*
X14Y53D01*
X852Y53D02*
X861Y53D01*
X7Y52D02*
X14Y52D01*
X852Y52D02*
X861Y52D01*
X7Y51D02*
X14Y51D01*
X852Y51D02*
X861Y51D01*
X7Y50D02*
X14Y50D01*
X852Y50D02*
X861Y50D01*
X7Y49D02*
X14Y49D01*
X692Y49D02*
X732Y49D01*
X836Y49D02*
X876Y49D01*
X7Y48D02*
X14Y48D01*
X689Y48D02*
X734Y48D01*
X834Y48D02*
X879Y48D01*
X7Y47D02*
X14Y47D01*
X688Y47D02*
X735Y47D01*
X833Y47D02*
X880Y47D01*
X7Y46D02*
X14Y46D01*
X688Y46D02*
X736Y46D01*
X832Y46D02*
X880Y46D01*
X7Y45D02*
X14Y45D01*
X687Y45D02*
X736Y45D01*
X832Y45D02*
X880Y45D01*
X7Y44D02*
X14Y44D01*
X687Y44D02*
X736Y44D01*
X832Y44D02*
X881Y44D01*
X7Y43D02*
X14Y43D01*
X687Y43D02*
X736Y43D01*
X832Y43D02*
X880Y43D01*
X7Y42D02*
X14Y42D01*
X687Y42D02*
X736Y42D01*
X832Y42D02*
X880Y42D01*
X7Y41D02*
X14Y41D01*
X687Y41D02*
X736Y41D01*
X833Y41D02*
X880Y41D01*
X7Y40D02*
X14Y40D01*
X687Y40D02*
X736Y40D01*
X834Y40D02*
X879Y40D01*
X7Y39D02*
X14Y39D01*
X687Y39D02*
X736Y39D01*
X836Y39D02*
X876Y39D01*
X7Y38D02*
X14Y38D01*
X688Y38D02*
X736Y38D01*
X852Y38D02*
X861Y38D01*
X7Y37D02*
X14Y37D01*
X688Y37D02*
X735Y37D01*
X852Y37D02*
X861Y37D01*
X7Y36D02*
X14Y36D01*
X689Y36D02*
X734Y36D01*
X852Y36D02*
X861Y36D01*
X7Y35D02*
X14Y35D01*
X690Y35D02*
X733Y35D01*
X852Y35D02*
X861Y35D01*
X7Y34D02*
X14Y34D01*
X852Y34D02*
X861Y34D01*
X7Y33D02*
X14Y33D01*
X852Y33D02*
X861Y33D01*
X7Y32D02*
X14Y32D01*
X852Y32D02*
X861Y32D01*
X7Y31D02*
X14Y31D01*
X852Y31D02*
X861Y31D01*
X7Y30D02*
X14Y30D01*
X852Y30D02*
X861Y30D01*
X7Y29D02*
X14Y29D01*
X852Y29D02*
X861Y29D01*
X7Y28D02*
X14Y28D01*
X852Y28D02*
X861Y28D01*
X7Y27D02*
X14Y27D01*
X852Y27D02*
X861Y27D01*
X7Y26D02*
X14Y26D01*
X852Y26D02*
X861Y26D01*
X7Y25D02*
X14Y25D01*
X852Y25D02*
X861Y25D01*
X7Y24D02*
X14Y24D01*
X852Y24D02*
X861Y24D01*
X7Y23D02*
X14Y23D01*
X852Y23D02*
X861Y23D01*
X7Y22D02*
X14Y22D01*
X852Y22D02*
X860Y22D01*
X7Y21D02*
X14Y21D01*
X853Y21D02*
X860Y21D01*
X7Y20D02*
X14Y20D01*
X854Y20D02*
X858Y20D01*
X7Y19D02*
X14Y19D01*
X7Y18D02*
X14Y18D01*
X7Y17D02*
X14Y17D01*
X7Y16D02*
X14Y16D01*
X7Y15D02*
X14Y15D01*
X7Y14D02*
X14Y14D01*
X7Y13D02*
X14Y13D01*
X7Y12D02*
X14Y12D01*
X7Y11D02*
X14Y11D01*
X7Y10D02*
X14Y10D01*
X7Y9D02*
X14Y9D01*
X7Y8D02*
X14Y8D01*
X7Y7D02*
X14Y7D01*
X7Y6D02*
X14Y6D01*
X7Y5D02*
X14Y5D01*
X7Y4D02*
X14Y4D01*
X7Y3D02*
X14Y3D01*
D02*
G04 End of Silk1*
M02*